<svg width="44" height="49" viewBox="0 0 44 49" fill="none" xmlns="http://www.w3.org/2000/svg">
<path d="M21.9669 40.5758C21.2692 40.5758 20.703 40.0097 20.703 39.3119V36.9271C20.6744 36.2294 21.2177 35.6403 21.9155 35.6174C22.6132 35.5888 23.2023 36.1321 23.2309 36.8299C23.2309 36.8642 23.2309 36.8928 23.2309 36.9271V39.3119C23.2309 40.0097 22.6647 40.5758 21.9669 40.5758Z" fill="#020B21"/>
<path d="M29.356 38.597C28.9042 38.597 28.4867 38.3568 28.2636 37.9622L27.0683 35.8976C26.7366 35.2857 26.9597 34.5193 27.5716 34.1819C28.1664 33.8616 28.9099 34.0561 29.2587 34.6337L30.454 36.6983C30.8029 37.3045 30.5913 38.0766 29.9908 38.4254C29.7963 38.5398 29.579 38.597 29.356 38.597Z" fill="#020B21"/>
<path d="M34.7662 33.1868C34.5432 33.1868 34.3258 33.1296 34.1314 33.0209L32.0668 31.8256C31.4549 31.4882 31.2318 30.7219 31.5692 30.1099C31.901 29.498 32.673 29.2749 33.285 29.6066C33.3021 29.6181 33.3193 29.6295 33.3307 29.6352L35.3953 30.8305C36.0015 31.1794 36.2074 31.9515 35.8585 32.552C35.6355 32.9466 35.218 33.1868 34.7662 33.1868Z" fill="#020B21"/>
<path d="M34.3602 25.7978C33.6624 25.7693 33.1191 25.1859 33.1477 24.4882C33.1763 23.8248 33.7025 23.2986 34.3602 23.27H36.745C37.4427 23.2986 37.986 23.8877 37.9574 24.5854C37.9346 25.2431 37.4027 25.775 36.745 25.7978H34.3602Z" fill="#020B21"/>
<path d="M32.7016 19.604C32.0039 19.604 31.4377 19.0379 31.4377 18.3401C31.4377 17.8883 31.6779 17.4708 32.0725 17.2421L34.1314 16.0525C34.7376 15.7036 35.5097 15.9095 35.8586 16.5157C36.2074 17.1162 36.0015 17.894 35.3953 18.2429L33.3307 19.4325C33.142 19.5411 32.9247 19.604 32.7016 19.604Z" fill="#020B21"/>
<path d="M28.1664 15.0631C27.9491 15.0631 27.726 15.0059 27.5373 14.8972C26.9311 14.5483 26.7252 13.7763 27.0741 13.17L28.2636 11.1055C28.6125 10.4992 29.3846 10.2934 29.9908 10.6422C30.597 10.9911 30.8029 11.7632 30.454 12.3694L29.2587 14.434C29.0357 14.8229 28.6182 15.0631 28.1664 15.0631Z" fill="#020B21"/>
<path d="M21.9669 13.4046C21.2692 13.4046 20.703 12.8384 20.703 12.1407V9.76153C20.6744 9.06381 21.2177 8.47474 21.9155 8.44615C22.6132 8.41755 23.2023 8.96086 23.2309 9.65859C23.2309 9.6929 23.2309 9.72722 23.2309 9.76153V12.1407C23.2309 12.8384 22.6647 13.4046 21.9669 13.4046Z" fill="#020B21"/>
<path d="M15.7732 15.0631C15.3214 15.0631 14.9039 14.8229 14.6751 14.434L13.4856 12.3694C13.1367 11.7632 13.3426 10.9911 13.9488 10.6422C14.5493 10.2934 15.3271 10.4992 15.676 11.1055L16.8655 13.17C17.2144 13.7706 17.0085 14.5426 16.408 14.8972C16.2136 15.0059 15.9962 15.0631 15.7732 15.0631Z" fill="#020B21"/>
<path d="M11.2322 19.604C11.0149 19.604 10.7976 19.5411 10.6031 19.4324L8.53856 18.2428C7.93806 17.894 7.72646 17.1219 8.07532 16.5157C8.30408 16.1211 8.72157 15.8809 9.17338 15.8809C9.3907 15.8809 9.61375 15.9438 9.80248 16.0524L11.8671 17.242C12.4733 17.5966 12.6792 18.3687 12.3303 18.9692C12.1015 19.3638 11.6841 19.604 11.2322 19.604Z" fill="#020B21"/>
<path d="M7.19459 25.7978C6.49686 25.7692 5.95355 25.1859 5.97643 24.4882C6.00502 23.8247 6.53118 23.2986 7.19459 23.27H9.57372C10.2714 23.2414 10.8605 23.7904 10.8891 24.4882C10.9177 25.1859 10.3744 25.7692 9.67666 25.7978C9.64235 25.7978 9.60803 25.7978 9.57372 25.7978H7.19459Z" fill="#020B21"/>
<path d="M9.17338 33.1868C8.47566 33.1868 7.90947 32.6206 7.90947 31.9229C7.90947 31.4711 8.14967 31.0536 8.53857 30.8305L10.6031 29.6352C11.1979 29.2749 11.9757 29.458 12.3417 30.0585C12.7078 30.6532 12.519 31.431 11.9185 31.7971C11.9014 31.8085 11.8842 31.8142 11.8671 31.8256L9.80248 33.0209C9.61375 33.1296 9.39071 33.1868 9.17338 33.1868Z" fill="#020B21"/>
<path d="M14.5779 38.597C13.8802 38.597 13.314 38.0308 13.314 37.333C13.314 37.11 13.3769 36.8927 13.4856 36.6982L14.6751 34.6336C15.0297 34.0331 15.8018 33.8215 16.408 34.1704C17.0085 34.525 17.2144 35.2971 16.8655 35.9033L15.676 37.9621C15.4472 38.3568 15.0297 38.597 14.5779 38.597Z" fill="#020B21"/>
<path d="M27.7718 6.13559C27.6688 6.13559 27.5716 6.12415 27.4801 6.09556C27.0969 5.98118 26.708 5.87823 26.3191 5.79245C25.7758 5.66663 25.4327 5.1176 25.5585 4.57429C25.6843 4.02526 26.2276 3.68783 26.7767 3.81365C27.2056 3.91088 27.6345 4.02526 28.0577 4.15108C28.5953 4.31121 28.8984 4.87168 28.7383 5.40927C28.6125 5.8382 28.2179 6.13559 27.7718 6.13559Z" fill="#020B21"/>
<path d="M32.2841 8.11434C32.1011 8.11434 31.9238 8.06287 31.7694 7.97136C31.0946 7.57103 30.4026 7.21645 29.682 6.9019C29.173 6.67314 28.9385 6.07835 29.1615 5.56936C29.3217 5.20334 29.6877 4.96313 30.088 4.96313C30.2253 4.96313 30.3625 4.99173 30.4941 5.04892C31.2833 5.39778 32.0554 5.7924 32.7988 6.23277C33.2793 6.51872 33.4394 7.13638 33.1534 7.61678C32.9704 7.92561 32.6387 8.11434 32.2841 8.11434ZM36.1903 11.1226C35.9215 11.1226 35.6698 11.0139 35.4811 10.8309C34.9206 10.2819 34.3316 9.76715 33.7139 9.28675C33.2907 8.92073 33.2449 8.28591 33.611 7.8627C33.9484 7.4738 34.5146 7.39946 34.9378 7.68541C35.6241 8.21728 36.276 8.78347 36.8937 9.38969C37.2883 9.78431 37.294 10.4248 36.9051 10.8195C36.7164 11.0139 36.4533 11.1226 36.1845 11.1226H36.1903ZM39.2557 14.9772C38.9011 14.9772 38.5751 14.7942 38.3921 14.4968C37.9803 13.8277 37.5342 13.1872 37.0481 12.5752C36.705 12.1406 36.7736 11.5057 37.2082 11.1569C37.3855 11.0196 37.6086 10.9396 37.8373 10.9396C38.1462 10.9396 38.4378 11.0825 38.6323 11.3227C39.1699 11.9976 39.6617 12.7068 40.1135 13.4445C40.4052 13.9192 40.2565 14.5426 39.7818 14.8342C39.6217 14.9315 39.4387 14.9829 39.2557 14.9829V14.9772ZM41.2917 19.461C40.8513 19.461 40.4624 19.175 40.3309 18.7518C40.0964 18.0083 39.8161 17.2763 39.4902 16.5671C39.2614 16.0524 39.4902 15.4576 40.0049 15.2289C40.5082 15.0058 41.0972 15.2289 41.326 15.7264C41.6863 16.5156 41.9951 17.322 42.2582 18.1456C42.424 18.6775 42.1266 19.2436 41.5948 19.4152C41.4975 19.4438 41.3946 19.461 41.2917 19.461ZM42.1896 24.305C41.652 24.305 41.2059 23.8875 41.1773 23.3557C41.1258 22.5779 41.0343 21.8001 40.8913 21.0337C40.7941 20.4847 41.1544 19.9528 41.7034 19.8556C41.7606 19.8441 41.8235 19.8384 41.8864 19.8384C42.3726 19.8384 42.7901 20.1873 42.8816 20.6677C43.036 21.5141 43.1389 22.3777 43.1904 23.2356C43.2247 23.796 42.8015 24.2707 42.2467 24.305C42.2239 24.305 42.2067 24.305 42.1838 24.305H42.1896ZM41.8922 29.2234C41.8293 29.2234 41.7721 29.2177 41.7092 29.2063C41.1601 29.1033 40.7998 28.5772 40.9028 28.0281C41.0457 27.2618 41.1372 26.484 41.183 25.7062C41.2173 25.1686 41.6577 24.7568 42.1953 24.7568H42.2525C42.8129 24.7911 43.2361 25.2658 43.2018 25.8263C43.1504 26.6899 43.0474 27.5477 42.893 28.3941C42.8015 28.8803 42.3783 29.2291 41.8864 29.2234H41.8922ZM40.4109 33.9245C39.8562 33.9302 39.3987 33.4784 39.3987 32.9179C39.3987 32.775 39.4272 32.632 39.4902 32.4947C39.8104 31.7856 40.0907 31.0535 40.3251 30.31C40.4567 29.8868 40.8513 29.6009 41.2917 29.6009C41.3946 29.6009 41.4975 29.6123 41.5948 29.6466C42.1266 29.8125 42.424 30.3787 42.2582 30.9105C41.9951 31.7398 41.6863 32.5519 41.326 33.3354C41.1658 33.6957 40.8055 33.9245 40.4109 33.9245ZM37.8431 38.128C37.2826 38.128 36.8308 37.6762 36.8308 37.1214C36.8308 36.8927 36.9109 36.6696 37.0481 36.4923C37.5342 35.8804 37.986 35.2399 38.3921 34.5707C38.7066 34.1075 39.3357 33.9874 39.799 34.3019C40.2279 34.5936 40.3709 35.1655 40.1193 35.6231C39.6674 36.3608 39.1699 37.07 38.6323 37.7505C38.4378 37.9907 38.1462 38.1337 37.8373 38.1337H37.8431V38.128ZM34.3316 41.588C33.7768 41.588 33.325 41.1362 33.325 40.5815C33.325 40.2669 33.468 39.9695 33.7139 39.7808C34.3373 39.3004 34.9263 38.7857 35.4811 38.2367C35.8585 37.8249 36.4991 37.7963 36.9109 38.168C37.3226 38.5455 37.3512 39.186 36.9795 39.5978C36.9509 39.6264 36.928 39.6493 36.8994 39.6779C36.2818 40.2841 35.6298 40.856 34.9492 41.3822C34.7719 41.5137 34.5546 41.588 34.3316 41.588ZM30.0937 44.1044C29.539 44.1044 29.0872 43.6469 29.0872 43.0922C29.0872 42.6918 29.3217 42.3258 29.6877 42.1657C30.4083 41.8511 31.1003 41.4965 31.7751 41.0962C32.2555 40.8102 32.8732 40.9704 33.1592 41.4508C33.4451 41.9312 33.285 42.5488 32.8046 42.8348C32.0611 43.2752 31.2947 43.6698 30.4998 44.0186C30.374 44.0758 30.2367 44.1044 30.0937 44.1044Z" fill="#020B21"/>
<path d="M26.5479 45.2826C25.9932 45.2826 25.5356 44.8308 25.5356 44.2703C25.5356 43.8013 25.8616 43.3896 26.3249 43.2866C26.7138 43.1951 27.1027 43.0922 27.4801 42.9835C28.012 42.8119 28.5839 43.1036 28.7555 43.6355C28.927 44.1674 28.6354 44.7335 28.1035 44.9051C28.0863 44.9108 28.0749 44.9166 28.0635 44.9166C27.6402 45.0424 27.2113 45.1568 26.7767 45.2597C26.7023 45.2711 26.628 45.2826 26.5479 45.2826Z" fill="#020B21"/>
<path d="M21.9669 46.5066C9.85395 46.5066 0 36.6526 0 24.5339C0 12.4209 9.85395 2.56128 21.9669 2.56128C22.9163 2.56128 23.6884 3.33335 23.6884 4.28272C23.6884 5.23208 22.9163 5.99844 21.9669 5.99844C11.747 5.99844 3.43716 14.314 3.43716 24.5339C3.43716 34.7539 11.747 43.0694 21.9669 43.0694C22.9163 43.0694 23.6884 43.8415 23.6884 44.7851C23.6884 45.7345 22.9163 46.5066 21.9669 46.5066Z" fill="#020B21"/>
<path d="M18.9873 49C18.0379 48.9943 17.2716 48.2222 17.2773 47.2728C17.2773 46.7695 17.5003 46.2891 17.8835 45.9689L19.2904 44.7965L17.8835 43.6241C17.1515 43.0178 17.0485 41.9369 17.649 41.2049C18.2495 40.4671 19.3362 40.3642 20.0682 40.9647C20.0739 40.9704 20.0796 40.9761 20.0911 40.9818L23.0707 43.4754C23.797 44.0873 23.9 45.1682 23.288 45.8945C23.2251 45.9746 23.1508 46.0489 23.0707 46.1118L20.0911 48.5939C19.7822 48.857 19.3934 49 18.9873 49Z" fill="#020B21"/>
<path d="M18.9873 8.49186C18.0379 8.49186 17.2716 7.71406 17.2773 6.77042C17.2773 6.26142 17.5003 5.78674 17.8835 5.46075L19.2904 4.28834L17.8835 3.1045C17.1229 2.54403 16.957 1.46884 17.5175 0.702487C18.0837 -0.0638677 19.1531 -0.229721 19.9195 0.336467C19.9824 0.3765 20.0396 0.427972 20.0911 0.473725L23.0707 2.96152C23.797 3.57346 23.9 4.65436 23.288 5.38068C23.2251 5.46075 23.1508 5.5351 23.0707 5.59801L20.0911 8.09152C19.7822 8.34888 19.3934 8.49186 18.9873 8.49186Z" fill="#020B21"/>
<path d="M15.4129 29.7153C14.7952 29.7153 14.3034 29.212 14.3034 28.6001C14.3034 28.2284 14.4921 27.8795 14.8067 27.6736C15.8647 26.9759 16.877 26.2038 17.8321 25.3574C19.2618 24.0649 19.3133 23.5959 19.3133 23.5902C19.3076 22.475 18.3982 21.5771 17.2773 21.5828C16.7168 21.5828 16.1735 21.823 15.7961 22.2405C15.3843 22.698 14.6751 22.7323 14.2233 22.3206C13.7658 21.9088 13.7315 21.2053 14.1433 20.7478C15.716 19.0092 18.404 18.8777 20.1426 20.4561C21.029 21.2568 21.5323 22.4006 21.5323 23.5902C21.5323 24.6368 20.6058 25.9465 18.7757 27.4906H21.1548C21.7668 27.4906 22.2643 27.9882 22.2643 28.6001C22.2643 29.212 21.7668 29.7153 21.1548 29.7153H15.4129Z" fill="#020B21"/>
<path d="M26.6394 24.4652V23.2471L25.4784 24.4652H26.6394ZM27.7489 29.7153C27.137 29.7153 26.6394 29.2178 26.6394 28.6058V26.69L22.882 26.6785C22.27 26.6785 21.7725 26.181 21.7725 25.569C21.7725 25.2831 21.8869 25.0086 22.0813 24.8027L26.9425 19.6955C27.3657 19.2494 28.0692 19.2323 28.5153 19.6498C28.7383 19.8614 28.8641 20.1588 28.8641 20.4619V24.471H28.9728C29.5905 24.471 30.088 24.9685 30.088 25.5805C30.088 26.1981 29.5905 26.6957 28.9728 26.6957H28.8641V28.6058C28.8641 29.2178 28.3666 29.7153 27.7546 29.7153C27.7546 29.7153 27.7546 29.7153 27.7489 29.7153Z" fill="#020B21"/>
</svg>
