<svg width="388" height="397" viewBox="0 0 388 397" fill="none" xmlns="http://www.w3.org/2000/svg">
<path fill-rule="evenodd" clip-rule="evenodd" d="M31.5347 87.8938L31.7931 85.0619L31.7873 84.2647L30.8632 88.7358L31.5347 87.8938ZM25.9065 114.163L26.24 110.693L25.274 114.885L25.9065 114.163ZM20.4343 139.953L20.6147 137.361L20.6897 136.723L19.8017 140.675L20.4343 139.953ZM14.9201 165.464L15.2565 162.393L14.4465 166.105L14.9201 165.464ZM9.5619 190.496L9.82319 188.063L9.85928 187.544L9.08825 191.137L9.5619 190.496ZM4.35965 215.048L4.57905 212.336L3.886 215.689L4.35965 215.048ZM4.45505 217.2L3.27092 218.803L3.03699 219.522L5.26553 224.489L4.45505 217.2ZM9.72091 228.721L7.98224 230.807L10.4144 236.369L9.72091 228.721ZM67.1919 320.58L56.1049 314.323L66.5494 325.408L67.1919 320.58ZM307.589 336.606L300.347 343.794L308.772 340.304L307.589 336.606ZM334.734 325.685L327.849 332.592L335.797 329.345L335.836 329.225L334.734 325.685ZM339.735 317.238L335.801 324.442L336.577 326.947L339.735 317.238ZM338.731 316.249L329.417 328.993L333.494 325.017L334.483 324.013L336.489 320.291L338.731 316.249ZM344.009 302.06L344.377 303.373L347.694 293.583L343.602 300.867L344.009 302.06ZM352.007 278.285L352.414 279.478L355.848 269.328L351.678 276.852L352.007 278.285ZM359.751 252.438L360.449 255.184L363.96 244.794L359.751 252.438ZM367.941 227.665L368.39 229.137L368.72 230.569L372.348 219.82L367.941 227.665ZM54.7414 67.0769L65.5231 58.787L40.2666 66.3453L54.7414 67.0769ZM13.1701 242.568L15.6832 248.289L14.8698 240.602L13.1701 242.568ZM19.4281 253.484L18.5198 254.646L21.1137 260.527L20.2584 252.561L19.4281 253.484ZM24.8196 265.841L23.8304 266.845L26.5861 273.043L25.689 264.798L24.8196 265.841ZM31.1614 277.315L30.9635 277.515L29.3028 279.361L32.1394 285.718L31.1614 277.315ZM50.6412 303.002L50.6802 302.882L48.6395 301.821L39.2335 296.508L49.9597 307.95L50.6412 303.002ZM83.5418 337.96L72.6556 331.9L82.7795 342.748L82.8936 341.99L83.5418 337.96ZM99.5712 355.102L88.8048 349.082L98.728 359.732L99.1121 357.737L99.5712 355.102ZM105.433 366.42L104.753 366.066L114.515 376.399L115.319 371.889L105.433 366.42ZM130.785 388.318L120.459 382.574L129.9 392.669L130.785 388.318ZM132.104 388.747L131.26 393.377L143.953 390.215L132.104 388.747ZM150.876 388.49L163.847 385.287L151.878 383.78L150.876 388.49ZM178.434 379.56L171.931 378.77L170.771 383.562L184.059 380.197L178.434 379.56ZM191.103 378.511L204.55 375.065L192.263 373.719L191.103 378.511ZM191.956 369.775L181.327 366.186L191.973 372.167L203.703 373.596L191.956 369.775ZM212.913 368.507L212.409 370.463L211.713 373.418L225.44 369.93L212.913 368.507ZM234 363.171L232.642 368.164L246.767 364.672L234 363.171ZM262.212 356.309L257.026 361.249L266.287 357.634L264.745 353.819L262.212 356.309ZM279.251 347.933L271.811 355.322L280.673 351.71L279.251 347.933ZM293.559 342.249L286.158 349.517L294.862 345.986L293.601 342.527L293.559 342.249ZM319.347 331.019L320.93 329.413L325.376 321.449L315.666 334.594L319.347 331.019ZM322.077 333.63L321.301 331.125L314.889 337.39L314.137 338.073L322.364 334.784L322.077 333.63ZM337.058 305.499L342.322 300.318L346.768 292.354L337.058 305.499ZM350.491 278.057L342.101 286.329L351.284 282.954L351.635 281.875L351.35 281.12L350.491 278.057ZM349.91 274.952L344.937 281.684L347.668 278.994L350.278 276.264L354.803 268.06L349.91 274.952ZM363.074 243.445L352.851 257.352L358.433 252.009L362.642 244.365L363.074 243.445ZM377.108 205.595L380.734 194.448L376.368 202.571L377.108 205.595ZM366.185 161.748L368.649 171.695L381.186 180.015L365.365 158.565L366.185 161.748ZM346.225 141.206L348.748 142.822L358.762 149.525L343.06 128.115L346.225 141.206ZM323.8 110.717L336.298 119.156L320.597 97.7453L323.8 110.717ZM301.376 80.2271L313.993 88.7052L298.172 67.2559L301.376 80.2271ZM279.071 49.7767L291.569 58.2158L275.867 36.8054L279.071 49.7767ZM256.646 19.2872L269.225 27.8852L253.523 6.47486L256.646 19.2872ZM236.308 12.5396L242.213 7.83283L246.652 4.37246L221.833 11.808L236.308 12.5396ZM201.197 24.3152L205.127 33.0161L206.139 35.201L211.105 21.9709L213.999 14.2966L205.636 20.8548L201.197 24.3152ZM200.193 23.326L204.434 20.0664L210.657 15.1979L185.679 22.7143L189.866 22.8831L200.193 23.326ZM127.607 45.1805L138.229 36.9715L113.132 44.4489L116.123 44.6264L127.607 45.1805ZM101.956 47.8388L76.8191 55.4361L91.174 56.1287L101.956 47.8388ZM73.6391 56.6551L95.4087 68.3749L90.9848 57.5252L88.5125 57.3838L73.6391 56.6551ZM29.7471 94.2049L32.6588 99.9236L32.6861 98.2094L31.6691 89.9258L30.1312 92.209L29.7471 94.2049ZM27.303 114.352L27.6498 118.176L27.7057 109.447L27.303 114.352ZM27.1923 126.511L26.0409 116.195L24.581 118.239L24.1579 120.354L27.1923 126.511ZM21.7918 140.262L22.0966 143.807L22.1933 140.658L22.2364 135.635L21.7918 140.262ZM13.2885 171.296L14.0164 172.725L16.164 177.533L15.1744 167.535L13.7924 169.339L13.2885 171.296ZM10.9584 190.685L11.2604 193.832L11.289 186.816L10.9584 190.685ZM5.71717 215.357L5.97723 218.225L6.08961 211.767L5.71717 215.357ZM10.2808 218.034L8.04569 228.574L9.42767 226.77L10.2808 218.034ZM11.1937 222.971L10.944 226.998L11.246 230.145L11.1937 222.971ZM16.4467 238.199L16.5404 234.651L16.0929 238.879L16.4758 242.185L16.4467 238.199ZM20.0851 250.649L20.8934 241.236L19.8524 246.066L18.4244 252.494L19.0569 251.772L20.0851 250.649ZM21.8872 246.331L21.4426 250.958L21.8673 254.542L21.8872 246.331ZM26.4019 253.234L23.8549 264.732L23.8159 264.852L25.5156 262.886L26.4019 253.234ZM27.3828 262.036L27.2758 258.289L26.8731 263.195L27.3397 267.058L27.3828 262.036ZM31.9913 265.39L29.5583 276.13L29.2883 277.368L30.988 275.403L31.9913 265.39ZM60.2462 302.813L43.3841 297.196L51.5495 301.84L60.2462 302.813ZM51.3649 309.335L66.5991 304.879L51.9987 303.311L51.2841 309.176L51.3649 309.335ZM80.0694 320.924L57.0941 313.319L68.1811 319.576L80.0694 320.924ZM67.9157 326.912L83.1108 322.576L68.6303 321.048L67.8348 326.754L67.9157 326.912ZM84.531 336.956L96.1796 338.226L73.6448 330.897L76.5664 332.51L84.531 336.956ZM84.1847 344.133L99.1821 339.998L84.8604 338.388L84.0649 344.094L84.1847 344.133ZM100.133 361.117L115.092 357.102L100.89 355.531L100.737 356.409L100.052 360.958L100.133 361.117ZM115.8 377.745L130.561 373.93L116.637 372.317L115.794 376.947L115.719 377.586L115.8 377.745ZM142.935 387.233L132.729 381.528L121.757 380.212L127.391 382.045L142.935 387.233ZM142.746 388.629L135.793 386.368L121.688 381.648L131.774 387.314L142.746 388.629ZM183.092 378.689L161.036 371.516L171.602 377.338L172.999 377.527L183.092 378.689ZM178.057 366.05L181.874 370.208L189.55 378.801L190.825 373.252L181.419 367.939L178.057 366.05ZM203.892 372.2L193.245 366.218L192.088 366.107L181.516 364.789L195.861 369.588L203.892 372.2ZM266.853 347.745L261.565 355.038L264.493 352.147L266.853 347.745ZM278.999 346.261L283.838 337.496L282.181 339.741L273.142 352.044L276.308 348.832L278.999 346.261ZM311.883 324.218L306.383 329.719L303.235 335.322L301.739 337.884L302.608 336.841L311.883 324.218ZM311.742 326.69L305.704 335.065L301.756 340.276L307.218 334.894L311.742 326.69ZM325.556 318.856L320.134 324.118L315.768 332.241L318.649 328.274L325.556 318.856ZM323.551 333.579L328.268 319.076L322.368 329.881L323.186 332.665L323.551 333.579ZM333.807 318.756L329.4 326.601L338.912 313.657L333.807 318.756ZM343.286 306.729L343.598 305.77L342.535 302.111L334.183 310.263L343.286 306.729ZM358.684 253.682L350.135 262.035L351.924 261.424L359.318 258.66L359.63 257.701L358.645 253.802L358.684 253.682ZM358.166 237.343L359.955 236.732L367.589 234.045L367.901 233.086L366.874 228.908L358.166 237.343ZM366.662 227.116L371.462 218.471L361.002 232.698L366.662 227.116ZM367.248 220.017L366.061 221.221L361.222 229.986L371.72 215.639L367.248 220.017ZM375.427 204.651L375.181 203.776L367.265 211.407L366.791 212.048L370.37 210.826L375.857 209.032L376.169 208.073L375.427 204.651ZM372.238 204.674L373.188 203.79L374.969 201.983L377.448 197.62L372.238 204.674ZM368.101 172.975L358.174 178.229L381.279 181.768L379.077 180.389L368.101 172.975ZM345.556 142.447L334.676 148.186L360.257 152.265L355.13 148.874L345.556 142.447ZM312.171 117.538L337.952 121.814L323.132 111.957L312.171 117.538ZM289.665 86.8895L315.488 91.4447L300.707 81.4677L291.056 86.2814L289.665 86.8895ZM278.282 50.9782L267.241 56.4001L293.064 60.9553L278.282 50.9782ZM273.776 34.2696L266.156 55.252L277.596 49.8273L274.351 36.5773L273.776 34.2696ZM245.664 27.3793L260.565 37.3953L271.568 32.0934L268.574 31.5173L245.664 27.3793ZM244.735 25.7518L260.981 28.7824L270.759 30.5048L255.978 20.5278L244.735 25.7518ZM235.999 13.8971L218.773 13.066L240.899 24.5042L236.646 15.1679L235.999 13.8971ZM207.692 34.9107L220.494 24.8921L219.116 21.793L215.551 14.0062L210.351 27.9555L207.692 34.9107ZM169.865 46.0683L177.845 25.2029L165.043 35.2215L169.865 46.0683ZM168.433 46.3977L163.691 35.7097L146.345 34.8396L168.433 46.3977ZM128.769 46.0888L133.433 57.0165L134.998 53.019L141.691 36.1092L128.769 46.0888ZM132 57.3458L127.417 46.577L110.072 45.7069L132 57.3458ZM92.3365 57.037L96.8413 68.0456L105.258 47.0574L93.3676 56.312L92.3365 57.037ZM71.9697 57.305L76.3936 68.1547L89.5527 68.8561L93.7393 69.0248L84.3752 63.9909L71.9697 57.305ZM60.2499 79.0747L68.0821 59.8844L68.9847 57.9247L55.865 68.1051L60.2499 79.0747ZM58.4909 78.37L54.4324 68.4344L38.7619 67.7115L58.4909 78.37ZM24.0286 135.423L23.6038 131.838L23.584 140.05L24.0286 135.423ZM19.818 148.368L21.6002 152.262L20.5297 142.105L19.1087 144.029L18.7246 146.024L19.818 148.368ZM18.1088 165.441L18.4754 161.054L18.1316 157.628L18.1403 158.824L18.1088 165.441ZM16.3166 165.653L16.6994 168.959L16.6157 168.402L16.7641 161.425L16.3166 165.653ZM13.3117 174.484L14.3014 184.482L16.5527 181.636L16.2292 181L13.3117 174.484ZM13.0782 186.205L12.7763 183.058L12.6697 190.314L13.0782 186.205ZM12.6164 226.747L12.9859 222.758L12.6031 219.453L12.6868 220.01L12.6164 226.747ZM15.5467 229.556L13.1946 240.455L14.7354 238.57L15.5467 229.556ZM23.2796 251.423L23.7631 246.676L23.2575 242.933L23.3111 244.806L23.2796 251.423ZM32.2119 257.377L30.9469 258.821L30.5512 259.222L29.7068 269.154L32.2148 257.775L32.2119 257.377ZM68.8119 313.154L57.0435 311.845L80.0578 319.33L68.8119 313.154ZM96.2489 336.791L86.9238 331.637L85.2428 330.693L73.8729 329.38L73.5942 329.422L96.2489 336.791ZM111.969 355.291L89.9139 348.117L100.599 353.979L108.139 354.841L111.969 355.291ZM127.627 370.723L117.182 364.939L105.971 363.546L107.649 364.092L127.627 370.723ZM137.953 376.467L149.363 388.661L150.521 383.471L139.994 377.528L137.953 376.467ZM152.662 376.479L150.987 376.332L141.292 375.167L150.402 378.13L162.949 382.344L159.506 380.296L152.662 376.479ZM173.315 371.665L172.754 371.35L161.265 369.999L171.654 373.511L183.281 377.293L173.315 371.665ZM175.018 364.797L173.938 369.747L173.743 370.347L186.512 377.548L182.131 372.677L175.018 364.797ZM207.122 372.455L203.584 368.256L195.707 359.464L195.086 361.78L194.273 365.095L199.958 368.402L207.122 372.455ZM212.623 366.954L224.631 368.341L201.856 360.934L212.623 366.954ZM224.94 366.984L221.779 365.293L214.054 360.925L202.046 359.537L224.94 366.984ZM232.682 362.742L224.397 358.059L219.593 355.304L231.089 368.454L232.487 363.341L232.682 362.742ZM225.865 357.211L230.669 359.967L233.671 361.738L242.488 362.75L225.865 357.211ZM275.142 336.523L274.944 336.724L270.193 352.145L276.525 340.42L275.142 336.523ZM284.619 346.1L286.232 343.179L290.954 334.774L289.531 330.997L289.57 330.877L284.619 346.1ZM312.756 334.575L318.815 323.689L317.671 319.87L314.046 331.018L312.756 334.575ZM328.312 314.053L318.535 318.031L319.882 322.445L327.244 315.296L328.312 314.053ZM331.224 314.47L326.546 328.854L332.368 318.288L331.224 314.47ZM332.208 312.669L333.436 317.045L341.787 308.892L332.208 312.669ZM357.858 260.703L348.078 264.282L348.896 267.067L349.468 268.976L352.99 265.482L357.858 260.703ZM357.793 246.234L353.032 254.759L363.293 240.733L358.584 245.431L357.793 246.234ZM356.269 239.509L357.58 244.442L366.129 236.089L356.269 239.509ZM368.803 192.82L365.455 209.228L382.15 186.425L368.803 192.82ZM356.217 177.725L367.295 171.785L363.274 156.03L356.217 177.725ZM344.87 141.296L340.849 125.54L333.711 147.077L344.87 141.296ZM327.92 129.022L338.761 123.403L313.099 119.165L327.92 129.022ZM311.206 116.429L322.446 110.806L318.544 95.0896L311.635 115.11L311.206 116.429ZM288.662 85.9003L300.021 80.3167L296.081 64.72L293.349 72.7121L288.662 85.9003ZM268.088 57.8687L282.99 67.8847L289.742 64.6467L293.992 62.5828L275.952 59.366L268.088 57.8687ZM272.652 33.2414L261.251 38.5463L265.032 54.2238L267.65 46.9899L272.652 33.2414ZM185.572 35.2712L203.037 36.1803L180.95 24.6222L185.572 35.2712ZM147.946 46.6267L143.243 35.8188L134.985 56.7262L147.946 46.6267ZM61.9222 78.8233L75.0419 68.6429L72.7296 63.1191L70.5371 57.6343L66.465 67.7089L61.9222 78.8233ZM30.721 107.511L32.6157 104.946L32.6011 102.953L29.6086 97.0758L30.721 107.511ZM29.5788 109.393L29.1122 105.53L29.1371 114.419L29.5788 109.393ZM24.5359 144.866L27.0049 133.607L27.0439 133.487L25.4251 135.612L24.7611 142.951L24.5359 144.866ZM18.667 149.054L19.7375 159.211L22.0278 156.244L21.0154 154.06L18.667 149.054ZM7.79801 210.997L7.53794 208.129L7.50644 214.746L7.79801 210.997ZM11.2335 206.548L7.9535 199.516L9.02113 209.274L9.49479 208.633L11.2335 206.548ZM10.6964 209.422L10.2227 210.063L9.15552 211.306L8.60558 217.887L8.46125 219.961L10.6964 209.422ZM14.6512 227.011L15.9232 221.063L14.3824 222.947L13.5712 231.962L14.6512 227.011ZM18.2936 234.558L17.9498 231.133L17.927 238.945L18.2936 234.558ZM19.6512 234.867L18.8818 244.16L21.3508 232.902L19.6512 234.867ZM29.1937 258.913L28.766 254.93L28.752 263.939L29.1937 258.913ZM41.6486 272.375L38.3326 265.862L35.0945 259.109L34.983 287.571L41.6486 272.375ZM54.2914 289.742L54.1326 289.823L38.0087 292.531L66.4979 301.93L54.2914 289.742ZM83.1685 319.547L70.7944 306.244L70.6746 306.205L69.8401 312.03L73.6426 314.195L83.1685 319.547ZM85.7869 323.314L84.633 323.602L70.5917 327.65L84.9134 329.26L85.7869 323.314ZM101.063 346.442L101.177 345.684L102.017 340.655L86.8608 344.871L101.063 346.442ZM110.477 352.95L101.353 347.994L89.9831 346.682L112.039 353.856L110.477 352.95ZM130.897 370.858L123.143 362.504L119.206 358.308L118.516 362.06L118.21 363.816L119.33 364.445L130.897 370.858ZM133.515 374.626L118.635 378.402L132.399 380.095L133.515 374.626ZM134.795 375.175L133.718 380.524L146.204 387.369L134.795 375.175ZM154.767 370.007L153.648 375.077L153.651 375.476L166.219 382.479L154.767 370.007ZM157.806 371.26L169.056 383.535L169.257 383.733L170.493 378.303L157.806 371.26ZM193.498 362.589L194.389 359.035L178.513 363.017L192.916 364.786L193.498 362.589ZM198.626 360.678L210.161 373.709L211.595 368.078L198.626 360.678ZM216.755 354.248L216.636 354.209L215.202 359.84L228.171 367.239L216.755 354.248ZM237.213 350.033L220.73 352.625L248.979 361.946L237.213 350.033ZM267.505 338.811L257.734 343.586L254.386 359.993L271.318 336.87L267.505 338.811ZM300.768 324.976L300.33 325.099L290.434 329.038L292.021 333.53L297.641 328.068L300.768 324.976ZM314.639 319.414L304.583 323.434L306.051 327.887L314.639 319.414ZM339.142 290.536L334.346 305.279L340.247 294.474L339.142 290.536ZM364.781 220.673L363.673 216.336L360.32 226.644L358.446 231.999L363.129 223.714L364.781 220.673ZM357.915 181.061L368.315 191.469L382.258 184.87L357.915 181.061ZM349.676 160.752L335.377 151.33L353.493 175.912L349.676 160.752ZM351.15 160.702L352.012 164.163L355.132 176.577L362.189 154.881L351.15 160.702ZM328.606 130.173L329.51 133.914L332.588 146.049L339.725 124.512L328.606 130.173ZM312.871 120.682L328.774 142.29L330.988 145.263L328.646 135.754L327.251 130.263L318.439 124.348L312.871 120.682ZM245.436 28.8956L263.151 53.0816L263.432 53.4383L259.896 38.6358L253.367 34.2589L245.436 28.8956ZM210.373 36.4457L227.081 37.2407L228.864 35.8326L239.169 27.7854L212.441 35.7929L210.373 36.4457ZM173.294 46.1231L194.453 39.7506L202.09 37.4627L185.382 36.6677L173.294 46.1231ZM184.34 35.7984L179.517 24.9515L171.418 45.778L184.34 35.7984ZM149.259 46.2584L166.605 47.1285L166.763 47.0476L144.676 35.4895L149.259 46.2584ZM136.822 57.1911L147.998 53.8012L165.777 48.4499L149.07 47.6549L142.529 52.6851L136.822 57.1911ZM112.826 57.2066L130.331 57.9958L108.363 46.4767L112.826 57.2066ZM63.6783 79.1294L92.753 70.4272L76.0846 69.5123L67.5629 76.1514L63.6783 79.1294ZM41.9498 83.9913L35.5184 71.1632L35.4431 99.1061L41.9498 83.9913ZM18.4462 222.679L19.5168 232.835L21.849 230.148L18.4462 222.679ZM32.2218 253.271L29.3044 246.755L30.3778 257.31L32.2363 255.264L32.2218 253.271ZM54.043 288.468L58.1972 273.251L37.2418 291.221L44.2488 290.054L54.043 288.468ZM87.1863 323.902L86.232 329.689L99.3596 337.007L87.1863 323.902ZM153.488 369.458L138.29 373.395L152.333 375.047L153.488 369.458ZM213.883 359.411L214.231 357.934L215.317 353.78L214.957 353.664L199.163 357.805L213.883 359.411ZM250.289 361.179L242.917 334.127L241.24 339.282L238.202 349.03L243.182 354.096L250.289 361.179ZM316.695 317.167L316.368 316.133L315.266 312.593L306.639 321.187L306.678 321.067L316.695 317.167ZM329.059 307.271L328.031 308.395L320.63 315.663L330.368 311.806L329.059 307.271ZM336.186 295.141L330.127 306.028L331.27 309.846L334.704 299.696L336.186 295.141ZM344.22 270.848L338.122 281.854L339.227 285.792L343.557 272.885L344.22 270.848ZM367.446 192.512L356.324 181.471L363.633 210.756L367.446 192.512ZM334.025 151.818L336.738 163.039L337.762 166.818L352.142 176.4L351.216 175.171L334.025 151.818ZM311.52 121.17L315.256 136.17L319.182 138.772L329.516 145.712L314.378 125.016L311.52 121.17ZM290.366 90.0334L308.482 114.615L304.746 99.6147L290.366 90.0334ZM287.577 84.7522L294.996 63.572L283.795 69.0747L287.577 84.7522ZM243.964 29.3448L247.5 44.1472L262 53.7676L243.964 29.3448ZM137.508 58.3421L146.241 58.7966L154.177 59.257L166.424 49.7207L137.508 58.3421ZM129.344 59.3981L112.637 58.6031L100.27 68.1003L129.344 59.3981ZM80.9938 81.3151L93.4001 71.698L64.3253 80.4002L80.9938 81.3151ZM43.1397 83.1854L52.5353 81.6022L57.0338 80.8121L36.304 69.563L43.1397 83.1854ZM30.128 119.115L32.5941 107.458L32.6331 107.338L30.9753 109.582L30.128 119.115ZM25.5802 151.435L25.7781 151.235L26.7063 141.861L24.1593 153.359L25.5802 151.435ZM20.2639 176.746L21.1142 167.611L18.6451 178.87L20.2639 176.746ZM14.8278 202.017L15.639 193.003L13.2869 203.902L14.8278 202.017ZM13.0995 210.998L14.248 220.915L16.4213 218.309L13.0995 210.998ZM25.7365 227.568L23.4852 230.415L26.9688 238.042L25.7365 227.568ZM58.2403 268.228L50.7546 252.936L35.7427 255.079L57.3593 267.677L58.2403 268.228ZM43.6747 271.444L57.8114 269.547L35.2749 256.517L42.7996 271.689L43.6747 271.444ZM56.3486 271.192L42.8892 273.044L36.1456 288.479L56.3486 271.192ZM55.3615 288.897L68.8114 302.152L59.9056 272.481L55.3615 288.897ZM102.704 336.504L103.352 332.474L100.871 331.137L90.2248 325.155L102.398 338.261L102.704 336.504ZM118.308 355.364L119.343 349.737L106.455 342.496L118.308 355.364ZM134.514 369.516L135.013 366.762L122.364 359.6L134.055 372.151L134.514 369.516ZM188.551 356.606L165.696 349.04L169.618 351.244L176.582 355.099L179.255 355.438L188.551 356.606ZM212.401 352.965L197.72 351.238L196.829 354.792L196.247 356.989L212.401 352.965ZM239.844 339.092L241.988 332.5L228.596 343.519L218.689 351.564L236.884 348.601L239.844 339.092ZM245.623 333.55L252.911 360.044L256.338 343.397L245.623 333.55ZM287.006 323.681L285.699 324.847L278.694 331.714L278.259 332.235L288.594 328.174L287.006 323.681ZM302.579 321.854L301.276 318.116L292.529 326.671L302.863 322.609L302.579 321.854ZM315.015 310.921L319.186 303.397L319.776 302.396L309.395 316.383L313.274 312.608L315.015 310.921ZM328.808 305.599L333.056 297.835L333.332 297.394L329.03 303.285L323.385 310.86L328.808 305.599ZM354.775 231.468L354.343 232.388L355.49 236.605L360.756 220.821L354.775 231.468ZM314.588 137.411L303.468 143.072L316.917 145.326L329.408 147.268L324.08 143.679L314.588 137.411ZM289.014 90.5216L292.631 105.483L307.011 115.064L295.818 99.7595L289.014 90.5216ZM285.977 83.9667L282.321 69.1253L267.941 59.5439L285.977 83.9667ZM246.831 45.3878L235.55 50.7316L261.733 55.4038L257.846 52.6818L246.831 45.3878ZM231.041 44.6259L232.781 48.2406L239.855 28.9363L228.243 38.149L231.041 44.6259ZM231.753 49.3642L226.892 38.6372L209.387 37.848L231.753 49.3642ZM191.772 49.2171L195.459 57.4414L196.675 60.2228L204.613 39.0786L191.772 49.2171ZM190.648 48.1889L202.857 38.7725L173.941 47.3939L190.648 48.1889ZM100.917 69.3711L117.744 70.2052L124.323 65.055L129.992 60.6689L107.36 67.4906L100.917 69.3711ZM27.1746 151.424L27.6412 155.287L27.6209 152.497L27.6972 146.557L27.1746 151.424ZM12.7498 206.776L16.0717 214.086L14.9622 204.049L12.7498 206.776ZM16.6042 205.113L16.5519 197.939L16.2243 202.206L16.5681 205.632L16.6042 205.113ZM25.6021 225.536L26.4494 216.003L25.5614 219.956L23.8634 227.622L24.8916 226.498L25.6021 225.536ZM27.4822 220.978L26.9596 225.845L27.4263 229.708L27.4822 220.978ZM32.3068 248.527L31.3259 239.725L28.9547 242.532L32.2376 249.962L32.3068 248.527ZM70.1661 302.063L72.5774 293.834L74.791 285.806L64.592 275.596L61.38 272.431L65.833 287.266L70.1661 302.063ZM87.2004 314.893L73.7521 307.338L86.207 320.8L87.2004 314.893ZM103.837 338.728L119.271 334.47L104.791 332.942L104.215 335.935L103.837 338.728ZM147.531 366.99L125.475 359.816L136.041 365.639L147.531 366.99ZM167.902 361.819L145.487 354.529L155.051 359.76L156.133 360.51L166.106 361.633L167.902 361.819ZM260.799 321.122L264.454 302.959L245.666 328.527L247.216 327.838L260.799 321.122ZM261.287 322.474L245.837 330.04L273.006 333.31L261.287 322.474ZM296.948 320.42L301.063 316.324L304.76 309.441L305.863 307.679L295.206 322.107L296.948 320.42ZM303.727 320.769L306.141 312.939L308.597 305.387L302.343 316.873L302.789 317.946L303.727 320.769ZM319.798 299.885L314.138 305.467L312.801 307.948L309.497 314.031L315.694 305.575L319.798 299.885ZM333.513 294.802L328.051 300.183L323.488 308.508L331.381 297.688L333.513 294.802ZM330.088 289.845L328.347 291.531L338.324 287.752L337.016 283.217L330.088 289.845ZM331.183 286.887L335.655 282.509L336.803 281.425L341.444 272.861L335.997 280.235L331.183 286.887ZM341.625 270.269L336.004 275.731L331.324 284.414L339.218 273.595L341.625 270.269ZM346.114 257.281L346.974 260.344L347.3 261.378L352.41 246.074L346.114 257.281ZM345.201 241.344L344.727 241.985L354.588 238.565L353.276 233.631L345.201 241.344ZM350.213 234.491L353.064 231.839L355.384 227.557L350.213 234.491ZM360.249 211.378L350.451 201.564L335.199 208.93L344.576 210.257L361.774 212.802L360.249 211.378ZM325.09 172.77L330.967 169.778L336.287 166.869L332.425 151.033L325.09 172.77ZM302.464 142.083L313.782 136.221L309.8 120.345L302.464 142.083ZM291.962 106.723L283.423 110.971L280.762 112.226L306.902 116.62L302.537 113.742L291.962 106.723ZM270.125 74.8345L284.505 84.4159L266.509 59.8733L270.125 74.8345ZM235.379 49.2182L236.174 48.8138L246.026 44.1979L242.651 29.7132L235.379 49.2182ZM198.228 59.9324L211.227 49.7131L206.285 38.8273L202.96 47.4216L198.228 59.9324ZM195.282 60.4322L190.459 49.5854L172.955 48.7962L195.282 60.4322ZM139.563 61.3964L158.69 71.4613L153.988 60.6535L136.522 59.7444L139.563 61.3964ZM99.9305 70.7735L104.012 72.8962L122.06 82.6102L117.396 71.6825L102.801 70.912L99.9305 70.7735ZM88.2944 93.1005L101.453 82.8003L96.8285 71.7527L88.8821 91.7011L88.2944 93.1005ZM84.4716 88.1458L86.6221 93.3519L91.087 82.4772L95.276 72.0431L82.1563 82.2234L84.4716 88.1458ZM84.8631 92.6472L80.8046 82.7116L64.8944 81.9108L84.8631 92.6472ZM50.9995 100.587L58.3698 83.6325L36.2693 103.086L50.9995 100.587ZM31.3283 125.205L31.4482 125.244L32.2955 115.711L29.7904 127.488L31.3283 125.205ZM29.5312 146.623L29.0646 142.76L29.0895 151.649L29.5312 146.623ZM24.0108 160.336L25.0424 170.612L27.4915 167.565L24.1336 160.773L24.0108 160.336ZM21.6215 177.055L22.0462 180.639L22.0661 172.428L21.6215 177.055ZM21.5497 189.093L20.4792 178.937L18.2279 181.783L19.444 184.564L21.5497 189.093ZM19.5672 196.004L21.9384 193.196L19.9135 188.826L18.4967 185.847L19.5672 196.004ZM20.4719 210.745L20.9438 204.404L19.9808 208.995L18.5947 215.702L20.1745 213.697L20.4719 210.745ZM21.571 213.886L21.9567 217.591L21.9766 209.379L21.571 213.886ZM31.9969 227.881L29.4528 239.778L31.1915 237.693L31.9969 227.881ZM58.0742 234.507L35.9319 253.682L50.665 251.582L58.0742 234.507ZM59.1876 266.946L59.2368 235.416L54.3373 246.812L51.9056 252.25L55.4642 259.24L59.1876 266.946ZM71.4846 302.492L73.4659 300.883L94.3433 283.152L76.1095 286.235L72.1084 300.574L71.4846 302.492ZM96.7664 314.824L80.0241 309.246L88.0697 313.851L96.7664 314.824ZM103.119 316.89L88.5189 315.322L87.6064 321.388L103.119 316.89ZM116.23 332.818L104.882 328.995L93.3745 325.252L104.342 331.47L116.23 332.818ZM132.17 348.607L121.283 342.547L111.709 341.421L109.674 341.157L127.016 346.93L132.17 348.607ZM132.101 350.042L109.566 342.713L120.332 348.733L132.101 350.042ZM119.707 355.952L134.983 351.775L120.781 350.204L120.049 353.678L119.707 355.952ZM142.256 354.273L148.725 361.281L153.989 367.102L155.144 361.514L142.256 354.273ZM168.106 357.114L159.547 347.57L158.352 353.279L171.201 360.639L168.106 357.114ZM188.779 355.09L177.893 349.031L165.885 347.643L188.779 355.09ZM180.355 342.276L180.235 342.237L179.692 344.314L178.921 347.907L185.526 351.646L192.01 355.345L186.383 349.009L180.355 342.276ZM196.401 350.809L185.875 344.867L183.193 343.332L194.728 356.362L194.929 356.56L196.401 350.809ZM222.67 334.434L217.685 350.574L240.865 331.472L222.67 334.434ZM270.231 319.02L265.889 303.028L262.196 321.311L273.674 332.07L270.231 319.02ZM289.115 317.607L283.745 324.742L286.674 321.85L289.115 317.607ZM305.885 305.168L302.204 308.742L300.028 310.951L295.189 319.715L305.885 305.168ZM306.644 316.284L312.82 305.038L311.514 300.902L306.644 316.284ZM336.3 267.079L345.921 263.581L346.397 263.338L345.047 258.525L336.3 267.079ZM349.635 248.088L341.543 259.108L339.136 262.434L344.796 256.852L347.629 251.809L349.635 248.088ZM342.596 244.87L343.943 249.285L352.69 240.731L343.267 244.028L342.596 244.87ZM334.77 210.248L346.212 221.525L361.306 214.24L352.328 212.911L334.77 210.248ZM327.166 173.313L350.472 177.05L337.093 168.059L327.166 173.313ZM319.217 154.557L323.982 152.13L330.217 148.856L304.277 144.661L319.217 154.557ZM281.69 113.854L296.63 123.75L307.711 118.208L281.69 113.854ZM287.294 89.697L286.241 92.9334L279.758 111.237L291.156 105.533L287.294 89.697ZM236.398 52.2003L251.419 62.2553L262.7 56.9115L243.143 53.4665L236.398 52.2003ZM212.54 49.3448L230.045 50.134L207.718 38.4979L212.54 49.3448ZM200.104 60.2775L229.217 51.4554L212.231 50.7023L200.104 60.2775ZM161.756 71.0005L174.756 60.7811L172.932 56.6091L169.853 49.7755L168.326 53.6531L161.756 71.0005ZM160.084 71.2518L168.3 50.0658L155.339 60.1653L160.084 71.2518ZM125.045 81.9906L128.771 79.0935L138.164 71.8102L136.379 67.5183L133.42 60.7237L132.676 62.6025L125.045 81.9906ZM102.766 82.432L120.39 83.2602L98.2611 71.4234L102.766 82.432ZM60.8319 115.184L68.2022 98.2296L60.923 83.9328L60.9443 108.726L60.8319 115.184ZM56.3259 109.477L59.4802 115.672L59.4515 84.382L52.2401 101.256L56.3259 109.477ZM48.3268 111.249L58.5329 116.955L51.0501 102.062L38.8284 104.184L36.161 104.641L48.3268 111.249ZM35.6123 105.921L43.1341 120.694L58.104 118.273L37.4132 106.904L35.6123 105.921ZM29.2143 130.482L32.5722 137.274L32.5606 135.679L31.5826 127.276L31.3068 127.716L29.2143 130.482ZM32.4901 142.416L32.5955 140.462L29.5221 134.426L30.6345 144.861L32.4901 142.416ZM18.3441 197.726L18.0002 194.301L17.9775 202.114L18.3441 197.726ZM21.4013 196.07L19.8215 198.074L18.9713 207.209L21.4013 196.07ZM23.7717 209.565L23.386 205.861L23.3271 214.192L23.7717 209.565ZM29.3192 221.443L28.8916 217.46L28.8775 226.469L29.3192 221.443ZM32.3764 219.787L31.1114 221.231L30.6767 221.752L29.7514 231.525L32.2984 220.026L32.3764 219.787ZM48.9847 234.334L42.8919 235.136L35.4827 252.211L57.7449 233.075L48.9847 234.334ZM93.8161 281.92L64.7276 272.327L62.4501 271.586L75.9001 284.841L93.8161 281.92ZM72.6082 303.52L90.6831 300.518L95.347 284.141L90.9497 287.88L72.6082 303.52ZM104.883 323.693L105.876 317.787L105.637 317.709L90.3215 322.006L102.848 323.429L104.883 323.693ZM105.212 325.126L93.3239 323.778L116.338 331.263L105.212 325.126ZM119.449 331.48L107.435 318.294L107.195 318.216L106.24 324.002L119.128 331.243L119.449 331.48ZM136.744 358.18L137.938 352.471L122.542 356.609L136.744 358.18ZM137.073 359.612L125.943 358.378L125.544 358.381L147.72 365.594L137.073 359.612ZM274.864 331.264L278.677 313.02L267.079 302.222L269.699 311.69L274.864 331.264ZM293.618 306.613L290.6 308.149L280.035 313.329L279.882 314.207L276.687 329.736L293.618 306.613ZM294.406 310.713L288.074 322.438L289.418 326.454L294.406 310.713ZM298.628 310.363L297.284 306.347L297.245 306.467L292.335 321.968L298.628 310.363ZM313.887 303.794L322.634 295.24L312.378 299.062L312.458 299.221L313.887 303.794ZM334.686 275.302L333.5 271.205L328.51 286.548L334.686 275.302ZM334.403 269.245L335.549 273.462L335.753 274.058L344.461 265.624L334.681 269.203L334.403 269.245ZM346.739 222.757L343.391 239.164L360.086 216.362L346.739 222.757ZM335.028 207.417L349.924 200.332L353.738 182.088L335.028 207.417ZM352.773 180.979L337.877 188.063L335.681 198.483L334.102 206.188L348.549 186.63L352.773 180.979ZM322.366 170.957L318.548 155.797L304.168 146.216L313.591 159.222L322.366 170.957ZM300.52 137.872L301.38 140.935L308.676 119.317L297.436 124.94L300.52 137.872ZM286.17 88.6688L279.418 91.9069L274.811 94.2524L278.673 110.089L285.82 89.7476L286.17 88.6688ZM264.134 78.5852L258.175 81.4189L284.277 85.9322L269.337 76.0361L264.134 78.5852ZM263.665 58.0205L252.186 63.5651L256.048 79.4015L259.994 68.4908L263.665 58.0205ZM236.131 53.8365L238.345 56.81L254.328 78.577L250.75 63.4959L241.938 57.581L236.131 53.8365ZM175.988 60.254L193.573 61.202L171.285 49.4461L175.988 60.254ZM139.516 71.322L156.982 72.2311L134.814 60.5142L139.516 71.322ZM126.882 82.4555L156.034 73.5136L139.207 72.6795L137.067 74.3693L126.882 82.4555ZM90.0115 93.5265L119.404 84.6625L102.577 83.8285L94.094 90.3477L90.0115 93.5265ZM69.3531 97.5435L83.4061 95.0893L62.4365 83.7623L69.3531 97.5435ZM84.3318 96.3183L74.6185 98.0632L69.4427 98.8981L62.3093 115.532L62.0335 115.973L84.3318 96.3183ZM30.0414 156.465L31.3496 149.998L32.4686 144.928L32.5466 144.688L30.8888 146.932L30.2998 153.633L30.0414 156.465ZM25.2966 172.683L24.7438 178.866L24.3684 182.057L26.9154 170.559L26.4028 171.32L25.2966 172.683ZM23.9391 172.374L23.5144 168.79L23.4555 177.121L23.9391 172.374ZM35.1781 221.361L35.1056 249.702L41.6124 234.587L35.1781 221.361ZM35.3585 218.768L42.8023 233.782L57.8142 231.639L35.3585 218.768ZM122.312 341.424L135.28 348.823L123.347 335.796L122.312 341.424ZM177.603 347.478L178.917 341.809L178.557 341.692L162.882 345.872L177.603 347.478ZM200.693 338.023L190.341 339.692L184.329 340.653L212.579 349.974L200.693 338.023ZM204.177 329.347L201.802 337.058L209.874 345.25L214.892 350.196L206.667 320.879L204.177 329.347ZM218.157 344.233L221.351 334.005L213.963 326.566L208.18 320.708L216.367 350.146L218.157 344.233ZM247.123 315.083L244.702 327.418L263.489 301.85L248.356 309.254L247.123 315.083ZM298.902 304.222L298.39 304.983L299.815 309.158L308.601 300.484L298.902 304.222ZM330.583 275.69L324.248 287.017L325.473 290.994L328.361 282.523L330.583 275.69ZM341.086 256.441L339.317 259.842L349.815 245.495L344.036 251.038L341.086 256.441ZM341.569 240.692L345.343 222.568L334.101 211.489L341.569 240.692ZM351.49 180.032L326.788 176.106L337.389 186.712L351.49 180.032ZM336.519 187.754L325.197 176.516L332.667 206.118L336.519 187.754ZM274.005 93.0624L276.031 92.1309L285.206 87.5598L259.104 83.0464L274.005 93.0624ZM217.737 62.3015L228.992 53.3704L229.864 52.7262L200.871 61.5873L217.737 62.3015ZM192.626 62.4845L175.799 61.6505L163.512 71.3066L164.666 71.0191L192.626 62.4845ZM62.4827 117.444L64.116 117.313L77.2938 115.104L84.742 97.9097L62.4827 117.444ZM57.9149 119.67L43.1847 122.169L36.2462 138.204L35.8144 139.124L57.9149 119.67ZM24.0309 190.43L25.7695 188.345L26.3916 180.727L26.5779 178.932L25.4199 184.122L24.0309 190.43ZM32.2822 212.333L32.3905 210.778L31.3315 202.216L29.9885 203.9L29.0802 205.062L30.2154 207.685L32.2822 212.333ZM32.3863 215.681L29.349 209.126L30.5423 219.72L32.32 217.515L32.3863 215.681ZM67.9514 249.782L67.1007 247.914L60.7084 234.966L60.6202 266.617L67.9514 249.782ZM80.834 267.227L62.918 270.147L94.1641 280.443L80.834 267.227ZM91.0514 301.831L74.6488 304.581L103.138 313.98L91.0514 301.831ZM122.682 332.134L123.601 326.865L110.272 319.349L122.488 332.733L122.682 332.134ZM147.208 350.052L142.592 351.201L156.995 352.97L158.228 347.141L147.208 350.052ZM140.832 344.797L139.757 350.544L147.157 348.577L155.393 346.484L140.832 344.797ZM209.679 318.545L240.805 328.801L227.715 315.663L209.679 318.545ZM240.991 327.006L233.458 299.637L230.731 308.426L228.824 314.698L232.599 318.577L240.991 327.006ZM236.203 298.939L243.494 325.832L246.959 309.065L236.203 298.939ZM235.949 296.868L247.868 307.903L263.438 300.375L235.949 296.868ZM309.148 293.505L300.836 301.538L300.521 302.098L310.658 298.237L309.148 293.505ZM324.57 292.954L323.181 288.261L321.598 289.867L314.434 296.815L317.296 295.757L324.57 292.954ZM323.968 177.442L320.115 195.806L331.477 206.924L328.77 196.5L323.968 177.442ZM305.736 158.92L306.475 161.944L313.044 166.201L320.975 171.565L302.697 146.665L305.736 158.92ZM282.578 126.204L283.688 130.939L298.308 140.599L280.111 115.858L282.578 126.204ZM258.876 84.5628L277.034 109.423L273.337 94.303L263.002 87.3628L258.876 84.5628ZM236.506 61.6465L238.276 69.247L253.015 78.9453L234.698 54.1659L236.506 61.6465ZM199.923 62.8698L222.451 74.7037L217.548 63.698L210.37 63.3517L199.923 62.8698ZM193.393 63.7943L164.159 72.5774L181.106 73.4504L193.393 63.7943ZM127.529 83.7263L144.356 84.5604L156.801 74.8234L151.949 76.2937L127.529 83.7263ZM107.606 95.6703L120.051 85.9333L90.6586 94.7973L107.606 95.6703ZM23.4938 193.304L27.0164 200.812L25.9039 190.377L23.4938 193.304ZM50.8382 215.188L37.4987 217.079L35.8264 217.33L58.282 230.201L50.8382 215.188ZM82.8492 248.398L69.231 250.33L62.4095 266.006L82.8492 248.398ZM80.5047 265.794L84.8177 250.496L63.6645 268.667L68.6006 267.754L80.5047 265.794ZM133.287 326.835L116.544 321.257L124.59 325.862L133.287 326.835ZM135.411 328.453L124.919 327.294L123.887 333.321L139.64 328.901L135.411 328.453ZM139.513 344.368L138.392 343.738L126.424 336.93L138.319 350.077L139.513 344.368ZM129.655 337.185L140.502 343.364L149.717 344.373L152.391 344.712L129.535 337.146L129.655 337.185ZM251.46 286.671L255.192 268.268L236.207 294.036L241.569 291.406L251.46 286.671ZM251.987 287.903L236.378 295.55L263.747 299.018L251.987 287.903ZM327.949 275.231L322.131 280.894L320.203 284.376L317.253 289.779L326.369 277.236L327.949 275.231ZM338.692 250.758L338.063 251.879L332.279 262.325L333.585 266.461L338.692 250.758ZM340.34 241.618L332.872 212.415L329.098 230.539L340.34 241.618ZM305.807 163.185L295.601 168.481L319.345 172.095L313.016 167.916L305.807 163.185ZM296.763 158.388L293.525 167.938L294.04 167.576L305.001 161.995L301.097 145.88L296.763 158.388ZM237.607 70.4875L226.167 75.9123L227.405 76.1823L252.748 80.5815L248.943 78.0183L237.607 70.4875ZM233.346 54.654L226.116 74.4378L230.207 72.4548L236.921 69.3366L234.415 59.1107L233.346 54.654ZM223.518 73.4602L230.67 53.9162L218.86 63.3297L223.518 73.4602ZM203.037 74.4864L220.782 75.3536L198.215 63.6396L203.037 74.4864ZM180.738 83.1392L185.701 85.8136L182.822 79.1778L180.917 74.8469L163.332 73.8988L180.738 83.1392ZM161.623 74.6686L164.705 81.9008L166.287 85.5964L183.992 86.5834L183.111 86.0318L161.623 74.6686ZM145.519 85.4687L149.047 93.7739L150.224 96.6751L152.377 91.2782L158.518 75.2493L154.754 78.2663L145.519 85.4687ZM111.556 107.161L107.581 97.7831L107.297 97.0278L91.3865 96.227L111.556 107.161ZM78.5733 115.653L85.8944 130.228L85.898 114.324L85.9436 98.6982L84.0996 102.738L78.5733 115.653ZM84.986 131.391L77.3834 116.459L62.2546 118.961L84.986 131.391ZM61.8257 120.279L69.2695 135.292L84.5182 132.829L71.0309 125.394L61.8257 120.279ZM50.9549 138.216L57.6175 122.622L58.3251 121.261L36.2636 140.595L50.9549 138.216ZM36.0355 142.111L58.4883 154.584L56.1428 149.977L51.0055 139.69L50.0495 139.777L36.0355 142.111ZM32.4467 174.744L32.3961 173.269L31.4571 164.746L29.1278 167.832L32.4467 174.744ZM32.1224 190.411L31.1594 195.002L29.4585 202.269L31.1971 200.184L32.1224 190.411ZM57.7477 195.167L49.2272 196.505L42.9755 197.388L38.3908 208.223L35.6053 214.342L50.6976 201.357L57.7477 195.167ZM59.3594 197.547L52.0282 214.382L59.3102 229.077L59.3594 197.547ZM77.1657 228.788L82.536 216.352L84.6139 211.593L62.2737 230.969L72.5863 229.419L77.1657 228.788ZM82.3661 264.146L81.8232 266.223L95.2341 279.598L86.5261 249.726L82.3661 264.146ZM101.373 263.171L89.6874 251.417L87.8807 249.636L96.7086 279.547L101.373 263.171ZM111.551 297.895L98.14 284.52L106.806 314.113L111.551 297.895ZM141.283 335.665L142.396 329.798L142.157 329.72L126.602 333.939L141.283 335.665ZM146.793 331.36L156.036 341.656L158.768 344.666L160.001 338.837L146.793 331.36ZM153.065 333.267L160.99 337.834L161.389 337.831L169.687 338.807L153.065 333.267ZM181.165 338.563L204.344 319.461L186.15 322.423L181.165 338.563ZM227.505 314.269L232.568 297.89L209.191 317.193L227.505 314.269ZM258.062 273.708L256.589 268.457L252.856 286.86L264.416 297.777L258.062 273.708ZM265.765 296.89L269.458 278.607L258.821 268.52L257.818 267.531L263.594 288.894L265.765 296.89ZM293.661 301.59L283.627 292.096L268.533 299.381L268.215 299.543L295.306 303.053L293.661 301.59ZM330.665 270.548L322.675 273.516L321.164 274.085L320.493 274.927L321.879 279.222L328.132 273.038L330.665 270.548ZM312.766 237.554L327.702 230.35L331.476 212.226L312.766 237.554ZM319.246 196.849L303.873 204.176L330.808 208.165L327.959 205.515L319.246 196.849ZM272.55 139.511L287.73 149.485L299.008 143.742L273.548 139.703L272.55 139.511ZM271.741 137.922L298.041 142.235L283.02 132.18L271.741 137.922ZM270.737 136.933L282.334 131.029L278.39 115.034L270.737 136.933ZM257.404 85.012L260.982 100.093L261.743 100.606L275.602 109.752L259.981 88.501L257.404 85.012ZM188.647 85.3138L201.686 74.9746L196.821 63.849L195.061 68.4458L188.647 85.3138ZM187.133 85.4843L195.149 64.1004L182.149 74.3197L187.133 85.4843ZM151.896 96.4238L156.89 92.481L165.055 86.1235L160.191 74.998L154.673 89.109L151.896 96.4238ZM148.911 97.0434L144.167 85.9569L126.581 85.0088L144.39 94.6449L148.911 97.0434ZM114.987 107.615L128.185 97.1945L123.479 85.9881L114.987 107.615ZM113.315 107.866L117.543 97.3119L121.807 86.2394L108.648 96.5396L113.315 107.866ZM87.3659 129.779L94.7752 112.705L89.518 102.379L87.2953 98.21L87.358 112.28L87.3659 129.779ZM59.3966 153.421L59.4201 129.305L59.4068 122.011L52.1954 138.885L59.3966 153.421ZM32.4845 179.925L32.431 178.052L29.4355 171.776L30.548 182.211L32.4845 179.925ZM29.4057 184.093L28.9781 180.11L29.003 188.999L29.4057 184.093ZM32.4629 182.437L32.421 182.158L32.1062 182.718L30.8022 184.282L29.9159 193.935L32.4629 182.437ZM57.9368 193.771L35.4422 181.02L42.8859 196.033L53.3574 194.402L57.9368 193.771ZM85.8101 222.586L85.7765 212.502L78.4062 229.456L85.8081 244.191L85.8101 222.586ZM130.885 292.652L118.478 280.266L117.594 279.315L116.32 279.564L99.6389 282.356L130.885 292.652ZM130.456 293.97L99.3299 283.714L112.54 296.891L130.456 293.97ZM141.613 337.098L135.229 336.347L129.604 335.711L152.619 343.196L141.613 337.098ZM143.955 330.304L143.715 330.226L143.484 331.344L142.641 335.974L155.729 343.413L150.465 337.591L143.955 330.304ZM184.616 319.804L185.82 320.991L203.856 318.109L172.73 307.852L184.616 319.804ZM237.578 274.335L226.702 264.17L234.074 291.222L235.112 285.993L237.578 274.335ZM254.018 265.765L226.487 261.98L238.448 273.293L241.625 271.675L254.018 265.765ZM286.913 272.621L268.006 298.15L283.139 290.745L286.913 272.621ZM288.31 272.81L284.496 291.054L295.975 301.812L288.31 272.81ZM306.007 294.604L308.897 291.833L311.256 287.431L306.007 294.604ZM319.506 276.329L314.438 291.912L320.812 280.465L319.506 276.329ZM323.098 271.4L322.624 272.041L332.683 268.42L331.212 263.568L323.098 271.4ZM328.11 264.547L331 261.776L333.359 257.374L328.11 264.547ZM312.937 239.067L320.558 240.088L339.671 242.859L328.19 231.702L312.937 239.067ZM311.802 236.445L330.511 211.117L315.615 218.201L311.802 236.445ZM303.564 205.533L315.127 216.849L330.46 209.642L324.794 208.727L303.564 205.533ZM318.758 195.497L322.571 177.253L303.703 202.662L318.758 195.497ZM292.44 166.79L299.973 144.852L288.536 150.675L292.44 166.79ZM265.71 119.79L269.653 135.785L277.267 114.005L265.71 119.79ZM259.201 101.9L248.954 106.917L275.454 111.428L260.313 101.334L259.201 101.9ZM197.3 80.308L190.523 85.6589L219.795 76.7559L202.848 75.8829L197.3 80.308ZM166.098 86.9929L153.614 96.8497L183.045 87.8659L166.098 86.9929ZM127.389 91.8988L129.498 96.8262L147.242 97.6934L124.873 85.7786L127.389 91.8988ZM116.704 108.041L146.256 99.0957L129.189 98.1837L118.329 106.713L116.704 108.041ZM60.8784 121.562L60.8682 152.972L68.1185 135.978L60.8784 121.562ZM42.9696 158.284L58.0204 156.022L35.6067 143.43L40.3006 153.042L42.9696 158.284ZM35.2228 183.732L35.1893 211.954L41.696 196.839L35.2228 183.732ZM61.8245 229.497L84.2846 210.161L73.0159 211.797L69.2337 212.423L68.8828 213.502L61.8245 229.497ZM116.774 259.83L120.437 259.165L89.0707 248.831L102.482 262.206L116.774 259.83ZM121.045 260.556L102.73 263.479L97.9882 280.096L121.045 260.556ZM127.652 314.001L119.689 315.255L111.289 316.631L139.658 325.991L127.652 314.001ZM190.746 302.181L194.638 289.397L195.808 285.801L172.551 305.143L175.737 304.721L190.746 302.181ZM193.765 306.344L191.075 303.613L177.936 305.702L173.039 306.495L204.165 316.751L193.765 306.344ZM205.355 315.946L197.127 286.23L192.961 299.852L192.184 302.648L200.456 311.039L205.355 315.946ZM270.804 277.322L285.778 269.998L258.606 266.33L270.327 277.565L270.804 277.322ZM285.948 271.511L270.855 278.796L267.161 297.079L285.948 271.511ZM300.978 282.762L289.539 271.884L297.165 301.006L300.978 282.762ZM312.583 278.054L302.336 283.071L298.987 299.478L315.88 276.475L312.583 278.054ZM324.478 252.895L321.129 269.302L338.022 246.299L324.478 252.895ZM312.508 240.386L312.829 240.623L324.109 251.582L339.242 244.177L318.852 241.257L312.508 240.386ZM290.801 166.124L287.061 150.725L273.323 141.618L272.442 141.066L276.267 146.419L290.801 166.124ZM265.024 118.639L276.302 112.896L249.883 108.545L265.024 118.639ZM245.227 104.114L241.568 88.8743L226.867 79.0561L245.227 104.114ZM88.4476 130.529L90.8246 128.518L111.025 110.832L96.0157 113.373L88.8794 129.609L88.4476 130.529ZM84.3291 134.226L69.3591 136.647L61.9499 153.721L84.3291 134.226ZM35.7698 176.752L57.8313 157.419L43.0202 159.759L35.7698 176.752ZM58.4046 192.332L51.8924 179.345L50.9608 177.319L37.822 179.408L35.871 179.701L37.1116 180.37L58.4046 192.332ZM117.654 254.681L107.494 244.352L101.88 245.309L89.3797 247.473L120.865 257.847L117.654 254.681ZM128.437 279.396L123.367 261.974L118.703 278.351L131.955 291.807L128.437 279.396ZM141.972 326.213L133.425 296.659L128.642 312.997L137.355 321.663L141.972 326.213ZM143.326 326.124L148.191 309.945L134.9 296.608L139.808 313.713L143.326 326.124ZM160.151 326.559L147.809 328.642L176.178 338.002L164.173 326.012L160.151 326.559ZM166.76 320.093L165.282 325.047L178.492 338.224L170.146 308.868L166.76 320.093ZM211.772 299.476L211.17 298.883L198.481 286.14L206.83 315.895L211.772 299.476ZM199.671 285.334L212.842 298.631L230.917 295.63L199.671 285.334ZM317.1 274.354L290.207 270.643L301.848 281.719L316.345 274.638L317.1 274.354ZM311.839 241.627L319.427 270.869L323.12 252.586L316.657 246.375L311.839 241.627ZM274.71 156.914L289.449 166.612L270.97 141.515L274.71 156.914ZM249.655 110.061L255.976 118.745L268.014 135.119L264.355 119.879L249.655 110.061ZM225.396 79.5053L229.055 94.7453L243.794 104.444L228.173 83.1921L225.396 79.5053ZM208.276 87.7218L220.601 77.9459L191.17 86.9297L208.276 87.7218ZM190.342 88.2511L201.067 93.9926L213.071 100.283L208.087 89.1183L205.455 89.0578L190.342 88.2511ZM172.529 99.821L177.435 111.225L185.568 89.4818L181.051 93.1819L172.529 99.821ZM88.8968 132L90.1316 131.872L103.867 129.579L111.474 112.304L88.8968 132ZM62.3991 155.193L77.2102 152.853L79.2881 148.094L84.7783 135.697L62.3991 155.193ZM50.8713 175.965L58.0826 159.091L58.2805 158.89L36.0991 178.185L50.8713 175.965ZM59.313 191.17L59.3232 159.759L58.2257 162.319L52.1118 176.633L54.661 181.836L59.313 191.17ZM84.9416 207.326L77.258 192.235L62.2072 194.497L82.5803 206.028L84.9416 207.326ZM111.13 223.797L88.1564 210.89L95.8009 226.101L111.13 223.797ZM109.668 225.442L95.8905 227.455L89.03 243.25L109.668 225.442ZM121.936 257.002L113.344 226.77L108.564 243.507L121.172 256.09L121.936 257.002ZM133.469 291.636L138.252 275.298L124.88 261.803L129.953 279.624L133.469 291.636ZM167.704 307.411L149.51 310.373L144.645 326.553L166.239 308.657L167.704 307.411ZM163.843 324.579L168.747 308.28L145.768 327.581L163.843 324.579ZM215.666 281.391L200.1 284.016L231.346 294.311L218.175 281.014L215.666 281.391ZM226.796 260.622L254.486 264.327L242.486 253.134L226.796 260.622ZM255.154 263.086L251.507 249.44L247.166 233.448L246.244 238.318L243.514 252.01L254.753 262.69L255.154 263.086ZM273.958 256.213L277.691 237.81L258.745 263.459L273.958 256.213ZM274.486 257.444L258.915 264.972L286.207 268.679L274.486 257.444ZM301.547 207.661L297.815 226.063L301.146 229.268L309.176 237.182L305.73 223.734L301.547 207.661ZM288.67 191.013L300.113 202.29L292.442 172.49L288.67 191.013ZM291.045 172.301L282.558 183.723L271.979 197.911L287.274 190.824L290.082 176.892L291.045 172.301ZM251.173 126.991L239.616 132.775L260.407 136.092L266.434 137.124L263.069 134.836L251.173 126.991ZM248.183 110.51L250.237 118.866L251.842 125.75L257.969 129.732L266.542 135.568L248.183 110.51ZM224.083 79.8736L216.616 99.978L223.687 96.5782L227.58 94.7959L226.963 92.2095L224.083 79.8736ZM213.979 99.1203L221.368 79.2557L209.399 88.75L213.979 99.1203ZM188.634 89.0209L193.498 100.146L209.927 100.983L211.362 101.053L192.035 90.7899L188.634 89.0209ZM166.198 106.245L176.003 111.555L171.177 100.309L153.433 99.442L166.198 106.245ZM140.248 122.458L148.779 100.712L135.461 111.093L140.248 122.458ZM138.489 121.753L136.542 117.144L134.109 111.581L118.079 110.741L138.489 121.753ZM105.107 130.248L106.683 133.146L112.668 144.901L112.618 127.124L112.675 113.092L109.5 120.41L105.107 130.248ZM88.6687 133.517L111.601 146.145L106.302 135.541L104.076 130.973L103.081 131.179L88.6687 133.517ZM78.4507 153.521L85.8916 168.136L85.86 136.447L83.1553 142.725L78.4507 153.521ZM84.6167 173.686L62.2764 193.061L77.2074 190.76L84.6167 173.686ZM111.636 227.54L90.1652 245.873L107.125 243.039L111.636 227.54ZM167.216 306.059L135.97 295.764L149.18 308.941L166.221 306.266L167.216 306.059ZM176.451 287.855L171.508 304.274L194.684 284.773L176.451 287.855ZM256.344 262.28L260.116 243.757L248.395 232.522L250.281 239.763L256.344 262.28ZM306.797 260.796L313.982 267.64L318.237 271.675L310.611 242.552L306.797 260.796ZM296.945 227.106L281.414 234.514L284.207 234.892L308.508 238.422L299.034 229.243L296.945 227.106ZM272.15 199.424L299.444 203.53L287.801 192.056L272.15 199.424ZM290.08 171.192L274.786 178.279L271.014 196.802L287.712 174.398L290.08 171.192ZM263.716 163.412L287.819 167.143L274.041 158.155L263.716 163.412ZM261.639 162.869L273.235 156.965L269.37 140.73L261.639 162.869ZM268.246 139.702L256.65 145.606L259.159 156.23L260.515 161.841L265.122 148.494L268.246 139.702ZM240.583 134.283L247.113 138.66L255.844 144.416L267.282 138.592L240.583 134.283ZM246.583 109.725L238.651 131.666L249.573 126.205L250.487 125.84L248.227 116.489L246.583 109.725ZM228.386 95.9859L216.787 101.491L243.527 106.08L228.386 95.9859ZM210.415 102.335L193.189 101.504L180.825 111.4L210.415 102.335ZM114.02 144.413L121.549 127.378L114.027 112.604L114.02 144.413ZM95.9234 149.926L103.329 148.756L111.172 147.463L88.2399 134.835L95.9234 149.926ZM62.1709 156.709L84.9443 169.418L77.2608 154.327L72.6424 155.078L62.1709 156.709ZM65.0424 167.849L60.7948 159.31L60.7845 190.721L68.1158 173.886L65.0424 167.849ZM84.3263 172.133L69.3953 174.434L61.9471 191.629L84.3263 172.133ZM85.8182 174.474L78.448 191.429L85.8499 206.163L85.8182 174.474ZM103.915 207.267L88.6242 209.451L111.679 222.517L103.915 207.267ZM139.242 274.295L157.436 271.332L125.95 260.958L129.926 265.035L139.242 274.295ZM157.924 272.684L139.571 275.727L134.748 292.185L157.924 272.684ZM135.791 293.054L154.105 290.131L158.307 275.989L158.928 273.673L148.311 282.679L135.791 293.054ZM175.012 287.387L161.721 274.051L170.07 303.806L172.952 294.537L175.012 287.387ZM162.83 273.086L164.598 274.987L176.082 286.542L194.157 283.541L162.83 273.086ZM233.178 250.371L226.625 259.109L241.998 251.782L245.769 233.259L233.178 250.371ZM279.087 237.999L275.355 256.402L286.875 267.439L284.13 257.135L279.087 237.999ZM288.104 266.513L288.605 264.158L291.798 248.23L282.644 239.288L280.277 237.193L286.505 260.426L288.104 266.513ZM309.214 242.363L290.466 267.811L305.44 260.487L309.214 242.363ZM281.243 233L296.418 225.874L300.15 207.471L281.243 233ZM284.092 213.647L280.398 231.93L297.726 208.406L299.186 206.362L284.092 213.647ZM271.841 200.782L283.604 212.296L285.192 211.487L299.135 204.888L287.244 203.141L271.841 200.782ZM217.596 103.08L223.603 107.022L232.976 113.252L244.494 107.588L219.112 103.308L217.596 103.08ZM181.472 112.671L198.698 113.502L211.182 103.645L185.608 111.365L181.472 112.671ZM171.582 112.105L174.333 112.205L151.764 100.092L156.469 111.298L171.582 112.105ZM155.118 111.787L150.331 100.421L141.92 122.207L155.118 111.787ZM69.3057 173.08L84.3956 170.698L61.7421 158.028L62.7126 159.934L69.3057 173.08ZM87.2016 205.675L94.4159 189.2L94.6917 188.759L90.1206 179.585L87.2898 174.025L87.214 190.966L87.2016 205.675ZM128.311 240.254L114.699 226.681L123.449 256.831L128.311 240.254ZM154.354 291.404L136.399 294.445L167.525 304.702L154.354 291.404ZM160.247 274.102L160.208 274.222L155.424 290.559L159.238 294.318L168.715 303.896L165.155 291.206L160.247 274.102ZM181.334 268.766L163.259 271.768L194.625 282.102L181.334 268.766ZM203.47 265.097L199.889 276.922L198.488 281.636L221.943 262.092L203.47 265.097ZM228.035 239.288L217.078 228.964L224.573 256.453L227.456 241.883L228.035 239.288ZM229.432 239.477L225.66 258L244.804 232.15L229.432 239.477ZM261.832 233.182L249.183 231.321L260.985 242.715L276.676 235.226L261.832 233.182ZM274.297 176.927L288.798 170.245L263.337 166.205L274.297 176.927ZM217.367 104.596L227.754 118.711L235.927 129.852L232.308 114.493L226.18 110.511L217.367 104.596ZM137.032 124.195L115.502 112.554L122.739 126.572L137.032 124.195ZM92.8422 164.697L110.983 148.86L96.013 151.281L88.4059 168.556L92.8422 164.697ZM95.8816 187.954L111.211 185.649L88.1981 172.862L95.8816 187.954ZM112.627 221.235L112.552 205.57L112.634 189.426L105.105 206.461L112.627 221.235ZM147.804 234.93L134.432 221.435L116.198 224.517L140.012 232.395L147.804 234.93ZM147.495 236.287L115.889 225.875L129.261 239.37L147.495 236.287ZM144.125 255.206L149.026 238.508L125.771 258.249L138.949 256.041L144.125 255.206ZM189.969 250.367L203.221 263.823L207.84 263.072L221.455 260.741L189.969 250.367ZM216.863 226.773L228.905 238.245L243.642 231.242L244.634 230.636L216.863 226.773ZM265.143 222.595L249.492 229.963L276.984 233.869L265.143 222.595ZM261.746 166.615L269.579 196.733L273.389 178.09L261.746 166.615ZM239.459 138.556L242.584 151.767L257.405 161.624L238.884 136.248L239.459 138.556ZM237.245 135.583L232.947 147.572L229.196 157.884L241.11 151.818L238.149 139.323L237.245 135.583ZM215.896 105.046L219.635 120.444L234.576 130.341L215.896 105.046ZM199.86 114.41L200.672 116.397L204.362 125.02L211.868 104.796L202.001 112.72L199.86 114.41ZM115.632 146.793L130.76 144.291L138.406 126.896L122.643 140.723L115.632 146.793ZM181.086 267.492L186.106 250.834L162.771 270.416L181.086 267.492ZM208.632 245.966L195.055 248.178L190.278 249.01L221.884 259.422L208.632 245.966ZM277.653 232.628L269.823 202.909L266.052 221.432L276.128 231.204L277.653 232.628ZM256.707 186.184L263.571 192.79L268.389 197.538L260.436 167.382L256.707 186.184ZM184.126 115.92L203.415 126.303L200.74 120.263L198.509 114.898L180.525 113.953L184.126 115.92ZM182.099 122.153L183.761 126.007L201.746 126.952L178.816 114.723L182.099 122.153ZM174.114 114.917L144.404 123.942L161.63 124.773L174.114 114.917ZM103.945 167.646L111.393 150.451L88.8551 170.028L103.945 167.646ZM106.059 173.37L103.996 169.12L88.666 171.424L111.64 184.331L106.059 173.37ZM122.658 203.025L131.976 201.682L138.267 200.679L114.933 187.655L120.756 199.093L122.658 203.025ZM134.102 220.002L138.652 204.383L116.984 222.917L124.866 221.504L134.102 220.002ZM145.443 255.635L158.935 269.169L150.305 239.057L145.443 255.635ZM184.983 249.806L166.59 252.969L161.608 269.508L180.546 253.665L184.983 249.806ZM208.303 244.534L213.362 227.755L189.79 247.658L191.223 247.329L208.303 244.534ZM233.021 217.846L232.029 218.451L217.172 225.416L245.063 229.318L233.021 217.846ZM245.731 228.077L245.77 227.958L237.74 198.041L235.814 207.223L233.89 216.803L234.331 217.079L245.731 228.077ZM240.027 194.676L267.72 198.779L255.837 187.226L243.006 193.259L240.027 194.676ZM231.311 158.307L255.894 162.193L241.916 153.008L231.311 158.307ZM224.285 140.381L226.755 151.125L228.111 156.736L236.121 134.555L225.517 139.854L224.285 140.381ZM235.156 133.445L207.979 128.98L223.479 139.191L230.906 135.509L235.156 133.445ZM165.742 136.582L165.011 134.754L161.282 126.251L145.012 125.333L165.742 136.582ZM132.121 144.999L139.643 159.772L139.608 127.684L137.452 132.683L132.121 144.999ZM130.931 145.805L115.442 148.189L138.734 160.935L130.931 145.805ZM122.658 164.719L137.191 162.421L138.147 162.334L115.014 149.508L122.658 164.719ZM112.587 183.049L112.606 169.137L112.595 151.24L105.185 168.314L112.587 183.049ZM136.684 202.285L122.748 204.38L115.887 220.175L136.684 202.285ZM140.361 203.614L135.421 220.431L148.994 234.124L140.361 203.614ZM162.982 250.205L151.819 238.886L160.29 269.079L165.271 252.54L162.982 250.205ZM210.557 242.086L209.621 244.962L221.95 257.588L214.372 229.542L210.557 242.086ZM251.601 207.586L267.411 200.136L239.598 195.994L251.601 207.586ZM238.93 197.235L246.921 227.271L250.732 208.629L238.93 197.235ZM242.094 172.02L249.087 168.86L256.792 165.136L230.933 161.1L242.094 172.02ZM169.173 137.035L182.41 126.495L177.542 114.971L169.173 137.035ZM114.059 182.599L117.861 173.762L121.468 165.525L114.066 150.79L114.051 154.099L114.059 182.599ZM130.97 183.991L127.467 184.574L115.482 186.376L138.695 199.361L130.97 183.991ZM217.001 223.902L232.533 216.494L236.304 197.972L217.001 223.902ZM242.582 173.372L241.082 180.836L238.892 192.053L258.195 166.123L252.275 168.837L242.582 173.372ZM206.399 130.984L208.168 138.585L210.06 146.623L225.12 156.558L217.472 146.25L206.399 130.984ZM207.75 130.496L226.472 156.07L222.81 140.431L207.75 130.496ZM149.752 141.323L164.285 139.024L142.554 127.185L149.752 141.323ZM115.671 184.979L130.761 182.597L136.329 169.961L138.407 165.202L132.822 170.146L115.671 184.979ZM138.077 163.769L122.748 166.074L115.222 183.508L138.077 163.769ZM144.712 204.499L156.397 216.252L172.242 213.585L174.631 213.169L164.802 209.973L142.905 202.718L144.712 204.499ZM150.027 211.794L141.715 203.524L150.387 233.914L155.288 217.217L150.027 211.794ZM171.551 233.64L153.318 236.723L184.923 247.135L171.551 233.64ZM206.427 227.885L193.807 230.01L189.137 245.59L188.786 246.669L212.319 226.886L206.427 227.885ZM237.495 191.864L237.534 191.744L241.225 173.063L229.342 161.51L237.495 191.864ZM228.152 162.316L227.15 167.027L224.383 181.237L235.344 191.96L236.266 192.79L229.915 169.119L228.152 162.316ZM189.003 139.641L199.584 131.154L201.565 129.545L171.576 138.612L189.003 139.641ZM139.643 198.078L139.614 166.788L139.608 165.99L132.001 183.266L134.871 188.706L139.643 198.078ZM185.993 246.291L177.561 215.978L172.502 232.757L176.316 236.516L185.993 246.291ZM192.369 229.543L179.919 216.878L178.955 215.769L187.468 246.24L192.369 229.543ZM218.369 203.802L207.331 193.32L214.988 221.127L217.331 209.032L218.369 203.802ZM207.116 191.129L219.239 202.76L231.872 196.928L235.169 195.349L207.116 191.129ZM223.394 182.241L213.542 186.857L207.425 189.771L235.478 193.991L231.343 189.996L223.394 182.241ZM226.716 162.247L207.255 188.258L222.987 181.048L226.716 162.247ZM197.346 152.296L203.503 149.262L208.586 146.674L205.047 131.473L197.346 152.296ZM194.748 151.319L202.332 130.855L190.046 140.511L194.748 151.319ZM193.235 151.489L188.694 140.999L172.265 140.162L193.235 151.489ZM147.224 160.913L157.975 159.24L159.975 154.721L165.66 141.725L142.606 161.664L147.224 160.913ZM169.96 206.746L161.607 198.197L143.253 201.241L175.06 211.851L169.96 206.746ZM176.282 215.43L166.576 223.672L152.829 235.371L171.183 232.328L176.282 215.43ZM225.791 161.018L210.019 168.347L208.903 173.816L206.29 187.149L215.883 174.363L225.791 161.018ZM198.509 153.204L223.49 157.088L209.392 147.863L198.509 153.204ZM159.254 159.788L166.734 174.283L166.977 174.76L166.861 142.513L163.059 151.35L159.254 159.788ZM156.144 170.574L165.91 176.003L163.199 170.482L158.064 160.594L142.417 163.06L156.144 170.574ZM141.988 164.379L149.833 179.788L154.73 178.994L165.481 177.322L158.157 173.349L141.988 164.379ZM161.278 196.764L165.401 182.863L165.866 181.026L144.12 199.799L160.561 196.929L161.278 196.764ZM167.575 180.256L162.596 197.193L176.13 211.006L167.575 180.256ZM180.454 213.605L212.14 224.177L198.807 210.562L180.454 213.605ZM199.916 209.597L212.365 222.262L204.625 193.897L199.916 209.597ZM209.531 166.996L224.469 160.19L198.131 155.997L209.531 166.996ZM164.018 178.967L149.923 181.142L142.904 197.018L164.018 178.967ZM177.643 210.836L178.81 206.841L182.583 194.018L169.049 180.206L177.643 210.836ZM208.341 167.801L197.543 157.397L205.241 185.482L208.662 168.038L208.341 167.801ZM177.125 156.19L191.898 153.97L169.807 142.013L177.125 156.19ZM198.598 209.168L203.616 192.111L179.965 212.254L185.54 211.416L198.598 209.168ZM191.55 155.447L177.296 157.704L170.238 173.7L191.55 155.447ZM202.513 188.572L188.98 174.759L170.587 177.922L178.459 180.615L202.513 188.572ZM190.089 173.794L202.619 186.618L194.717 157.936L190.089 173.794ZM185.665 173.946L188.77 173.365L193.437 157.387L171.373 176.322L185.665 173.946ZM202.573 191.242L192.341 192.951L183.94 194.327L178.923 211.384L202.573 191.242ZM170.158 179.241L173.652 182.763L183.692 193.054L190.858 191.805L202.085 189.89L195.732 187.824L170.158 179.241ZM168.333 142.064L168.289 174.391L176.055 157.035L175.288 155.725L168.333 142.064ZM143.702 191.711L148.682 180.474L141.041 165.661L141.075 197.749L143.702 191.711ZM193.478 228.578L211.831 225.534L180.145 214.963L193.478 228.578ZM216.037 222.793L235.339 196.862L219.727 204.111L216.037 222.793ZM156.607 217.646L151.667 234.463L175.119 214.521L165.007 216.269L156.607 217.646ZM148.562 142.128L141.041 127.355L141.114 159.323L144.407 151.646L148.562 142.128ZM142.196 160.072L165.21 140.253L149.842 142.677L143.176 157.873L142.196 160.072ZM152.889 238.042L166.261 251.537L184.455 248.574L180.539 247.167L152.889 238.042ZM200.918 128.274L183.572 127.404L170.89 137.461L198.571 128.969L200.918 128.274ZM239.857 193.162L255.349 185.875L259.001 167.313L241.988 190.277L239.857 193.162ZM207.08 126.037L218.161 120.495L214.664 105.573L207.08 126.037ZM248.357 227.341L267.462 201.611L252.566 208.695L252.089 208.938L250.127 218.638L248.357 227.341ZM171.749 118.521L162.633 125.763L167.174 136.253L167.501 137.287L170.356 129.732L175.87 115.223L171.749 118.521ZM232.265 130.517L218.967 121.685L207.131 127.511L234.347 131.857L232.265 130.517ZM249.993 227.608L249.322 228.45L264.655 221.243L268.427 202.72L249.993 227.608ZM121.429 203.951L121.468 203.831L113.986 188.938L114.059 220.905L121.429 203.951ZM121.837 139.533L137.957 125.424L122.828 127.926L115.221 145.202L121.837 139.533ZM233.662 114.403L237.527 130.638L245.459 108.697L244.227 109.224L233.662 114.403ZM282.734 213.338L271.013 202.103L278.963 231.861L281.423 219.407L282.734 213.338ZM199.272 274.335L202.151 264.668L199.661 262.135L188.779 251.173L197.17 281.207L199.272 274.335ZM195.695 281.257L189.718 259.697L187.425 251.263L182.404 267.921L184.13 269.543L195.695 281.257ZM144.454 256.638L126.379 259.64L157.745 269.974L156.259 268.431L144.454 256.638ZM129.629 240.682L124.729 257.38L129.324 253.44L147.983 237.639L139.025 239.099L129.629 240.682ZM88.3642 206.583L111.022 187.046L95.9322 189.428L94.598 192.308L88.3642 206.583ZM156.28 112.695L143.637 122.633L150.836 120.467L173.347 113.607L157.077 112.689L156.28 112.695ZM258.876 161.175L255.176 145.656L240.355 135.799L256.782 158.241L258.876 161.175ZM292.787 247.226L302.558 242.452L308.199 239.78L281.105 235.871L289.857 244.418L292.787 247.226ZM308.249 241.254L297.246 246.556L293.194 248.419L289.501 266.702L304.895 245.863L308.249 241.254ZM87.2925 136.118L87.2433 167.648L88.1848 165.568L94.7334 150.732L87.2925 136.118ZM261.473 244.066L257.78 262.349L276.726 236.701L261.473 244.066ZM221.468 268.035L222.947 263.082L220.531 265.212L199.492 282.625L217.965 279.62L221.468 268.035ZM93.153 207.346L103.864 205.793L107.118 198.235L111.471 188.518L102.242 196.517L88.8133 208.055L93.153 207.346ZM187.24 89.2304L178.988 110.935L192.186 100.515L190.646 97.098L187.24 89.2304ZM306.731 262.63L305.928 261.839L290.636 269.325L317.448 272.876L306.731 262.63ZM310.405 236.256L314.218 218.012L302.737 206.855L305.114 215.846L310.405 236.256ZM231.532 292.516L223.996 264.748L220.178 276.894L219.284 280.049L219.566 280.406L231.532 292.516ZM146.942 100.247L117.39 109.191L134.457 110.103L141.552 104.591L146.942 100.247ZM183.812 89.1757L154.419 98.0397L165.625 98.6356L171.367 98.9127L178.264 93.6008L183.812 89.1757ZM87.2481 212.052L87.2407 243.861L94.611 226.907L87.8142 213.164L87.2481 212.052ZM75.7135 210.024L84.3538 208.725L64.7808 197.587L61.7393 195.935L69.1831 210.948L75.7135 210.024ZM254.681 83.1983L243.042 88.8237L246.866 104.78L252.881 87.9149L254.681 83.1983ZM250.997 97.3756L247.95 105.928L259.627 100.183L255.804 84.2264L250.997 97.3756ZM301.729 199.767L305.194 183L298.89 176.708L293.671 171.564L301.462 201.403L301.729 199.767ZM306.59 183.189L305.549 188.02L302.738 201.553L321.606 176.144L306.59 183.189ZM306.102 181.837L320.363 175.077L295.262 171.154L296.628 172.659L306.102 181.837ZM208.148 316.324L231.405 296.981L213.211 299.944L208.148 316.324ZM179.847 338.135L184.402 323.313L184.831 321.995L173.709 310.954L171.54 308.658L174.774 320.314L179.847 338.135ZM112.911 314.905L127.323 312.568L132.107 296.23L109.248 315.57L112.911 314.905ZM117.106 277.964L117.226 278.003L122.087 261.425L99.0309 280.965L117.106 277.964ZM62.0352 225.59L67.9932 211.754L60.7111 197.059L60.6619 228.589L62.0352 225.59ZM35.2674 146.103L35.2339 174.325L40.5262 162.129L41.7796 159.09L39.4341 154.483L35.2674 146.103ZM93.4997 107.253L95.9651 111.899L110.099 109.603L88.8088 98.0395L93.4997 107.253ZM249.664 83.9523L253.596 82.0502L227.096 77.5398L242.236 87.6338L249.664 83.9523ZM251.209 268.695L238.936 274.644L237.667 280.991L235.242 292.927L254.228 267.159L251.209 268.695ZM117.95 306.338L131.064 295.361L112.869 298.324L108.125 314.542L117.95 306.338ZM316.628 280.695L313.127 286.979L310.215 292.261L311.521 296.397L316.628 280.695ZM62.0846 232.366L84.8608 245.473L77.7016 231.215L77.2163 230.262L63.3193 232.237L62.0846 232.366ZM36.0155 215.934L50.7876 213.713L58.1579 196.759L36.0155 215.934ZM27.127 188.654L27.4738 192.478L27.5298 183.748L27.127 188.654ZM322.93 286.588L327.768 277.824L322.36 285.078L317.15 292.131L317.942 291.328L322.93 286.588ZM197.702 326.843L182.289 339.592L200.483 336.629L205.348 320.45L197.702 326.843ZM160.048 345.215L176.04 340.873L161.32 339.266L160.434 343.617L160.048 345.215ZM103.807 312.739L105.332 314.163L96.6655 284.57L92.0016 300.947L103.807 312.739ZM67.1584 244.885L69.1414 248.976L69.6988 248.892L84.3121 246.753L61.6167 233.804L67.1584 244.885ZM29.7818 164.599L31.3227 162.714L32.248 152.941L29.584 164.799L29.7818 164.599ZM342.756 250.489L341.609 246.273L336.502 261.975L342.756 250.489ZM275.172 307.903L279.547 311.977L294.839 304.491L267.867 301.021L275.172 307.903ZM23.8824 197.407L25.0338 207.723L27.405 204.915L24.2868 198.201L23.8824 197.407ZM295.962 124.99L281.462 115.37L299.66 140.11L295.962 124.99ZM222.302 333.122L240.376 330.12L209.37 319.902L212.624 323.347L222.302 333.122ZM35.3929 108.633L35.2786 136.696L41.9441 121.5L35.3929 108.633ZM260.881 69.8396L257.172 80.4297L268.651 74.8851L264.789 59.0487L260.881 69.8396ZM331.34 149.885L325.741 152.835L320.023 155.747L320.639 158.333L323.966 171.742L331.34 149.885ZM168.091 360.423L157.324 354.402L145.595 352.973L167.371 360.189L168.091 360.423ZM139.217 353.02L138.41 357.131L138.062 358.609L150.95 365.849L139.217 353.02ZM116.486 340.589L120.954 341.115L121.719 336.725L122.067 335.247L106.632 339.505L116.486 340.589ZM24.3209 219.287L26.9069 207.669L26.6311 208.11L25.1682 209.755L24.3209 219.287ZM326.652 299.596L325.508 295.777L320.634 310.761L326.652 299.596ZM336.388 290.038L326.41 293.818L327.839 298.391L336.388 290.038ZM197.391 349.805L206.087 350.778L189.465 345.239L190.466 345.83L197.391 349.805ZM23.8648 156.709L27.1838 163.621L26.0323 153.305L23.5832 156.353L23.8648 156.709ZM124.257 66.8891L118.748 71.1944L122.114 79.1818L123.372 82.2419L131.867 61.014L124.257 66.8891ZM362.443 211.562L355.134 182.277L351.321 200.521L352.927 202.104L362.443 211.562ZM316.454 311.389L317.558 315.327L322.471 300.224L318.537 307.428L316.454 311.389ZM175.554 356.223L173.873 355.278L162.585 348.823L172.43 359.713L174.24 361.893L175.362 357.221L175.554 356.223ZM156.462 361.942L155.307 367.531L170.784 363.552L156.462 361.942ZM135.335 372.699L150.533 368.762L141.198 367.714L136.49 367.11L136.217 367.949L135.335 372.699ZM18.0966 218.456L21.4993 225.925L20.3089 215.729L19.5984 216.691L18.0966 218.456ZM53.1823 82.8731L43.2293 84.54L35.94 101.654L57.9596 82.041L53.1823 82.8731ZM245.926 331.395L245.408 331.359L257.207 342.354L272.538 334.749L245.926 331.395ZM175.678 362.36L191.434 358.339L191.314 358.3L176.872 356.652L176.488 358.647L175.678 362.36ZM158.262 368.227L172.425 369.918L173.739 364.248L158.262 368.227ZM104.983 342.945L103.297 341.204L102.381 346.871L115.269 354.111L104.983 342.945ZM356.513 245.686L355.654 242.623L355.366 241.469L354.82 243.147L350.217 256.892L356.513 245.686ZM276.089 335.241L277.554 339.296L285.311 331.746L286.498 330.541L277.237 334.156L276.761 334.399L276.089 335.241ZM68.9964 305.659L53.9211 310.034L68.4826 311.721L69.356 305.776L68.9964 305.659ZM23.8349 234.637L24.9863 244.953L27.3185 242.265L23.8349 234.637ZM13.958 192.058L13.6635 195.409L16.0156 184.51L14.4358 186.514L13.958 192.058ZM19.8719 161.243L19.6554 164.354L19.0217 170.377L21.4517 159.238L20.0698 161.042L19.8719 161.243ZM106.97 46.6862L98.5136 67.7942L110.602 58.3389L111.513 57.5749L107.781 48.6733L106.97 46.6862ZM222.335 31.4557L238.364 26.5954L221.656 25.8004L209.568 35.2557L222.335 31.4557ZM239.23 25.1541L216.945 13.7968L221.845 24.4039L239.23 25.1541ZM316.336 92.9134L290.594 88.517L305.414 98.3742L314.112 94.0457L316.336 92.9134ZM306.22 99.5641L310.082 115.401L317.421 94.0614L306.22 99.5641ZM361.185 153.892L335.644 149.694L350.344 159.512L356.102 156.48L361.185 153.892ZM348.281 270.18L347.257 266.401L347.176 266.242L342.303 281.225L348.281 270.18ZM112.024 362.864L116.891 363.387L117.926 357.759L102.848 361.735L112.024 362.864ZM25.1207 246.985L24.2733 256.518L26.8204 245.019L25.1207 246.985ZM24.0194 123.225L25.1708 133.541L27.5391 130.335L25.8796 126.879L24.0194 123.225ZM255.172 19.3378L251.72 5.09288L244.565 24.2383L249.054 22.2524L255.172 19.3378ZM374.556 210.995L373.363 211.402L365.331 214.092L364.66 214.934L365.848 219.429L371.232 214.288L374.556 210.995ZM351.659 268.76L349.68 270.768L345.117 279.092L355.103 265.507L351.659 268.76ZM348.949 285.243L340.044 288.576L341.434 293.27L349.824 284.997L348.949 285.243ZM298.846 340.257L301.718 335.094L304.983 329.131L303.8 325.432L303.72 325.274L298.846 340.257ZM293.308 340.576L297.949 332.012L294.358 336.941L287.529 346.119L293.308 340.576ZM290.986 339.158L297.932 329.621L297.734 329.821L292.272 335.203L287.511 343.728L290.986 339.158ZM280.318 346.69L281.822 350.625L286.692 335.243L280.792 346.049L280.318 346.69ZM280.23 340.034L283.782 335.225L277.925 341.007L274.816 346.491L273.086 349.772L280.23 340.034ZM8.47317 194.251L7.96924 196.208L10.8448 202.445L9.81616 192.567L8.47317 194.251ZM204.746 35.4105L199.845 24.8034L182.619 23.9723L204.746 35.4105ZM241.239 21.831L241.967 23.2607L248.924 4.31604L237.351 13.4089L241.239 21.831ZM345.762 290.966L341.685 294.942L337.907 301.666L337.2 303.026L346.949 289.762L345.762 290.966ZM308.656 335.362L309.839 339.061L314.595 324.437L309.756 333.202L308.656 335.362ZM300.803 329.759L294.626 341.005L295.929 344.743L300.803 329.759ZM265.812 352.575L267.315 356.511L272.264 340.889L265.812 352.575ZM151.549 382.347L162.76 383.74L141.223 376.603L146.587 379.673L151.549 382.347ZM110.504 367.539L116.347 370.765L127.558 372.158L105.901 364.982L110.504 367.539ZM163.919 34.1933L174.503 26.1042L149.406 33.5816L160.092 34.1415L163.919 34.1933ZM32.8913 66.1997C32.8913 66.1997 32.8913 66.1997 32.9303 66.0799C32.9693 65.96 32.9693 65.96 33.0083 65.8401C33.1281 65.8791 33.1671 65.7593 33.1671 65.7593L33.2061 65.6394L33.326 65.6784C33.365 65.5585 33.365 65.5585 33.4848 65.5975C33.5238 65.4776 33.5238 65.4776 33.6437 65.5166C33.6827 65.3968 33.6827 65.3968 33.6827 65.3968L251.085 0.114914L251.205 0.153901C251.244 0.0340351 251.244 0.0340351 251.364 0.0730222C251.364 0.0730222 251.523 -0.00785691 251.643 0.0311302C251.643 0.0311302 251.643 0.0311302 251.763 0.0701173L252.362 0.265053C252.443 0.423906 252.443 0.423906 252.563 0.462893C252.563 0.462893 252.683 0.50188 252.644 0.621746L386.949 183.082C386.91 183.202 386.91 183.202 386.91 183.202C387.03 183.241 386.991 183.361 386.991 183.361C387.072 183.519 387.072 183.519 387.152 183.678C387.113 183.798 387.074 183.918 387.194 183.957C387.155 184.077 387.155 184.077 387.116 184.197L387.077 184.317C387.077 184.317 387.077 184.317 387.038 184.436L338.239 330.802C338.122 331.161 337.766 331.443 337.409 331.725L253.234 365.981L253.114 365.942C253.114 365.942 253.114 365.942 252.955 366.022L130.525 396.452C130.247 396.493 130.007 396.415 129.767 396.337C129.647 396.298 129.528 396.259 129.528 396.259C129.408 396.22 129.168 396.143 129.207 396.023L32.5152 293.528C32.5542 293.408 32.5542 293.408 32.5542 293.408C32.4343 293.369 32.4343 293.369 32.4733 293.249C32.3535 293.21 32.3535 293.21 32.3535 293.21C32.3535 293.21 32.2336 293.171 32.2726 293.051L0.291692 220.22C0.2498 219.941 0.207908 219.662 0.166016 219.384L32.7744 66.5593C32.6935 66.4005 32.8133 66.4395 32.8523 66.3196L32.8913 66.1997Z" fill="url(#paint0_linear_1_1189)" fill-opacity="0.2"/>
<defs>
<linearGradient id="paint0_linear_1_1189" x1="-71.7146" y1="364.339" x2="374.194" y2="76.9767" gradientUnits="userSpaceOnUse">
<stop stop-color="#FF7300"/>
<stop offset="0.239216" stop-color="#F2397F"/>
<stop offset="0.411765" stop-color="#E500FF"/>
<stop offset="0.8" stop-color="#47C5DB"/>
<stop offset="0.988235" stop-color="#4D24FF"/>
<stop offset="1" stop-color="#4D24FF"/>
</linearGradient>
</defs>
</svg>
