<svg width="32" height="32" viewBox="0 0 32 32" fill="none" xmlns="http://www.w3.org/2000/svg">
<rect x="0.00256348" width="32" height="32" rx="6" fill="#0BFFFF" fill-opacity="0.18"/>
<path d="M11.3359 14.6658H12.6692C14.0025 14.6658 14.6692 13.9991 14.6692 12.6658V11.3325C14.6692 9.99913 14.0025 9.33246 12.6692 9.33246H11.3359C10.0025 9.33246 9.33588 9.99913 9.33588 11.3325V12.6658C9.33588 13.9991 10.0025 14.6658 11.3359 14.6658Z" fill="#0BFFFF" stroke="#0BFFFF" stroke-miterlimit="10" stroke-linecap="round" stroke-linejoin="round"/>
<path d="M19.3359 14.6658H20.6692C22.0025 14.6658 22.6692 13.9991 22.6692 12.6658V11.3325C22.6692 9.99913 22.0025 9.33246 20.6692 9.33246H19.3359C18.0025 9.33246 17.3359 9.99913 17.3359 11.3325V12.6658C17.3359 13.9991 18.0025 14.6658 19.3359 14.6658Z" stroke="#0BFFFF" stroke-miterlimit="10" stroke-linecap="round" stroke-linejoin="round"/>
<path d="M19.3359 22.6658H20.6692C22.0025 22.6658 22.6692 21.9991 22.6692 20.6658V19.3325C22.6692 17.9991 22.0025 17.3325 20.6692 17.3325H19.3359C18.0025 17.3325 17.3359 17.9991 17.3359 19.3325V20.6658C17.3359 21.9991 18.0025 22.6658 19.3359 22.6658Z" fill="#0BFFFF" stroke="#0BFFFF" stroke-miterlimit="10" stroke-linecap="round" stroke-linejoin="round"/>
<path d="M11.3359 22.6658H12.6692C14.0025 22.6658 14.6692 21.9991 14.6692 20.6658V19.3325C14.6692 17.9991 14.0025 17.3325 12.6692 17.3325H11.3359C10.0025 17.3325 9.33588 17.9991 9.33588 19.3325V20.6658C9.33588 21.9991 10.0025 22.6658 11.3359 22.6658Z" fill="#0BFFFF" stroke="#0BFFFF" stroke-miterlimit="10" stroke-linecap="round" stroke-linejoin="round"/>
</svg>
