<svg width="62" height="62" viewBox="0 0 62 62" fill="none" xmlns="http://www.w3.org/2000/svg">
<g filter="url(#filter0_b_1_2095)">
<rect width="62" height="62" rx="12" fill="#0BFFFF" fill-opacity="0.03"/>
</g>
<g filter="url(#filter1_d_1_2095)">
<path d="M40.56 23.8534C39.9867 20.96 37.84 19.6934 34.8534 19.6934H23.1467C19.6267 19.6934 17.28 21.4534 17.28 25.56V32.4267C17.28 35.3867 18.4934 37.12 20.4934 37.8667C20.7867 37.9734 21.1067 38.0667 21.44 38.12C21.9734 38.24 22.5467 38.2934 23.1467 38.2934H34.8667C38.3867 38.2934 40.7334 36.5334 40.7334 32.4267V25.56C40.7334 24.9334 40.68 24.3734 40.56 23.8534ZM22.3734 31C22.3734 31.5467 21.92 32 21.3734 32C20.8267 32 20.3734 31.5467 20.3734 31V27C20.3734 26.4534 20.8267 26 21.3734 26C21.92 26 22.3734 26.4534 22.3734 27V31ZM29 32.52C27.0534 32.52 25.48 30.9467 25.48 29C25.48 27.0534 27.0534 25.48 29 25.48C30.9467 25.48 32.52 27.0534 32.52 29C32.52 30.9467 30.9467 32.52 29 32.52ZM37.6134 31C37.6134 31.5467 37.16 32 36.6134 32C36.0667 32 35.6134 31.5467 35.6134 31V27C35.6134 26.4534 36.0667 26 36.6134 26C37.16 26 37.6134 26.4534 37.6134 27V31Z" fill="#0BFFFF"/>
<path d="M44.7333 29.56V36.4266C44.7333 40.5333 42.3866 42.3066 38.8533 42.3066H27.1466C26.1466 42.3066 25.2533 42.16 24.4799 41.8666C23.8533 41.64 23.3066 41.3066 22.8666 40.88C22.6266 40.6533 22.8133 40.2933 23.1466 40.2933H34.8533C39.7866 40.2933 42.7199 37.36 42.7199 32.44V25.56C42.7199 25.24 43.0799 25.04 43.3066 25.28C44.2133 26.24 44.7333 27.64 44.7333 29.56Z" fill="#0BFFFF"/>
</g>
<defs>
<filter id="filter0_b_1_2095" x="-8" y="-8" width="78" height="78" filterUnits="userSpaceOnUse" color-interpolation-filters="sRGB">
<feFlood flood-opacity="0" result="BackgroundImageFix"/>
<feGaussianBlur in="BackgroundImageFix" stdDeviation="4"/>
<feComposite in2="SourceAlpha" operator="in" result="effect1_backgroundBlur_1_2095"/>
<feBlend mode="normal" in="SourceGraphic" in2="effect1_backgroundBlur_1_2095" result="shape"/>
</filter>
<filter id="filter1_d_1_2095" x="2" y="3" width="58" height="58" filterUnits="userSpaceOnUse" color-interpolation-filters="sRGB">
<feFlood flood-opacity="0" result="BackgroundImageFix"/>
<feColorMatrix in="SourceAlpha" type="matrix" values="0 0 0 0 0 0 0 0 0 0 0 0 0 0 0 0 0 0 127 0" result="hardAlpha"/>
<feOffset dy="1"/>
<feGaussianBlur stdDeviation="6.5"/>
<feComposite in2="hardAlpha" operator="out"/>
<feColorMatrix type="matrix" values="0 0 0 0 0.0431373 0 0 0 0 1 0 0 0 0 1 0 0 0 0.42 0"/>
<feBlend mode="normal" in2="BackgroundImageFix" result="effect1_dropShadow_1_2095"/>
<feBlend mode="normal" in="SourceGraphic" in2="effect1_dropShadow_1_2095" result="shape"/>
</filter>
</defs>
</svg>
