<svg width="62" height="62" viewBox="0 0 62 62" fill="none" xmlns="http://www.w3.org/2000/svg">
<g filter="url(#filter0_b_1_2092)">
<rect width="62" height="62" rx="12" fill="#0BFFFF" fill-opacity="0.03"/>
</g>
<g filter="url(#filter1_d_1_2092)">
<path d="M24.3334 17.6666H23.0001C19.0001 17.6666 17.6667 20.0533 17.6667 23V24.3333V43C17.6667 44.1066 18.9201 44.7333 19.8001 44.0666L22.0801 42.36C22.6134 41.96 23.3601 42.0133 23.8401 42.4933L26.0534 44.72C26.5734 45.24 27.4267 45.24 27.9467 44.72L30.1867 42.48C30.6534 42.0133 31.4001 41.96 31.9201 42.36L34.2001 44.0666C35.0801 44.72 36.3334 44.0933 36.3334 43V20.3333C36.3334 18.8666 37.5334 17.6666 39.0001 17.6666H24.3334ZM22.9601 33.68C22.2267 33.68 21.6267 33.08 21.6267 32.3466C21.6267 31.6133 22.2267 31.0133 22.9601 31.0133C23.6934 31.0133 24.2934 31.6133 24.2934 32.3466C24.2934 33.08 23.6934 33.68 22.9601 33.68ZM22.9601 28.3466C22.2267 28.3466 21.6267 27.7466 21.6267 27.0133C21.6267 26.28 22.2267 25.68 22.9601 25.68C23.6934 25.68 24.2934 26.28 24.2934 27.0133C24.2934 27.7466 23.6934 28.3466 22.9601 28.3466ZM31.0001 33.3466H27.0001C26.4534 33.3466 26.0001 32.8933 26.0001 32.3466C26.0001 31.8 26.4534 31.3466 27.0001 31.3466H31.0001C31.5467 31.3466 32.0001 31.8 32.0001 32.3466C32.0001 32.8933 31.5467 33.3466 31.0001 33.3466ZM31.0001 28.0133H27.0001C26.4534 28.0133 26.0001 27.56 26.0001 27.0133C26.0001 26.4666 26.4534 26.0133 27.0001 26.0133H31.0001C31.5467 26.0133 32.0001 26.4666 32.0001 27.0133C32.0001 27.56 31.5467 28.0133 31.0001 28.0133Z" fill="#0BFFFF"/>
<path d="M39.0133 17.6666V19.6666C39.8933 19.6666 40.7333 20.0266 41.3466 20.6266C41.9866 21.28 42.3333 22.12 42.3333 23V26.2266C42.3333 27.2133 41.8933 27.6666 40.8933 27.6666H38.3333V20.3466C38.3333 19.9733 38.6399 19.6666 39.0133 19.6666V17.6666ZM39.0133 17.6666C37.5333 17.6666 36.3333 18.8666 36.3333 20.3466V29.6666H40.8933C42.9999 29.6666 44.3333 28.3333 44.3333 26.2266V23C44.3333 21.5333 43.7333 20.2 42.7733 19.2266C41.7999 18.2666 40.4799 17.68 39.0133 17.6666C39.0266 17.6666 39.0133 17.6666 39.0133 17.6666Z" fill="#0BFFFF"/>
</g>
<defs>
<filter id="filter0_b_1_2092" x="-8" y="-8" width="78" height="78" filterUnits="userSpaceOnUse" color-interpolation-filters="sRGB">
<feFlood flood-opacity="0" result="BackgroundImageFix"/>
<feGaussianBlur in="BackgroundImageFix" stdDeviation="4"/>
<feComposite in2="SourceAlpha" operator="in" result="effect1_backgroundBlur_1_2092"/>
<feBlend mode="normal" in="SourceGraphic" in2="effect1_backgroundBlur_1_2092" result="shape"/>
</filter>
<filter id="filter1_d_1_2092" x="2" y="3" width="58" height="58" filterUnits="userSpaceOnUse" color-interpolation-filters="sRGB">
<feFlood flood-opacity="0" result="BackgroundImageFix"/>
<feColorMatrix in="SourceAlpha" type="matrix" values="0 0 0 0 0 0 0 0 0 0 0 0 0 0 0 0 0 0 127 0" result="hardAlpha"/>
<feOffset dy="1"/>
<feGaussianBlur stdDeviation="6.5"/>
<feComposite in2="hardAlpha" operator="out"/>
<feColorMatrix type="matrix" values="0 0 0 0 0.0431373 0 0 0 0 1 0 0 0 0 1 0 0 0 0.42 0"/>
<feBlend mode="normal" in2="BackgroundImageFix" result="effect1_dropShadow_1_2092"/>
<feBlend mode="normal" in="SourceGraphic" in2="effect1_dropShadow_1_2092" result="shape"/>
</filter>
</defs>
</svg>
