<svg width="272" height="397" viewBox="0 0 272 397" fill="none" xmlns="http://www.w3.org/2000/svg">
<path fill-rule="evenodd" clip-rule="evenodd" d="M355.791 87.8938L355.533 85.0618L355.538 84.2646L356.462 88.7358L355.791 87.8938ZM361.419 114.163L361.086 110.693L362.052 114.885L361.419 114.163ZM366.891 139.953L366.711 137.361L366.636 136.722L367.524 140.675L366.891 139.953ZM372.406 165.464L372.069 162.392L372.879 166.105L372.406 165.464ZM377.764 190.496L377.502 188.062L377.466 187.544L378.237 191.137L377.764 190.496ZM383.203 215.369L382.966 215.048L382.747 212.336L383.44 215.689L383.203 215.369ZM382.871 217.2L384.055 218.803L384.289 219.522L382.06 224.489L382.871 217.2ZM377.605 228.721L379.343 230.807L376.911 236.369L377.605 228.721ZM320.134 320.58L331.221 314.323L320.776 325.408L320.134 320.58ZM79.7368 336.606L86.9789 343.793L78.5538 340.304L79.7368 336.606ZM52.5915 325.685L59.4769 332.591L51.5284 329.345L51.4895 329.225L52.5915 325.685ZM47.5908 317.238L51.5243 324.442L50.7487 326.947L47.5908 317.238ZM48.5945 316.249L57.9087 328.993L53.832 325.017L52.8428 324.013L50.8371 320.291L48.5945 316.249ZM43.3167 302.06L42.9484 303.373L39.6316 293.583L43.724 300.867L43.3167 302.06ZM35.3185 278.285L34.9112 279.477L31.4775 269.328L35.6479 276.852L35.3185 278.285ZM27.5746 252.438L26.877 255.184L23.3652 244.794L27.5746 252.438ZM19.3844 227.665L18.9352 229.137L18.6059 230.569L14.9772 219.82L19.3844 227.665ZM332.584 67.0768L321.803 58.7869L347.059 66.3452L332.584 67.0768ZM374.156 242.568L371.642 248.289L372.456 240.602L374.156 242.568ZM367.898 253.484L368.806 254.646L366.212 260.527L367.067 252.561L367.898 253.484ZM362.506 265.841L363.495 266.845L360.74 273.043L361.637 264.798L362.506 265.841ZM356.164 277.315L356.362 277.515L358.023 279.361L355.186 285.718L356.164 277.315ZM336.685 303.002L336.646 302.882L338.686 301.821L348.092 296.508L337.366 307.95L336.685 303.002ZM303.784 337.959L314.67 331.9L304.546 342.748L304.432 341.99L303.784 337.959ZM287.754 355.102L298.521 349.082L288.598 359.732L288.214 357.736L287.754 355.102ZM281.892 366.42L282.572 366.066L272.811 376.399L272.007 371.888L281.892 366.42ZM256.541 388.318L266.867 382.574L257.426 392.669L256.541 388.318ZM255.222 388.747L256.065 393.377L243.373 390.215L255.222 388.747ZM236.45 388.49L223.478 385.287L235.448 383.78L236.45 388.49ZM208.891 379.56L215.394 378.77L216.168 381.965L216.555 383.562L203.266 380.197L208.891 379.56ZM196.223 378.511L182.775 375.065L195.062 373.719L196.223 378.511ZM195.37 369.775L205.999 366.186L199.835 369.648L195.353 372.167L183.623 373.596L195.37 369.775ZM174.413 368.507L174.916 370.463L175.612 373.418L161.886 369.93L174.413 368.507ZM153.325 363.171L154.684 368.163L140.559 364.672L153.325 363.171ZM125.114 356.309L130.3 361.249L121.039 357.634L122.581 353.819L125.114 356.309ZM107.79 348.689L108.075 347.933L115.515 355.322L106.652 351.71L107.79 348.689ZM93.7665 342.249L101.167 349.517L92.4637 345.986L93.7246 342.527L93.7665 342.249ZM67.9787 331.019L66.396 329.413L61.9498 321.449L71.6597 334.594L67.9787 331.019ZM65.2491 333.63L66.0248 331.124L72.4365 337.389L73.1889 338.073L64.9617 334.784L65.2491 333.63ZM50.2673 305.499L45.0035 300.318L40.5573 292.354L50.2673 305.499ZM36.8349 278.056L45.2251 286.329L36.0419 282.954L35.691 281.875L35.9755 281.119L36.8349 278.056ZM37.4156 274.952L42.389 281.684L39.6582 278.994L37.0473 276.264L32.5231 268.06L37.4156 274.952ZM24.252 243.445L34.4746 257.352L28.8932 252.009L24.6838 244.365L24.252 243.445ZM10.2179 205.595L6.59208 194.447L10.9574 202.571L10.2179 205.595ZM21.1404 161.748L18.6762 171.695L6.13922 180.015L21.9608 158.565L21.1404 161.748ZM41.1009 141.206L38.5779 142.822L28.5638 149.525L44.2655 128.115L41.1009 141.206ZM63.5255 110.717L51.0274 119.156L66.7291 97.7453L63.5255 110.717ZM85.9501 80.2271L73.3322 88.7052L89.1538 67.2558L85.9501 80.2271ZM108.255 49.7766L95.7568 58.2157L111.459 36.8054L108.255 49.7766ZM130.679 19.2872L118.101 27.8851L133.802 6.4748L130.679 19.2872ZM151.018 12.5395L145.113 7.83278L140.674 4.3724L165.493 11.8079L151.018 12.5395ZM186.129 24.3152L182.199 33.016L181.187 35.201L176.221 21.9709L173.327 14.2965L181.69 20.8548L186.129 24.3152ZM187.133 23.3259L182.891 20.0663L176.669 15.1978L201.646 22.7142L197.46 22.883L187.133 23.3259ZM259.719 45.1804L249.096 36.9714L274.194 44.4489L271.203 44.6264L259.719 45.1804ZM285.37 47.8388L310.507 55.436L296.152 56.1286L285.37 47.8388ZM313.687 56.655L291.917 68.3749L296.341 57.5251L298.813 57.3837L313.687 56.655ZM357.579 94.2048L354.667 99.9235L354.64 98.2093L355.657 89.9257L357.195 92.209L357.579 94.2048ZM360.023 114.352L359.676 118.176L359.62 109.446L360.023 114.352ZM360.133 126.511L361.285 116.195L362.745 118.239L363.168 120.354L360.133 126.511ZM365.534 140.262L365.229 143.807L365.132 140.658L365.089 135.635L365.534 140.262ZM374.037 171.296L373.309 172.725L371.162 177.533L372.151 167.535L373.533 169.339L374.037 171.296ZM376.367 190.685L376.065 193.832L376.037 186.816L376.367 190.685ZM381.609 215.357L381.348 218.225L381.236 211.767L381.609 215.357ZM377.045 218.034L379.28 228.574L377.898 226.77L377.045 218.034ZM376.132 222.97L376.382 226.998L376.08 230.145L376.132 222.97ZM370.879 238.199L370.785 234.651L371.233 238.879L370.85 242.185L370.879 238.199ZM367.241 250.649L366.432 241.236L367.473 246.066L368.901 252.494L368.269 251.772L367.241 250.649ZM365.438 246.331L365.883 250.958L365.458 254.542L365.438 246.331ZM360.924 253.233L363.471 264.732L363.51 264.852L361.81 262.886L360.924 253.233ZM359.943 262.036L360.05 258.289L360.453 263.195L359.986 267.058L359.943 262.036ZM355.334 265.39L357.767 276.13L358.037 277.368L356.338 275.402L355.334 265.39ZM327.079 302.813L343.942 297.196L335.776 301.84L327.079 302.813ZM335.961 309.335L320.727 304.879L335.327 303.311L336.042 309.176L335.961 309.335ZM307.256 320.924L330.232 313.319L319.145 319.576L307.256 320.924ZM319.41 326.912L304.215 322.576L318.695 321.048L319.491 326.754L319.41 326.912ZM302.795 336.956L291.146 338.226L301.694 334.795L313.681 330.897L310.759 332.51L302.795 336.956ZM303.141 344.133L288.144 339.998L302.465 338.388L303.261 344.094L303.141 344.133ZM287.192 361.117L272.234 357.102L286.436 355.531L286.589 356.409L287.273 360.958L287.192 361.117ZM271.526 377.745L256.765 373.93L270.688 372.317L271.531 376.947L271.606 377.586L271.526 377.745ZM244.391 387.233L254.597 381.527L265.568 380.212L259.935 382.045L244.391 387.233ZM244.58 388.629L251.532 386.368L265.638 381.648L255.551 387.314L244.58 388.629ZM204.234 378.689L226.289 371.515L215.724 377.338L214.327 377.527L204.234 378.689ZM209.269 366.05L205.452 370.208L197.776 378.801L196.501 373.252L205.907 367.939L209.269 366.05ZM183.434 372.2L194.081 366.218L195.237 366.107L205.81 364.789L191.465 369.588L183.434 372.2ZM120.473 347.745L125.761 355.038L122.832 352.146L120.473 347.745ZM108.326 346.261L103.487 337.496L105.145 339.74L114.183 352.044L111.018 348.832L108.326 346.261ZM75.4424 324.218L80.9429 329.719L84.0909 335.322L85.587 337.884L84.7176 336.841L75.4424 324.218ZM75.5838 326.69L81.6214 335.065L85.5695 340.275L80.108 334.894L75.5838 326.69ZM61.7694 318.856L67.1919 324.118L71.5573 332.241L68.6763 328.274L61.7694 318.856ZM63.7747 333.579L59.0572 319.076L64.9576 329.881L64.1401 332.665L63.7747 333.579ZM53.5189 318.756L57.9262 326.601L48.4141 313.657L53.5189 318.756ZM44.04 306.729L43.7281 305.77L44.7912 302.111L53.1424 310.263L44.04 306.729ZM28.6418 253.682L37.1908 262.035L35.4016 261.424L28.0076 258.66L27.6957 257.701L28.6808 253.802L28.6418 253.682ZM29.1595 237.343L27.3702 236.732L19.7365 234.045L19.4246 233.086L20.4516 228.908L29.1595 237.343ZM20.664 227.116L15.864 218.471L26.3234 232.698L20.664 227.116ZM20.0779 220.017L21.265 221.221L22.878 224.143L26.104 229.986L15.6056 215.639L20.0779 220.017ZM11.8989 204.651L12.1444 203.775L20.061 211.407L20.5346 212.048L16.9561 210.826L11.4684 209.032L11.1565 208.073L11.8989 204.651ZM15.0876 204.674L14.1374 203.79L12.3568 201.983L9.87739 197.62L15.0876 204.674ZM19.225 172.975L29.1518 178.229L6.04672 181.768L8.24911 180.389L19.225 172.975ZM41.7695 142.447L52.6494 148.186L27.069 152.265L32.1959 148.874L41.7695 142.447ZM75.1549 117.538L49.3738 121.814L64.1941 111.957L75.1549 117.538ZM97.6604 86.8894L71.8374 91.4447L86.6187 81.4676L96.2698 86.2814L97.6604 86.8894ZM109.043 50.9782L120.085 56.4L94.262 60.9552L109.043 50.9782ZM113.55 34.2695L119.919 51.8148L121.17 55.2519L109.729 49.8272L112.975 36.5773L113.55 34.2695ZM141.662 27.3792L126.761 37.3952L115.758 32.0933L118.752 31.5172L141.662 27.3792ZM142.591 25.7517L126.345 28.7823L116.567 30.5048L131.348 20.5277L142.591 25.7517ZM151.327 13.897L168.553 13.0659L146.426 24.5041L150.68 15.1679L151.327 13.897ZM179.634 34.9106L166.832 24.892L168.21 21.7929L171.774 14.0062L176.974 27.9555L179.634 34.9106ZM217.46 46.0683L209.481 25.2028L222.283 35.2214L217.46 46.0683ZM218.893 46.3976L223.634 35.7096L240.98 34.8395L218.893 46.3976ZM258.557 46.0888L253.893 57.0165L252.328 53.019L245.635 36.1091L258.557 46.0888ZM255.325 57.3458L259.908 46.5769L277.254 45.7068L255.325 57.3458ZM294.989 57.037L290.484 68.0455L282.067 47.0573L293.958 56.3119L294.989 57.037ZM315.356 57.305L310.932 68.1547L297.773 68.856L293.586 69.0248L302.95 63.9909L315.356 57.305ZM327.076 79.0746L319.244 59.8844L318.341 57.9246L331.461 68.105L327.076 79.0746ZM328.835 78.3699L332.893 68.4343L348.564 67.7115L328.835 78.3699ZM363.297 135.423L363.722 131.838L363.742 140.05L363.297 135.423ZM367.508 148.368L365.725 152.261L366.796 142.105L368.217 144.028L368.601 146.024L367.508 148.368ZM369.217 165.441L368.85 161.054L369.194 157.628L369.185 158.824L369.217 165.441ZM371.009 165.653L370.626 168.959L370.71 168.402L370.562 161.425L371.009 165.653ZM374.014 174.484L373.024 184.482L370.773 181.636L371.097 181L374.014 174.484ZM374.247 186.205L374.549 183.058L374.656 190.314L374.247 186.205ZM374.709 226.747L374.34 222.758L374.723 219.452L374.639 220.01L374.709 226.747ZM371.779 229.556L374.131 240.455L372.59 238.57L371.779 229.556ZM364.046 251.423L363.563 246.676L364.068 242.932L364.015 244.806L364.046 251.423ZM355.114 257.377L356.379 258.821L356.774 259.222L357.619 269.154L355.111 257.775L355.114 257.377ZM318.514 313.154L330.282 311.845L307.268 319.33L318.514 313.154ZM291.077 336.791L300.402 331.637L302.083 330.692L313.453 329.38L313.732 329.422L302.824 332.97L291.077 336.791ZM275.356 355.291L281.35 353.342L297.412 348.117L286.726 353.979L279.186 354.841L275.356 355.291ZM259.698 370.723L266.662 366.867L270.144 364.939L281.355 363.546L279.677 364.092L259.698 370.723ZM249.372 376.467L237.963 388.661L236.805 383.471L247.332 377.528L249.372 376.467ZM234.664 376.479L236.339 376.332L246.034 375.167L236.924 378.13L224.377 382.344L227.82 380.296L234.664 376.479ZM214.011 371.665L214.571 371.35L226.061 369.999L215.672 373.511L204.045 377.293L214.011 371.665ZM212.307 364.797L213.387 369.747L213.582 370.347L200.814 377.548L205.194 372.677L212.307 364.797ZM180.203 372.455L183.742 368.256L191.619 359.464L192.239 361.78L193.052 365.095L187.368 368.402L180.203 372.455ZM174.703 366.954L162.695 368.341L185.469 360.934L174.703 366.954ZM162.386 366.984L165.547 365.293L173.272 360.925L185.28 359.537L179.047 361.565L162.386 366.984ZM154.644 362.742L162.929 358.059L167.732 355.304L156.236 368.454L154.839 363.341L154.644 362.742ZM161.46 357.211L156.657 359.967L153.655 361.738L144.838 362.75L161.46 357.211ZM112.184 336.523L112.382 336.724L117.132 352.145L110.8 340.419L112.184 336.523ZM102.707 346.1L101.094 343.179L96.372 334.774L97.7947 330.997L97.7557 330.877L100.758 340.107L102.707 346.1ZM74.5697 334.575L68.5105 323.689L69.6544 319.87L73.2802 331.018L74.5697 334.575ZM59.0141 314.053L68.7909 318.03L67.4433 322.445L60.0813 315.296L59.0141 314.053ZM56.1013 314.47L60.7797 328.854L54.9573 318.288L56.1013 314.47ZM55.1179 312.669L53.8901 317.045L45.539 308.892L55.1179 312.669ZM29.4676 260.703L39.2472 264.282L38.4297 267.067L37.8577 268.976L34.3356 265.482L29.4676 260.703ZM29.5332 246.234L34.2942 254.759L24.0326 240.733L28.7418 245.431L29.5332 246.234ZM31.057 239.509L29.7455 244.442L21.1965 236.089L31.057 239.509ZM18.5223 192.82L21.8706 209.228L5.1757 186.425L18.5223 192.82ZM31.1087 177.725L20.0309 171.785L24.052 156.029L31.1087 177.725ZM42.4555 141.296L46.4766 125.54L53.6142 147.077L42.4555 141.296ZM59.406 129.022L48.565 123.403L74.2263 119.165L59.406 129.022ZM76.1197 116.429L64.8801 110.806L68.7814 95.0896L75.6908 115.11L76.1197 116.429ZM98.6642 85.9002L87.3047 80.3167L91.245 64.72L93.977 72.712L98.6642 85.9002ZM119.237 57.8687L104.336 67.8847L97.5834 64.6466L93.3333 62.5827L111.374 59.3659L119.237 57.8687ZM114.673 33.2414L126.075 38.5462L122.293 54.2238L119.675 46.9899L114.673 33.2414ZM201.754 35.2711L184.289 36.1802L206.376 24.6222L201.754 35.2711ZM239.38 46.6266L244.082 35.8188L252.34 56.7261L239.38 46.6266ZM325.403 78.8233L312.284 68.6429L314.596 63.1191L316.789 57.6343L320.861 67.7089L325.403 78.8233ZM356.605 107.511L354.71 104.946L354.725 102.953L357.717 97.0758L356.605 107.511ZM357.747 109.393L358.214 105.53L358.189 114.419L357.747 109.393ZM362.79 144.866L360.321 133.607L360.282 133.487L361.901 135.612L362.565 142.951L362.79 144.866ZM368.659 149.054L367.588 159.211L365.298 156.244L366.31 154.059L368.659 149.054ZM379.528 210.997L379.788 208.129L379.819 214.746L379.528 210.997ZM376.092 206.548L379.372 199.516L378.305 209.274L377.831 208.633L376.092 206.548ZM376.629 209.421L377.103 210.063L378.17 211.306L378.72 217.887L378.864 219.961L376.629 209.421ZM372.675 227.011L371.402 221.063L372.943 222.947L373.755 231.962L372.675 227.011ZM369.032 234.558L369.376 231.133L369.399 238.945L369.032 234.558ZM367.675 234.867L368.444 244.16L365.975 232.901L367.675 234.867ZM358.132 258.913L358.56 254.93L358.574 263.939L358.132 258.913ZM345.677 272.375L348.993 265.862L352.231 259.109L352.343 287.571L345.677 272.375ZM333.034 289.742L333.193 289.823L349.317 292.531L320.828 301.93L333.034 289.742ZM304.157 319.547L316.531 306.244L316.651 306.205L317.486 312.03L313.683 314.195L304.157 319.547ZM301.539 323.314L302.693 323.602L316.734 327.65L302.412 329.26L301.539 323.314ZM286.263 346.442L286.149 345.684L285.309 340.655L300.465 344.871L286.263 346.442ZM276.848 352.95L285.973 347.994L297.343 346.682L275.287 353.856L276.848 352.95ZM256.429 370.858L264.183 362.504L268.12 358.308L268.81 362.059L269.116 363.816L267.995 364.445L256.429 370.858ZM253.81 374.626L268.691 378.401L254.926 380.095L253.81 374.626ZM252.531 375.175L253.608 380.524L241.121 387.369L252.531 375.175ZM232.558 370.007L233.677 375.077L233.674 375.476L221.107 382.479L232.558 370.007ZM229.52 371.26L218.269 383.535L218.069 383.733L216.833 378.303L229.52 371.26ZM193.828 362.589L192.937 359.035L208.812 363.017L194.41 364.786L193.828 362.589ZM188.7 360.678L177.165 373.708L175.731 368.078L188.7 360.678ZM170.57 354.248L170.69 354.209L172.124 359.84L159.155 367.239L170.57 354.248ZM144.129 356.088L150.113 350.033L166.596 352.625L138.347 361.946L144.129 356.088ZM119.821 338.811L129.591 343.586L132.94 359.993L116.008 336.87L119.821 338.811ZM86.558 324.976L86.9955 325.099L96.8922 329.038L95.3048 333.53L89.6844 328.068L86.558 324.976ZM72.6871 319.414L82.7426 323.434L81.2751 327.887L72.6871 319.414ZM48.184 290.536L52.9794 305.279L47.079 294.474L48.184 290.536ZM22.5445 220.673L23.6524 216.336L27.0053 226.644L28.8795 231.999L24.1965 223.714L22.5445 220.673ZM29.4102 181.061L19.0105 191.469L5.06746 184.87L29.4102 181.061ZM37.65 160.752L51.9489 151.33L33.8324 175.911L37.65 160.752ZM36.1755 160.702L35.3132 164.163L32.1933 176.577L25.1366 154.881L36.1755 160.702ZM58.72 130.173L57.8158 133.914L54.7378 146.049L47.6002 124.512L58.72 130.173ZM74.4544 120.682L58.5519 142.29L56.3379 145.263L58.6793 135.754L60.0746 130.263L68.887 124.348L74.4544 120.682ZM141.89 28.8956L124.175 53.0815L123.893 53.4382L127.429 38.6358L133.959 34.2588L141.89 28.8956ZM176.952 36.4456L160.245 37.2407L158.461 35.8325L148.156 27.7853L174.884 35.7928L176.952 36.4456ZM214.032 46.123L192.872 39.7505L185.236 37.4627L201.943 36.6676L214.032 46.123ZM202.986 35.7983L207.808 24.9515L215.908 45.7779L202.986 35.7983ZM238.067 46.2583L220.721 47.1284L220.562 47.0475L242.65 35.4895L238.067 46.2583ZM250.503 57.1911L239.327 53.8012L221.549 48.4498L238.256 47.6548L244.796 52.6851L250.503 57.1911ZM274.499 57.2065L256.995 57.9957L278.962 46.4766L274.499 57.2065ZM323.647 79.1293L294.573 70.4271L311.241 69.5122L319.763 76.1513L323.647 79.1293ZM345.376 83.9913L351.807 71.1631L351.883 99.106L345.376 83.9913ZM368.879 222.678L367.809 232.835L365.477 230.147L368.879 222.678ZM355.104 253.271L358.021 246.755L356.948 257.31L355.089 255.264L355.104 253.271ZM333.283 288.468L329.129 273.251L350.084 291.221L343.077 290.054L333.283 288.468ZM300.139 323.902L301.094 329.689L287.966 337.007L300.139 323.902ZM233.838 369.458L249.036 373.395L234.993 375.047L233.838 369.458ZM173.442 359.411L173.095 357.934L172.009 353.78L172.368 353.663L188.163 357.805L173.442 359.411ZM137.037 361.179L144.409 334.127L146.085 339.282L149.123 349.03L144.144 354.096L137.037 361.179ZM70.6307 317.167L70.9572 316.133L72.0592 312.593L80.6862 321.186L80.6472 321.067L70.6307 317.167ZM58.2663 307.271L59.2945 308.395L66.6955 315.663L56.9577 311.806L58.2663 307.271ZM51.14 295.141L57.1992 306.028L56.0552 309.846L52.6215 299.696L51.14 295.141ZM43.1057 270.848L49.2039 281.854L48.099 285.792L43.7685 272.885L43.1057 270.848ZM19.8798 192.511L31.0017 181.471L23.693 210.756L19.8798 192.511ZM53.3006 151.818L50.588 163.039L49.564 166.818L35.1841 176.4L36.1099 175.171L53.3006 151.818ZM75.8061 121.17L72.0695 136.17L68.1441 138.772L57.8095 145.712L72.948 125.015L75.8061 121.17ZM96.9599 90.0333L78.8434 114.615L82.5801 99.6147L96.9599 90.0333ZM99.7488 84.7522L92.3296 63.5719L103.53 69.0746L99.7488 84.7522ZM143.362 29.3448L139.826 44.1472L125.326 53.7675L143.362 29.3448ZM249.817 58.342L241.085 58.7966L233.149 59.2569L220.902 49.7207L235.578 54.0927L249.817 58.342ZM257.981 59.398L274.689 58.603L287.056 68.1003L257.981 59.398ZM306.332 81.3151L293.926 71.6979L323 80.4002L306.332 81.3151ZM344.186 83.1854L334.79 81.6022L330.292 80.812L351.022 69.563L344.186 83.1854ZM357.198 119.115L354.732 107.458L354.693 107.338L356.35 109.582L357.198 119.115ZM361.745 151.435L361.548 151.235L360.619 141.86L363.166 153.359L361.745 151.435ZM367.062 176.746L366.212 167.611L368.681 178.87L367.062 176.746ZM372.498 202.017L371.687 193.003L374.039 203.902L372.498 202.017ZM374.226 210.998L373.078 220.915L370.904 218.309L374.226 210.998ZM361.589 227.568L363.841 230.415L360.357 238.042L361.589 227.568ZM329.085 268.228L336.571 252.936L351.583 255.079L329.966 267.677L329.085 268.228ZM343.651 271.444L329.514 269.547L352.051 256.517L344.526 271.689L343.651 271.444ZM330.977 271.192L344.437 273.044L351.18 288.479L330.977 271.192ZM331.964 288.897L318.514 302.152L327.42 272.481L331.964 288.897ZM284.621 336.504L283.973 332.474L286.454 331.137L297.101 325.155L284.928 338.261L284.621 336.504ZM269.018 355.364L267.983 349.737L280.871 342.496L279.304 344.199L269.018 355.364ZM252.811 369.516L252.313 366.762L264.961 359.6L253.27 372.151L252.811 369.516ZM198.774 356.606L221.63 349.04L217.708 351.244L210.744 355.099L208.071 355.438L198.774 356.606ZM174.924 352.965L189.606 351.238L190.497 354.792L191.079 356.989L187.617 356.126L174.924 352.965ZM147.482 339.092L145.338 332.5L158.73 343.519L168.637 351.564L150.442 348.601L147.482 339.092ZM141.703 333.549L134.414 360.044L130.988 343.397L141.703 333.549ZM100.319 323.681L101.626 324.847L108.632 331.714L109.066 332.235L98.732 328.174L100.319 323.681ZM84.7471 321.854L86.0499 318.116L94.7968 326.67L84.4626 322.609L84.7471 321.854ZM72.3106 310.921L68.1402 303.397L67.5495 302.396L77.931 316.383L74.0521 312.608L72.3106 310.921ZM58.5177 305.599L54.2693 297.835L53.9935 297.394L58.2954 303.285L63.9403 310.86L58.5177 305.599ZM32.5506 231.468L32.9824 232.388L31.8355 236.605L26.5694 220.821L32.5506 231.468ZM72.738 137.411L83.8578 143.072L70.4083 145.326L57.9178 147.268L63.2454 143.679L72.738 137.411ZM98.3116 90.5215L94.6948 105.483L80.315 115.064L91.5078 99.7595L98.3116 90.5215ZM101.349 83.9666L105.005 69.1252L119.385 59.5439L101.349 83.9666ZM140.494 45.3877L151.776 50.7316L125.593 55.4038L129.479 52.6817L140.494 45.3877ZM156.285 44.6259L154.544 48.2405L147.47 28.9363L159.082 38.149L156.285 44.6259ZM155.572 49.3641L160.434 38.6372L177.939 37.848L155.572 49.3641ZM195.554 49.2171L191.867 57.4413L190.65 60.2227L182.713 39.0786L195.554 49.2171ZM196.677 48.1889L184.469 38.7725L213.385 47.3938L196.677 48.1889ZM286.409 69.3711L269.582 70.2051L263.002 65.055L257.334 60.6689L279.965 67.4905L286.409 69.3711ZM360.151 151.424L359.684 155.287L359.705 152.497L359.628 146.557L360.151 151.424ZM374.576 206.776L371.254 214.086L372.364 204.049L374.576 206.776ZM370.721 205.113L370.774 197.939L371.101 202.206L370.758 205.632L370.721 205.113ZM361.724 225.536L360.876 216.003L361.764 219.956L363.462 227.622L362.434 226.498L361.724 225.536ZM359.843 220.978L360.366 225.845L359.899 229.708L359.843 220.978ZM355.019 248.527L356 239.725L358.371 242.532L355.088 249.962L355.019 248.527ZM317.16 302.063L314.748 293.834L312.535 285.806L322.734 275.596L325.946 272.431L321.493 287.266L317.16 302.063ZM300.125 314.893L313.574 307.338L301.119 320.8L300.125 314.893ZM283.489 338.728L268.054 334.47L282.535 332.942L283.111 335.935L283.489 338.728ZM239.795 366.99L261.851 359.816L251.285 365.639L239.795 366.99ZM219.424 361.819L241.839 354.529L232.274 359.76L231.193 360.51L221.219 361.633L219.424 361.819ZM126.526 321.122L122.872 302.959L141.659 328.527L140.11 327.838L126.526 321.122ZM126.038 322.474L141.489 330.04L114.32 333.31L126.038 322.474ZM90.3779 320.42L86.2623 316.324L82.5655 309.441L81.4623 307.679L92.1195 322.107L90.3779 320.42ZM83.5991 320.769L81.1848 312.939L78.7286 305.387L84.9827 316.873L84.5365 317.946L83.5991 320.769ZM67.528 299.885L73.1874 305.467L74.5246 307.948L77.8285 314.031L71.632 305.575L67.528 299.885ZM53.8131 294.802L59.2746 300.183L63.8378 308.508L55.9445 297.688L53.8131 294.802ZM57.2374 289.844L58.979 291.531L49.0015 287.752L50.3101 283.217L57.2374 289.844ZM56.1428 286.887L51.6705 282.509L50.5224 281.425L45.8813 272.861L51.3283 280.235L56.1428 286.887ZM45.7009 270.269L51.3213 275.731L56.0014 284.414L48.1081 273.595L45.7009 270.269ZM41.2115 257.281L40.3521 260.344L40.0257 261.378L34.9155 246.074L41.2115 257.281ZM42.1249 241.343L42.5986 241.985L32.738 238.565L34.0495 233.631L42.1249 241.343ZM37.1125 234.491L36.1623 233.607L34.2619 231.839L31.9413 227.557L37.1125 234.491ZM27.0767 211.378L36.8742 201.564L52.127 208.93L42.7501 210.257L25.5516 212.802L27.0767 211.378ZM62.2361 172.77L56.3586 169.778L51.0384 166.869L54.9008 151.033L62.2361 172.77ZM84.8615 142.083L73.5439 136.221L77.5261 120.345L84.8615 142.083ZM95.3634 106.723L103.903 110.971L106.564 112.226L80.4233 116.619L84.789 113.741L95.3634 106.723ZM117.2 74.8345L102.821 84.4158L120.817 59.8732L117.2 74.8345ZM151.946 49.2181L151.152 48.8137L141.3 44.1978L144.674 29.7131L151.946 49.2181ZM189.098 59.9324L176.098 49.713L181.041 38.8272L184.366 47.4215L189.098 59.9324ZM192.044 60.4322L196.867 49.5854L214.371 48.7961L192.044 60.4322ZM247.762 61.3963L228.636 71.4613L233.338 60.6534L250.804 59.7443L247.762 61.3963ZM287.395 70.7734L283.314 72.8961L265.266 82.6102L269.93 71.6825L284.524 70.9119L287.395 70.7734ZM299.031 93.1005L285.873 82.8002L290.497 71.7527L298.444 91.7011L299.031 93.1005ZM302.854 88.1457L300.704 93.3518L296.239 82.4772L292.05 72.043L305.169 82.2234L302.854 88.1457ZM302.463 92.6472L306.521 82.7116L322.431 81.9107L302.463 92.6472ZM336.326 100.587L328.956 83.6324L351.056 103.086L336.326 100.587ZM355.997 125.205L355.877 125.244L355.03 115.711L357.535 127.488L355.997 125.205ZM357.794 146.623L358.261 142.76L358.236 151.649L357.794 146.623ZM363.315 160.336L362.283 170.612L359.834 167.565L363.192 160.773L363.315 160.336ZM365.704 177.055L365.28 180.639L365.26 172.428L365.704 177.055ZM365.776 189.093L366.846 178.936L369.098 181.783L367.882 184.564L365.776 189.093ZM367.758 196.003L365.387 193.196L367.412 188.826L368.829 185.847L367.758 196.003ZM366.854 210.745L366.382 204.404L367.345 208.995L368.731 215.702L367.151 213.697L366.854 210.745ZM365.755 213.886L365.369 217.591L365.349 209.379L365.755 213.886ZM355.329 227.881L357.873 239.778L356.134 237.693L355.329 227.881ZM329.251 234.507L351.394 253.682L336.661 251.582L329.251 234.507ZM328.138 266.946L328.089 235.416L332.988 246.812L335.42 252.25L331.861 259.24L328.138 266.946ZM315.841 302.492L313.86 300.883L292.982 283.152L311.216 286.235L315.217 300.574L315.841 302.492ZM290.559 314.824L307.302 309.246L299.256 313.851L290.559 314.824ZM284.206 316.89L298.807 315.322L299.719 321.388L284.206 316.89ZM271.096 332.818L282.444 328.995L293.951 325.252L282.984 331.47L271.096 332.818ZM255.156 348.607L266.042 342.547L275.617 341.421L277.652 341.157L260.31 346.93L255.156 348.607ZM255.225 350.042L277.76 342.713L266.994 348.733L255.225 350.042ZM267.619 355.952L252.343 351.775L266.544 350.204L267.276 353.678L267.619 355.952ZM245.07 354.273L238.601 361.281L233.337 367.102L232.182 361.513L245.07 354.273ZM219.219 357.114L227.779 347.57L228.973 353.279L216.124 360.639L219.219 357.114ZM198.546 355.09L209.433 349.031L221.441 347.643L206.098 352.634L198.546 355.09ZM206.971 342.276L207.09 342.237L207.633 344.314L208.404 347.907L201.8 351.646L195.316 355.345L200.942 349.009L206.971 342.276ZM190.924 350.809L201.451 344.867L204.133 343.332L192.598 356.362L192.397 356.56L190.924 350.809ZM164.656 334.434L169.64 350.574L146.461 331.472L164.656 334.434ZM117.095 319.02L121.437 303.028L125.13 321.311L113.651 332.07L117.095 319.02ZM98.2111 317.607L103.58 324.741L100.652 321.85L98.2111 317.607ZM81.4407 305.168L85.1217 308.742L87.298 310.951L92.1369 319.715L81.4407 305.168ZM80.6821 316.284L74.5059 305.038L75.8116 300.902L80.6821 316.284ZM51.0256 267.079L41.4048 263.58L40.9282 263.338L42.2787 258.525L51.0256 267.079ZM37.6911 248.087L45.7822 259.108L48.1895 262.434L42.5301 256.852L39.6969 251.809L37.6911 248.087ZM44.73 244.87L43.3824 249.285L34.6356 240.731L44.0585 244.028L44.73 244.87ZM52.5559 210.248L41.1134 221.525L26.0194 214.24L34.9978 212.911L52.5559 210.248ZM60.1594 173.313L36.8536 177.05L50.2326 168.059L60.1594 173.313ZM68.1088 154.557L63.3432 152.13L57.109 148.856L83.049 144.661L68.1088 154.557ZM105.635 113.854L90.6952 123.75L79.6145 118.208L105.635 113.854ZM100.032 89.697L101.084 92.9334L107.568 111.237L96.1693 105.533L100.032 89.697ZM150.928 52.2002L135.907 62.2552L124.625 56.9114L144.182 53.4665L150.928 52.2002ZM174.785 49.3447L157.281 50.1339L179.608 38.4979L174.785 49.3447ZM187.222 60.2775L158.108 51.4554L175.094 50.7022L178.305 53.2368L187.222 60.2775ZM225.57 71.0004L212.57 60.7811L214.394 56.609L217.473 49.7754L218.999 53.653L225.57 71.0004ZM227.242 71.2518L219.026 50.0657L231.986 60.1652L227.242 71.2518ZM262.281 81.9905L258.555 79.0934L249.161 71.8102L250.946 67.5182L253.906 60.7236L254.649 62.6025L262.281 81.9905ZM284.56 82.4319L266.935 83.2601L289.065 71.4233L288.253 73.4105L284.56 82.4319ZM326.494 115.184L319.124 98.2295L322.116 92.3519L326.403 83.9327L326.381 108.726L326.494 115.184ZM331 109.477L327.845 115.672L327.874 84.3819L335.086 101.256L331 109.477ZM338.999 111.249L328.793 116.955L336.276 102.062L348.497 104.184L351.165 104.641L338.999 111.249ZM351.713 105.921L350.419 108.463L344.192 120.694L329.222 118.273L349.912 106.904L351.713 105.921ZM358.111 130.482L354.753 137.274L354.765 135.679L355.743 127.276L356.019 127.716L358.111 130.482ZM354.836 142.416L354.73 140.462L357.804 134.426L356.691 144.861L354.836 142.416ZM368.982 197.726L369.325 194.301L369.348 202.114L368.982 197.726ZM365.924 196.07L367.504 198.074L368.354 207.209L365.924 196.07ZM363.554 209.565L363.94 205.861L363.999 214.192L363.554 209.565ZM358.007 221.443L358.434 217.46L358.448 226.469L358.007 221.443ZM354.949 219.787L356.214 221.231L356.649 221.752L357.574 231.525L355.027 220.026L354.949 219.787ZM338.341 234.334L344.434 235.136L351.843 252.211L329.581 233.075L338.341 234.334ZM293.51 281.92L322.598 272.326L324.876 271.586L311.426 284.841L293.51 281.92ZM314.718 303.52L296.643 300.518L291.979 284.141L296.376 287.88L314.718 303.52ZM282.443 323.693L281.449 317.787L281.689 317.709L297.004 322.006L284.478 323.429L282.443 323.693ZM282.113 325.126L294.002 323.778L270.987 331.263L282.113 325.126ZM267.877 331.48L279.891 318.293L280.131 318.215L281.085 324.002L268.197 331.243L267.877 331.48ZM250.582 358.18L249.388 352.471L264.784 356.609L250.582 358.18ZM250.253 359.612L261.383 358.378L261.781 358.381L239.606 365.594L250.253 359.612ZM112.461 331.264L108.648 313.02L120.247 302.222L117.627 311.69L112.461 331.264ZM93.7073 306.613L96.7255 308.149L107.291 313.329L107.444 314.207L110.639 329.736L93.7073 306.613ZM92.9201 310.713L99.2522 322.438L97.9075 326.454L92.9201 310.713ZM88.6974 310.363L90.042 306.347L90.081 306.467L94.9905 321.968L91.0179 314.645L88.6974 310.363ZM73.4387 303.794L64.6919 295.24L74.9481 299.062L74.8672 299.221L73.4387 303.794ZM52.6398 275.302L53.8256 271.205L56.3598 278.996L58.816 286.548L52.6398 275.302ZM52.9231 269.245L51.7763 273.462L51.5726 274.058L42.8647 265.624L52.6444 269.203L52.9231 269.245ZM40.5862 222.757L43.9345 239.164L27.2396 216.362L40.5862 222.757ZM52.2975 207.416L37.4014 200.332L33.5881 182.088L52.2975 207.416ZM34.5529 180.979L49.449 188.063L51.6451 198.483L53.2232 206.188L38.7768 186.63L34.5529 180.979ZM64.9599 170.956L68.7774 155.797L83.1572 146.216L73.735 159.222L64.9599 170.956ZM86.8055 137.872L85.9461 140.935L78.6497 119.317L89.8893 124.94L86.8055 137.872ZM101.155 88.6688L107.908 91.9069L112.515 94.2523L108.652 110.089L101.506 89.7476L101.155 88.6688ZM123.192 78.5852L129.15 81.4189L103.049 85.9322L117.989 76.036L123.192 78.5852ZM123.661 58.0205L135.14 63.5651L131.278 79.4015L127.331 68.4907L123.661 58.0205ZM151.195 53.8365L148.981 56.8099L132.998 78.5769L136.576 63.4958L145.388 57.5809L151.195 53.8365ZM211.338 60.2539L193.752 61.202L216.041 49.4461L211.338 60.2539ZM247.81 71.322L230.344 72.2311L252.512 60.5141L250.161 65.9181L247.81 71.322ZM260.444 82.4555L231.291 73.5135L248.119 72.6795L250.259 74.3692L260.444 82.4555ZM297.314 93.5264L267.922 84.6624L284.749 83.8284L293.232 90.3477L297.314 93.5264ZM317.973 97.5435L303.92 95.0893L324.889 83.7622L317.973 97.5435ZM302.994 96.3182L312.707 98.0632L317.883 98.8981L325.016 115.532L325.292 115.973L302.994 96.3182ZM357.284 156.465L355.976 149.998L354.857 144.928L354.779 144.688L356.437 146.932L357.026 153.633L357.284 156.465ZM362.029 172.683L362.582 178.866L362.957 182.057L360.41 170.559L360.923 171.32L362.029 172.683ZM363.387 172.374L363.811 168.79L363.87 177.121L363.387 172.374ZM352.148 221.361L352.22 249.702L345.713 234.587L352.148 221.361ZM351.967 218.768L344.523 233.782L329.512 231.639L351.967 218.768ZM265.014 341.424L252.045 348.823L263.979 335.796L265.014 341.424ZM209.723 347.478L208.409 341.809L208.769 341.692L224.443 345.872L209.723 347.478ZM186.633 338.022L196.984 339.692L202.996 340.653L174.747 349.974L186.633 338.022ZM183.148 329.347L185.524 337.058L177.452 345.25L172.433 350.196L180.659 320.879L183.148 329.347ZM169.168 344.233L165.974 334.005L173.363 326.565L179.146 320.708L170.959 350.145L169.168 344.233ZM140.203 315.083L142.624 327.418L123.837 301.85L138.97 309.254L140.203 315.083ZM88.4232 304.222L88.9359 304.983L87.5103 309.158L78.7245 300.484L88.4232 304.222ZM56.7426 275.69L63.0777 287.017L61.8528 290.994L58.9649 282.523L56.7426 275.69ZM46.2401 256.441L48.0091 259.842L37.5107 245.495L43.2899 251.038L46.2401 256.441ZM45.757 240.692L41.9827 222.568L53.2245 211.489L45.757 240.692ZM35.8353 180.032L60.5377 176.106L49.9372 186.712L35.8353 180.032ZM50.8065 187.754L62.1291 176.516L54.6587 206.118L50.8065 187.754ZM113.321 93.0624L111.294 92.1308L102.12 87.5597L128.222 83.0464L113.321 93.0624ZM169.589 62.3014L158.334 53.3703L157.461 52.7262L186.455 61.5873L169.589 62.3014ZM194.7 62.4844L211.527 61.6504L223.814 71.3065L222.66 71.0191L194.7 62.4844ZM324.843 117.444L323.21 117.313L310.032 115.104L302.584 97.9096L314.822 108.642L324.843 117.444ZM329.411 119.67L344.141 122.169L351.079 138.204L351.511 139.123L329.411 119.67ZM363.295 190.43L361.556 188.345L360.934 180.727L360.748 178.932L361.906 184.122L363.295 190.43ZM355.043 212.333L354.935 210.778L355.994 202.216L357.337 203.9L358.245 205.062L357.11 207.685L355.043 212.333ZM354.939 215.681L357.977 209.126L356.783 219.72L355.006 217.515L354.939 215.681ZM319.374 249.782L320.225 247.914L326.617 234.966L326.705 266.616L319.374 249.782ZM306.492 267.226L324.408 270.147L293.162 280.443L306.492 267.226ZM296.274 301.831L312.677 304.581L284.188 313.98L296.274 301.831ZM264.643 332.134L263.725 326.865L277.053 319.349L264.838 332.733L264.643 332.134ZM240.118 350.052L244.733 351.201L230.331 352.97L229.098 347.141L240.118 350.052ZM246.494 344.797L247.568 350.544L240.169 348.577L231.933 346.484L246.494 344.797ZM177.647 318.545L146.52 328.801L159.611 315.663L177.647 318.545ZM146.334 327.006L153.868 299.637L156.594 308.426L158.502 314.698L154.727 318.577L146.334 327.006ZM151.123 298.939L143.832 325.832L140.366 309.065L151.123 298.939ZM151.377 296.868L139.458 307.903L123.887 300.375L151.377 296.868ZM78.1774 293.505L86.4896 301.538L86.8044 302.098L76.6681 298.237L78.1774 293.505ZM62.7554 292.954L64.1448 288.261L65.7275 289.867L72.8917 296.815L70.0294 295.757L62.7554 292.954ZM63.3581 177.442L67.2103 195.806L55.8487 206.924L58.5555 196.5L63.3581 177.442ZM81.5898 158.92L80.8503 161.944L74.2821 166.201L66.3506 171.565L84.6288 146.665L81.5898 158.92ZM104.748 126.204L103.637 130.939L89.0178 140.599L107.215 115.858L104.748 126.204ZM128.45 84.5627L110.291 109.423L113.989 94.3029L124.324 87.3628L128.45 84.5627ZM150.819 61.6464L149.05 69.2469L134.31 78.9452L152.628 54.1658L150.819 61.6464ZM187.402 62.8697L164.875 74.7036L169.778 63.6979L176.955 63.3516L187.402 62.8697ZM193.933 63.7942L223.166 72.5774L206.219 73.4504L193.933 63.7942ZM259.797 83.7263L242.97 84.5603L230.524 74.8233L235.377 76.2937L259.797 83.7263ZM279.72 95.6703L267.275 85.9333L296.667 94.7972L293.278 94.9719L279.72 95.6703ZM363.832 193.304L360.309 200.812L361.422 190.377L363.832 193.304ZM336.487 215.188L349.827 217.079L351.499 217.33L329.044 230.201L336.487 215.188ZM304.476 248.398L318.095 250.33L324.916 266.005L304.476 248.398ZM306.821 265.794L302.508 250.496L323.661 268.667L318.725 267.754L306.821 265.794ZM254.039 326.835L270.781 321.256L262.736 325.862L254.039 326.835ZM251.915 328.453L262.406 327.294L263.439 333.321L247.686 328.901L251.915 328.453ZM247.813 344.368L248.933 343.738L260.901 336.929L249.007 350.077L247.813 344.368ZM257.671 337.185L246.823 343.364L237.608 344.373L234.935 344.712L257.791 337.146L257.671 337.185ZM135.866 286.671L132.133 268.268L151.119 294.036L145.757 291.406L135.866 286.671ZM135.339 287.902L150.948 295.55L123.578 299.018L135.339 287.902ZM59.3768 275.231L63.2556 279.006L65.195 280.894L67.1228 284.376L70.073 289.779L60.9566 277.236L59.3768 275.231ZM48.6333 250.758L49.2629 251.879L55.0463 262.325L54.3935 264.393L53.7406 266.461L49.0232 251.957L48.6333 250.758ZM46.9859 241.618L54.4534 212.415L58.2277 230.539L46.9859 241.618ZM81.5189 163.185L91.7245 168.481L67.981 172.095L74.3095 167.915L81.5189 163.185ZM90.5623 158.388L93.8012 167.938L93.2856 167.575L82.3247 161.995L86.229 145.88L90.5623 158.388ZM149.718 70.4875L161.159 75.9122L159.921 76.1822L134.578 80.5815L138.383 78.0183L149.718 70.4875ZM153.979 54.654L161.209 74.4377L157.118 72.4547L150.404 69.3365L152.911 59.1106L153.979 54.654ZM163.807 73.4601L156.655 53.9161L168.465 63.3296L163.807 73.4601ZM184.288 74.4863L166.544 75.3535L189.111 63.6395L184.288 74.4863ZM206.587 83.1392L201.625 85.8136L204.503 79.1778L206.408 74.8469L223.994 73.8988L206.587 83.1392ZM225.702 74.6686L222.62 81.9008L221.039 85.5963L203.333 86.5834L204.214 86.0317L225.702 74.6686ZM241.807 85.4686L238.279 93.7738L237.102 96.6751L234.949 91.2782L228.807 75.2493L232.572 78.2663L241.807 85.4686ZM275.77 107.161L279.744 97.7831L280.029 97.0278L295.939 96.2269L275.77 107.161ZM308.752 115.653L301.431 130.228L301.428 114.324L301.382 98.6981L303.226 102.737L308.752 115.653ZM302.34 131.391L309.942 116.459L325.071 118.961L302.34 131.391ZM325.5 120.279L318.056 135.292L302.807 132.829L316.295 125.394L325.5 120.279ZM336.371 138.216L329.708 122.622L329.001 121.261L351.062 140.595L336.371 138.216ZM351.29 142.111L328.837 154.584L331.183 149.977L336.32 139.69L337.276 139.777L351.29 142.111ZM354.879 174.744L354.93 173.269L355.869 164.746L358.198 167.832L354.879 174.744ZM355.203 190.411L356.166 195.002L357.867 202.269L356.129 200.184L355.203 190.411ZM329.578 195.167L338.098 196.505L344.35 197.387L348.935 208.223L351.72 214.342L336.628 201.357L329.578 195.167ZM327.966 197.547L335.298 214.382L328.015 229.077L327.966 197.547ZM310.16 228.788L304.79 216.352L302.712 211.593L325.052 230.969L314.739 229.419L310.16 228.788ZM304.96 264.146L305.502 266.223L292.092 279.598L300.8 249.726L304.96 264.146ZM285.953 263.17L297.638 251.417L299.445 249.636L290.617 279.547L285.953 263.17ZM275.775 297.895L289.186 284.519L280.52 314.113L275.775 297.895ZM246.042 335.665L244.929 329.798L245.169 329.72L260.724 333.939L246.042 335.665ZM240.533 331.36L231.29 341.656L228.558 344.666L227.325 338.837L240.533 331.36ZM234.261 333.267L226.335 337.833L225.937 337.831L217.639 338.806L234.261 333.267ZM206.161 338.563L182.981 319.461L201.176 322.423L206.161 338.563ZM159.82 314.269L154.758 297.89L178.135 317.193L159.82 314.269ZM129.264 273.708L130.737 268.457L134.469 286.86L122.91 297.777L129.264 273.708ZM121.561 296.89L117.868 278.607L128.504 268.52L129.508 267.531L123.732 288.894L121.561 296.89ZM93.6642 301.59L103.699 292.096L118.793 299.381L119.11 299.543L92.0192 303.053L93.6642 301.59ZM56.6605 270.548L64.6509 273.516L66.1615 274.085L66.833 274.927L65.4464 279.222L59.1935 273.038L56.6605 270.548ZM74.5593 237.554L59.6242 230.35L55.8499 212.226L74.5593 237.554ZM68.0796 196.849L83.4523 204.176L56.5173 208.165L59.3667 205.515L68.0796 196.849ZM114.776 139.511L99.5959 149.485L88.3173 143.742L113.778 139.703L114.776 139.511ZM115.585 137.922L89.2849 142.235L104.306 132.18L115.585 137.922ZM116.588 136.933L104.992 131.029L108.935 115.034L116.588 136.933ZM129.921 85.0119L126.344 100.093L125.583 100.606L111.724 109.752L127.345 88.5009L129.921 85.0119ZM198.679 85.3138L185.64 74.9745L190.504 63.849L192.265 68.4458L198.679 85.3138ZM200.192 85.4842L192.177 64.1003L205.177 74.3197L200.192 85.4842ZM235.429 96.4237L230.436 92.481L222.271 86.1235L227.135 74.9979L232.652 89.109L235.429 96.4237ZM238.414 97.0434L243.159 85.9568L260.744 85.0087L242.936 94.6448L238.414 97.0434ZM272.338 107.615L259.141 97.1944L263.846 85.988L267.72 95.8618L272.338 107.615ZM274.011 107.866L269.783 97.3118L265.519 86.2394L278.677 96.5396L274.011 107.866ZM299.96 129.779L292.551 112.705L297.808 102.379L300.03 98.2099L299.968 112.28L299.96 129.779ZM327.929 153.421L327.906 129.305L327.919 122.011L335.13 138.884L327.929 153.421ZM354.841 179.925L354.895 178.052L357.89 171.776L356.778 182.211L354.841 179.925ZM357.92 184.093L358.348 180.11L358.323 188.999L357.92 184.093ZM354.863 182.437L354.905 182.158L355.219 182.718L356.523 184.282L357.41 193.935L354.863 182.437ZM329.389 193.771L351.884 181.02L344.44 196.033L333.968 194.402L329.389 193.771ZM301.516 222.586L301.549 212.502L308.919 229.456L301.518 244.191L301.516 222.586ZM256.441 292.652L268.848 280.266L269.732 279.315L271.005 279.564L287.687 282.356L256.441 292.652ZM256.87 293.97L287.996 283.714L274.786 296.891L256.87 293.97ZM245.713 337.098L252.096 336.347L257.721 335.71L234.707 343.196L245.713 337.098ZM243.371 330.304L243.611 330.226L243.842 331.344L244.685 335.974L231.596 343.412L236.86 337.591L243.371 330.304ZM202.71 319.804L201.505 320.991L183.47 318.109L214.596 307.852L202.71 319.804ZM149.747 274.335L160.624 264.17L153.252 291.222L152.214 285.993L149.747 274.335ZM133.308 265.765L160.839 261.98L148.878 273.293L145.701 271.675L133.308 265.765ZM100.412 272.62L119.32 298.15L104.187 290.745L100.412 272.62ZM99.016 272.81L102.829 291.054L91.3506 301.812L99.016 272.81ZM81.3184 294.604L78.4288 291.833L76.0692 287.431L81.3184 294.604ZM67.8192 276.329L72.8876 291.912L66.5136 280.465L67.8192 276.329ZM64.2278 271.4L64.7015 272.041L54.6431 268.42L56.1135 263.568L64.2278 271.4ZM59.2155 264.547L56.3259 261.776L53.9663 257.374L59.2155 264.547ZM74.3888 239.067L66.768 240.088L47.6545 242.859L59.136 231.702L74.3888 239.067ZM75.524 236.445L56.8146 211.117L71.7108 218.201L75.524 236.445ZM83.7613 205.533L72.199 216.849L56.8653 209.642L62.5321 208.727L83.7613 205.533ZM68.5678 195.497L64.7546 177.253L83.6228 202.662L68.5678 195.497ZM94.8858 166.79L87.3526 144.851L98.79 150.675L94.8858 166.79ZM121.616 119.79L117.673 135.785L110.059 114.005L121.616 119.79ZM128.124 101.9L138.372 106.917L111.871 111.428L127.012 101.334L128.124 101.9ZM190.026 80.308L196.803 85.6588L167.53 76.7559L184.478 75.8828L190.026 80.308ZM221.228 86.9928L233.712 96.8497L204.281 87.8658L221.228 86.9928ZM259.937 91.8987L257.828 96.8261L240.084 97.6933L262.453 85.7785L259.937 91.8987ZM270.621 108.04L241.07 99.0956L258.137 98.1836L268.997 106.713L270.621 108.04ZM326.447 121.562L326.458 152.972L319.207 135.978L326.447 121.562ZM344.356 158.284L340.175 157.656L329.305 156.022L351.719 143.43L347.025 153.042L344.356 158.284ZM352.103 183.732L352.136 211.953L345.63 196.839L352.103 183.732ZM325.501 229.497L303.041 210.161L314.31 211.797L318.092 212.423L318.443 213.502L325.501 229.497ZM270.551 259.829L266.889 259.165L298.255 248.831L284.844 262.206L270.551 259.829ZM266.281 260.556L284.596 263.479L289.338 280.096L266.281 260.556ZM259.673 314.001L267.636 315.254L276.037 316.631L247.667 325.991L259.673 314.001ZM196.58 302.18L192.687 289.397L191.518 285.801L214.775 305.143L211.589 304.721L196.58 302.18ZM193.56 306.344L196.251 303.613L209.39 305.702L214.287 306.495L183.161 316.751L193.56 306.344ZM181.971 315.946L190.199 286.23L194.365 299.852L195.142 302.648L186.869 311.039L181.971 315.946ZM116.522 277.322L101.548 269.998L128.72 266.329L116.998 277.564L116.522 277.322ZM101.377 271.511L116.471 278.796L120.165 297.079L101.377 271.511ZM86.3474 282.762L97.787 271.884L90.1607 301.006L86.3474 282.762ZM74.7424 278.054L84.9899 283.071L88.3382 299.478L71.4455 276.475L74.7424 278.054ZM62.848 252.895L66.1963 269.302L49.3036 246.299L62.848 252.895ZM74.8177 240.386L74.497 240.623L63.2163 251.582L48.0834 244.177L68.4735 241.256L74.8177 240.386ZM96.5249 166.124L100.264 150.725L114.003 141.618L114.884 141.066L111.058 146.419L96.5249 166.124ZM122.302 118.639L111.818 113.301L111.024 112.896L137.443 108.545L122.302 118.639ZM142.099 104.114L145.758 88.8743L160.458 79.0561L142.099 104.114ZM298.878 130.529L296.501 128.518L276.301 110.832L291.31 113.373L298.446 129.609L298.878 130.529ZM302.997 134.226L317.967 136.647L325.376 153.721L302.997 134.226ZM351.556 176.752L329.494 157.418L344.306 159.759L351.556 176.752ZM328.921 192.332L335.433 179.345L336.365 177.319L349.504 179.408L351.455 179.701L350.214 180.37L328.921 192.332ZM269.672 254.681L279.832 244.351L285.446 245.309L297.946 247.473L266.46 257.847L269.672 254.681ZM258.889 279.396L263.959 261.974L268.623 278.351L255.371 291.807L258.889 279.396ZM245.354 326.213L253.9 296.659L258.684 312.997L249.971 321.663L245.354 326.213ZM243.999 326.124L239.135 309.945L252.426 296.608L247.518 313.713L243.999 326.124ZM227.175 326.559L239.517 328.642L211.147 338.002L223.153 326.012L227.175 326.559ZM220.565 320.093L222.044 325.047L208.834 338.224L217.179 308.868L220.565 320.093ZM175.553 299.476L176.156 298.883L188.845 286.14L180.496 315.895L175.553 299.476ZM187.655 285.334L174.483 298.631L156.408 295.63L187.655 285.334ZM70.2253 274.354L97.1184 270.643L85.4781 281.719L70.9806 274.638L70.2253 274.354ZM75.4863 241.626L67.8989 270.869L64.2055 252.586L70.6684 246.375L75.4863 241.626ZM112.616 156.914L97.8766 166.612L116.356 141.515L112.616 156.914ZM137.671 110.061L131.35 118.745L119.312 135.119L122.971 119.879L137.671 110.061ZM161.93 79.5053L158.271 94.7453L143.532 104.444L159.153 83.1921L161.93 79.5053ZM179.05 87.7218L166.724 77.9458L196.156 86.9296L179.05 87.7218ZM196.983 88.2511L186.259 93.9926L174.255 100.283L179.239 89.1183L181.87 89.0577L196.983 88.2511ZM214.796 99.8209L209.89 111.225L201.758 89.4817L206.275 93.1818L214.796 99.8209ZM298.429 132L297.194 131.872L283.459 129.579L275.852 112.304L298.429 132ZM324.927 155.193L310.116 152.853L308.038 148.094L302.547 135.697L324.927 155.193ZM336.454 175.965L329.243 159.091L329.045 158.89L351.227 178.185L341.193 176.677L336.454 175.965ZM328.013 191.17L328.002 159.759L329.1 162.318L335.214 176.633L332.665 181.836L328.013 191.17ZM302.384 207.326L305.296 201.607L310.068 192.235L325.118 194.497L304.745 206.028L302.384 207.326ZM276.195 223.797L299.169 210.89L291.525 226.101L276.195 223.797ZM277.658 225.442L291.435 227.455L298.296 243.25L277.658 225.442ZM265.39 257.002L273.981 226.77L278.762 243.507L266.154 256.09L265.39 257.002ZM253.857 291.636L249.073 275.298L262.445 261.803L257.373 279.624L253.857 291.636ZM219.621 307.411L237.816 310.373L242.681 326.552L221.087 308.657L219.621 307.411ZM223.482 324.579L218.579 308.28L241.557 327.581L223.482 324.579ZM171.659 281.391L187.226 284.016L155.98 294.311L169.151 281.014L171.659 281.391ZM160.53 260.622L132.84 264.327L144.84 253.133L160.53 260.622ZM132.171 263.086L135.818 249.44L140.16 233.448L141.081 238.318L143.812 252.01L132.573 262.69L132.171 263.086ZM113.367 256.213L109.635 237.81L128.581 263.458L113.367 256.213ZM112.84 257.444L128.411 264.972L101.119 268.679L112.84 257.444ZM85.7787 207.66L89.5111 226.063L86.1793 229.268L78.1495 237.181L81.5958 223.734L85.7787 207.66ZM98.6554 191.013L87.213 202.29L94.8841 172.49L98.6554 191.013ZM96.2806 172.301L104.767 183.723L115.347 197.911L100.052 190.824L97.2437 176.892L96.2806 172.301ZM136.153 126.991L147.71 132.775L126.918 136.091L120.892 137.124L124.257 134.836L136.153 126.991ZM139.143 110.51L137.089 118.866L135.484 125.75L129.356 129.732L120.784 135.568L139.143 110.51ZM163.243 79.8736L170.709 99.9779L163.639 96.5781L159.746 94.7959L160.362 92.2094L163.243 79.8736ZM173.346 99.1202L165.958 79.2556L177.926 88.75L173.346 99.1202ZM198.692 89.0209L193.827 100.146L177.399 100.983L175.963 101.053L195.291 90.7898L198.692 89.0209ZM221.127 106.245L211.323 111.555L216.148 100.309L233.893 99.4419L221.127 106.245ZM247.078 122.458L238.547 100.712L251.864 111.093L247.078 122.458ZM248.837 121.753L250.784 117.144L253.216 111.581L269.246 110.741L248.837 121.753ZM282.218 130.248L280.643 133.146L274.658 144.901L274.707 127.124L274.65 113.092L277.826 120.41L282.218 130.248ZM298.657 133.516L275.725 146.145L281.024 135.54L283.249 130.973L284.244 131.179L298.657 133.516ZM308.875 153.521L301.434 168.136L301.466 136.447L304.17 142.725L308.875 153.521ZM302.709 173.686L325.049 193.061L310.118 190.76L302.709 173.686ZM275.69 227.54L297.16 245.873L280.2 243.039L275.69 227.54ZM220.11 306.059L251.356 295.764L238.145 308.941L221.105 306.266L220.11 306.059ZM210.875 287.855L215.818 304.274L192.641 284.773L210.875 287.855ZM130.981 262.28L127.21 243.757L138.931 232.522L137.045 239.763L130.981 262.28ZM80.5284 260.796L73.3435 267.64L69.0889 271.675L76.7152 242.552L80.5284 260.796ZM90.3804 227.106L105.912 234.514L103.119 234.892L78.818 238.422L88.2921 229.243L90.3804 227.106ZM115.176 199.424L87.8816 203.53L99.5248 192.056L115.176 199.424ZM97.2453 171.192L112.54 178.279L116.311 196.802L99.6136 174.398L97.2453 171.192ZM123.61 163.412L99.507 167.142L113.285 158.155L123.61 163.412ZM125.687 162.869L114.091 156.965L117.956 140.73L125.687 162.869ZM119.079 139.702L129.087 144.797L130.676 145.606L128.167 156.23L126.81 161.841L122.204 148.494L119.079 139.702ZM146.742 134.283L140.213 138.66L131.482 144.416L120.044 138.592L124.075 137.944L146.742 134.283ZM140.743 109.725L148.675 131.666L137.753 126.205L136.839 125.84L139.099 116.489L140.743 109.725ZM158.94 95.9858L170.539 101.491L162.756 102.83L143.799 106.08L149.246 102.452L158.94 95.9858ZM176.911 102.335L194.136 101.504L206.501 111.4L176.911 102.335ZM273.306 144.413L265.777 127.377L271.438 116.258L273.299 112.604L273.301 123.207L273.306 144.413ZM293.748 145.319L291.402 149.926L283.997 148.756L276.154 147.463L299.086 134.835L293.748 145.319ZM325.155 156.709L302.381 169.418L310.065 154.327L314.683 155.078L325.155 156.709ZM322.283 167.849L326.531 159.31L326.541 190.72L319.21 173.886L322.283 167.849ZM302.999 172.133L317.93 174.434L325.379 191.629L302.999 172.133ZM301.507 174.474L308.878 191.429L301.476 206.163L301.507 174.474ZM283.411 207.267L298.701 209.451L275.646 222.517L283.411 207.267ZM248.084 274.295L229.889 271.332L261.375 260.958L257.399 265.035L248.084 274.295ZM229.401 272.684L247.755 275.727L252.578 292.185L229.401 272.684ZM251.535 293.054L233.22 290.131L229.018 275.989L228.397 273.673L239.015 282.679L251.535 293.054ZM212.313 287.387L221.308 278.365L225.604 274.051L217.256 303.806L214.374 294.537L212.313 287.387ZM224.495 273.086L222.728 274.987L211.243 286.542L193.168 283.541L224.495 273.086ZM154.147 250.371L160.701 259.109L145.328 251.782L141.557 233.259L154.147 250.371ZM108.238 237.999L111.971 256.402L100.45 267.439L103.196 257.135L108.238 237.999ZM99.2213 266.513L98.7203 264.158L95.5279 248.23L104.681 239.288L107.048 237.193L100.82 260.426L99.2213 266.513ZM78.1117 242.363L96.86 267.811L81.8859 260.487L78.1117 242.363ZM106.082 233L90.9076 225.874L87.1752 207.471L106.082 233ZM95.5281 209.924L103.234 213.647L106.927 231.93L89.5999 208.406L88.1399 206.362L95.5281 209.924ZM115.485 200.782L103.722 212.295L102.134 211.487L88.1905 204.888L100.082 203.141L115.485 200.782ZM169.73 103.08L163.722 107.022L154.35 113.252L142.831 107.587L168.214 103.308L169.73 103.08ZM205.854 112.671L188.628 113.502L176.144 103.645L201.718 111.365L205.854 112.671ZM215.743 112.105L212.992 112.204L235.562 100.092L230.856 111.298L215.743 112.105ZM232.208 111.786L236.995 100.421L245.406 122.207L232.208 111.786ZM318.02 173.08L302.93 170.698L325.584 158.028L324.613 159.934L318.02 173.08ZM300.124 205.675L292.91 189.2L292.634 188.759L297.205 179.585L300.036 174.025L300.112 190.966L300.124 205.675ZM259.015 240.254L272.627 226.681L263.877 256.831L259.015 240.254ZM232.972 291.404L250.927 294.445L219.801 304.701L232.972 291.404ZM227.079 274.102L227.118 274.222L231.902 290.559L228.088 294.318L218.611 303.896L222.171 291.206L227.079 274.102ZM205.992 268.766L224.067 271.768L192.701 282.102L205.992 268.766ZM183.856 265.097L187.437 276.922L188.837 281.636L165.382 262.092L183.856 265.097ZM159.29 239.288L170.248 228.964L162.753 256.453L159.869 241.883L159.29 239.288ZM157.894 239.477L161.665 258L142.521 232.15L157.894 239.477ZM125.493 233.182L138.143 231.321L126.341 242.715L110.65 235.226L125.493 233.182ZM113.028 176.927L98.5278 170.244L123.988 166.205L113.028 176.927ZM169.958 104.596L159.571 118.711L151.398 129.852L155.018 114.492L161.146 110.511L169.958 104.596ZM250.294 124.195L271.824 112.554L264.587 126.572L250.294 124.195ZM294.484 164.697L276.343 148.86L291.313 151.281L298.92 168.556L294.484 164.697ZM291.444 187.953L288.099 187.451L276.114 185.649L299.128 172.862L294.275 182.394L291.444 187.953ZM274.699 221.235L274.773 205.57L274.692 189.426L282.221 206.461L278.258 214.245L274.699 221.235ZM239.522 234.93L252.894 221.435L271.128 224.517L247.313 232.395L239.522 234.93ZM239.831 236.287L271.437 225.875L258.065 239.37L239.831 236.287ZM243.201 255.206L238.3 238.508L261.554 258.249L248.377 256.041L243.201 255.206ZM197.356 250.367L184.104 263.823L179.486 263.072L165.871 260.741L197.356 250.367ZM170.463 226.773L158.421 238.245L143.684 231.242L142.692 230.636L170.463 226.773ZM122.182 222.595L137.834 229.963L110.341 233.869L122.182 222.595ZM125.58 166.615L117.747 196.732L113.937 178.09L125.58 166.615ZM147.867 138.556L144.741 151.767L129.921 161.624L148.442 136.248L147.867 138.556ZM150.081 135.583L154.378 147.572L158.13 157.884L146.216 151.818L149.177 139.323L150.081 135.583ZM171.43 105.046L167.69 120.444L152.75 130.34L164.344 114.64L171.43 105.046ZM187.465 114.41L186.654 116.397L182.963 125.02L175.458 104.796L185.325 112.72L187.465 114.41ZM271.694 146.793L256.565 144.291L248.919 126.896L264.683 140.723L271.694 146.793ZM206.24 267.492L201.22 250.834L224.555 270.416L212.252 268.453L206.24 267.492ZM178.694 245.966L192.27 248.178L197.047 249.01L165.442 259.422L178.694 245.966ZM109.673 232.628L117.503 202.909L121.274 221.432L111.198 231.204L109.673 232.628ZM130.619 186.183L123.755 192.79L118.937 197.538L126.89 167.382L130.619 186.183ZM203.199 115.92L183.911 126.302L186.586 120.263L188.817 114.898L206.801 113.953L203.199 115.92ZM205.227 122.153L203.564 126.007L185.58 126.952L208.509 114.723L205.227 122.153ZM213.212 114.917L242.922 123.942L225.696 124.773L213.212 114.917ZM283.381 167.645L275.933 150.451L298.471 170.028L283.381 167.645ZM281.266 173.37L283.33 169.12L298.66 171.424L275.686 184.331L281.266 173.37ZM264.667 203.025L255.35 201.682L249.059 200.679L272.393 187.655L266.57 199.093L264.667 203.025ZM253.223 220.002L248.673 204.383L270.342 222.917L262.46 221.504L253.223 220.002ZM241.882 255.634L228.39 269.168L237.02 239.057L241.882 255.634ZM202.343 249.806L220.736 252.969L225.717 269.508L206.779 253.665L202.343 249.806ZM179.023 244.534L173.964 227.755L197.536 247.658L196.103 247.329L179.023 244.534ZM154.305 217.846L155.297 218.451L170.154 225.415L142.263 229.318L154.305 217.846ZM141.594 228.077L141.555 227.957L149.586 198.041L151.512 207.223L153.435 216.803L152.995 217.079L141.594 228.077ZM147.299 194.676L119.605 198.779L131.488 187.226L144.319 193.259L147.299 194.676ZM156.014 158.307L131.432 162.193L145.41 153.008L156.014 158.307ZM163.041 140.381L160.571 151.125L159.214 156.736L151.205 134.554L161.809 139.853L163.041 140.381ZM152.169 133.445L179.347 128.98L163.847 139.191L156.42 135.509L152.169 133.445ZM221.584 136.582L222.315 134.754L226.044 126.251L242.314 125.333L221.584 136.582ZM255.205 144.999L250.999 153.259L247.683 159.772L247.718 127.684L249.874 132.683L255.205 144.999ZM256.395 145.804L271.883 148.189L248.591 160.935L256.395 145.804ZM264.668 164.719L250.135 162.421L249.179 162.334L272.312 149.508L264.668 164.719ZM274.738 183.048L274.72 169.137L274.731 151.24L282.14 168.314L274.738 183.048ZM250.642 202.285L264.578 204.38L271.438 220.175L250.642 202.285ZM246.965 203.613L251.905 220.431L238.332 234.124L246.965 203.613ZM224.343 250.205L235.507 238.886L227.036 269.079L222.054 252.54L224.343 250.205ZM176.769 242.086L177.705 244.962L165.375 257.588L172.954 229.542L176.769 242.086ZM135.725 207.586L119.914 200.136L147.728 195.994L135.725 207.586ZM148.396 197.235L140.404 227.271L136.594 208.629L148.396 197.235ZM145.232 172.02L138.239 168.86L130.533 165.136L156.392 161.1L145.232 172.02ZM218.153 137.035L204.916 126.495L209.783 114.971L218.153 137.035ZM273.267 182.599L269.465 173.762L265.858 165.525L273.259 150.79L273.275 154.099L273.267 182.599ZM256.356 183.991L259.859 184.574L271.844 186.376L248.63 199.361L256.356 183.991ZM170.324 223.902L154.793 216.494L151.022 197.971L170.324 223.902ZM144.743 173.372L146.244 180.836L148.434 192.053L129.131 166.123L135.05 168.836L144.743 173.372ZM180.927 130.984L179.158 138.585L177.265 146.623L162.205 156.558L169.854 146.25L180.927 130.984ZM179.575 130.496L160.854 156.07L164.515 140.431L179.575 130.496ZM240.485 135.604L237.573 141.322L223.041 139.024L244.772 127.185L240.485 135.604ZM271.655 184.979L256.565 182.597L250.997 169.961L248.919 165.202L254.503 170.146L271.655 184.979ZM249.248 163.769L264.578 166.073L272.104 183.508L249.248 163.769ZM242.614 204.499L230.929 216.252L215.083 213.585L212.695 213.169L222.524 209.972L244.42 202.718L242.614 204.499ZM237.299 211.794L245.61 203.524L236.938 233.914L232.038 217.217L237.299 211.794ZM215.774 233.64L234.008 236.723L202.402 247.135L215.774 233.64ZM180.898 227.885L193.519 230.01L198.188 245.59L198.539 246.669L175.006 226.886L180.898 227.885ZM149.83 191.864L149.791 191.744L146.101 173.063L157.984 161.51L149.83 191.864ZM159.174 162.316L160.176 167.027L162.942 181.237L151.982 191.96L151.059 192.79L157.41 169.119L159.174 162.316ZM198.323 139.641L187.742 131.154L185.761 129.545L215.749 138.612L198.323 139.641ZM247.683 198.078L247.712 166.788L247.717 165.99L255.325 183.266L252.455 188.706L247.683 198.078ZM201.332 246.291L209.765 215.978L214.824 232.757L211.01 236.516L201.332 246.291ZM194.957 229.542L207.406 216.878L208.371 215.769L199.858 246.24L194.957 229.542ZM168.956 203.802L179.994 193.32L172.338 221.126L169.994 209.032L168.956 203.802ZM180.21 191.129L168.087 202.76L155.454 196.928L152.157 195.349L180.21 191.129ZM163.931 182.241L173.783 186.857L179.901 189.771L151.848 193.991L155.983 189.996L163.931 182.241ZM160.609 162.246L180.071 188.258L176.178 186.476L164.339 181.048L161.224 165.36L160.609 162.246ZM189.979 152.296L183.823 149.262L178.74 146.673L182.279 131.472L189.979 152.296ZM192.578 151.318L184.994 130.855L197.28 140.511L192.578 151.318ZM194.091 151.489L198.632 140.999L215.061 140.162L194.091 151.489ZM240.101 160.912L229.351 159.24L227.351 154.721L221.666 141.725L244.72 161.664L240.101 160.912ZM217.366 206.746L225.719 198.197L244.072 201.241L212.266 211.851L217.366 206.746ZM211.044 215.429L220.75 223.672L234.496 235.371L216.143 232.328L211.044 215.429ZM161.535 161.018L177.306 168.347L178.422 173.816L181.036 187.149L171.443 174.363L161.535 161.018ZM188.817 153.204L163.836 157.088L177.934 147.863L188.817 153.204ZM228.072 159.788L220.592 174.283L220.349 174.76L220.464 142.513L224.267 151.35L228.072 159.788ZM231.182 170.574L221.416 176.003L224.127 170.482L229.261 160.594L244.909 163.06L231.182 170.574ZM245.338 164.379L237.492 179.787L232.595 178.994L221.845 177.322L229.169 173.349L245.338 164.379ZM226.048 196.764L221.924 182.863L221.459 181.026L243.206 199.799L226.764 196.929L226.048 196.764ZM219.751 180.256L224.73 197.193L211.196 211.006L219.751 180.256ZM206.872 213.605L175.185 224.177L188.518 210.562L206.872 213.605ZM187.409 209.597L174.96 222.262L182.701 193.897L187.409 209.597ZM177.795 166.996L162.856 160.19L189.195 155.997L177.795 166.996ZM223.308 178.967L237.403 181.142L244.422 197.018L223.308 178.967ZM209.682 210.836L208.516 206.841L204.743 194.018L218.276 180.205L211.278 205.147L209.682 210.836ZM178.984 167.801L189.783 157.397L182.084 185.482L178.664 168.038L178.984 167.801ZM210.2 156.19L195.428 153.97L217.518 142.013L210.2 156.19ZM188.728 209.168L183.71 192.111L207.36 212.254L201.786 211.416L188.728 209.168ZM195.776 155.447L210.03 157.704L217.088 173.7L195.776 155.447ZM184.812 188.571L198.346 174.759L216.738 177.922L208.866 180.615L184.812 188.571ZM197.237 173.794L184.707 186.618L192.609 157.936L197.237 173.794ZM201.66 173.946L198.555 173.365L193.889 157.387L215.953 176.322L201.66 173.946ZM184.753 191.242L194.985 192.951L203.385 194.327L208.403 211.384L184.753 191.242ZM217.167 179.241L213.674 182.763L203.634 193.053L196.468 191.805L185.241 189.89L191.594 187.824L217.167 179.241ZM218.993 142.064L219.036 174.391L211.27 157.035L212.037 155.725L218.993 142.064ZM243.624 191.711L238.643 180.473L246.285 165.661L246.25 197.749L243.624 191.711ZM193.848 228.578L175.494 225.534L207.181 214.963L202.804 219.435L193.848 228.578ZM171.289 222.793L151.986 196.862L167.599 204.111L168.829 210.338L171.289 222.793ZM230.719 217.646L235.659 234.463L212.207 214.521L222.319 216.269L230.719 217.646ZM238.763 142.128L243.616 132.597L246.285 127.355L246.212 159.323L242.919 151.645L238.763 142.128ZM245.13 160.072L222.115 140.253L237.484 142.677L244.149 157.873L245.13 160.072ZM234.437 238.042L221.065 251.537L202.87 248.574L206.787 247.167L234.437 238.042ZM186.408 128.274L203.753 127.404L216.435 137.461L188.754 128.969L186.408 128.274ZM147.469 193.162L131.977 185.874L128.325 167.313L145.338 190.277L147.469 193.162ZM180.246 126.037L169.165 120.495L172.662 105.573L180.246 126.037ZM138.969 227.341L119.864 201.611L134.76 208.695L135.237 208.938L137.199 218.638L138.969 227.341ZM215.577 118.521L224.692 125.763L220.151 136.253L219.825 137.287L216.97 129.732L211.456 115.223L215.577 118.521ZM155.061 130.517L168.359 121.685L180.195 127.511L152.978 131.857L155.061 130.517ZM137.333 227.608L138.004 228.45L122.67 221.243L118.899 202.72L137.333 227.608ZM265.896 203.951L265.857 203.831L273.34 188.938L273.267 220.905L265.896 203.951ZM265.489 139.533L249.368 125.424L264.497 127.926L272.104 145.201L265.489 139.533ZM153.663 114.403L149.798 130.638L141.866 108.697L143.098 109.224L153.663 114.403ZM104.591 213.338L116.313 202.103L108.363 231.861L105.902 219.407L104.591 213.338ZM188.054 274.335L185.174 264.668L187.664 262.135L198.546 251.173L190.156 281.207L188.054 274.335ZM191.631 281.257L197.607 259.696L199.901 251.263L204.922 267.921L203.196 269.543L191.631 281.257ZM242.871 256.638L260.946 259.64L229.58 269.974L231.066 268.431L242.871 256.638ZM257.696 240.682L262.597 257.38L258.002 253.44L239.343 237.639L248.301 239.099L257.696 240.682ZM298.962 206.583L276.304 187.046L291.393 189.428L292.728 192.308L298.962 206.583ZM231.046 112.695L243.689 122.633L236.49 120.467L213.979 113.607L230.248 112.689L231.046 112.695ZM128.45 161.175L132.15 145.656L146.97 135.799L130.544 158.241L128.45 161.175ZM94.5387 247.226L84.7678 242.451L79.127 239.78L106.221 235.871L97.469 244.417L94.5387 247.226ZM79.0764 241.254L90.0792 246.556L94.1314 248.419L97.8248 266.702L82.431 245.862L79.0764 241.254ZM300.033 136.117L300.082 167.648L299.141 165.568L292.592 150.732L296.313 143.425L300.033 136.117ZM125.852 244.066L129.546 262.349L110.6 236.701L125.852 244.066ZM165.857 268.035L164.379 263.082L166.795 265.212L187.834 282.625L169.36 279.62L165.857 268.035ZM294.173 207.346L283.461 205.793L280.208 198.235L275.854 188.517L285.084 196.517L298.512 208.055L294.173 207.346ZM200.085 89.2303L208.338 110.935L195.14 100.515L196.68 97.0979L200.085 89.2303ZM80.5948 262.63L81.3978 261.839L96.6896 269.325L69.8773 272.876L80.5948 262.63ZM76.9205 236.256L73.1073 218.012L84.5887 206.855L82.2113 215.846L76.9205 236.256ZM155.793 292.516L163.33 264.748L167.148 276.894L168.042 280.049L167.76 280.406L155.793 292.516ZM240.384 100.247L269.935 109.191L252.868 110.103L245.773 104.591L240.384 100.247ZM203.514 89.1756L232.906 98.0396L221.701 98.6356L215.959 98.9126L209.062 93.6007L203.514 89.1756ZM300.078 212.052L300.085 243.861L292.715 226.907L299.511 213.164L300.078 212.052ZM311.612 210.024L302.972 208.725L322.545 197.587L325.586 195.935L318.143 210.948L311.612 210.024ZM132.645 83.1982L144.283 88.8237L140.46 104.78L134.444 87.9149L132.645 83.1982ZM136.329 97.3756L139.375 105.928L127.698 100.183L131.522 84.2264L136.329 97.3756ZM85.5971 199.767L82.1318 183L88.4358 176.708L93.6552 171.564L85.8642 201.403L85.5971 199.767ZM80.7353 183.189L81.7763 188.02L84.5875 201.553L65.7193 176.144L80.7353 183.189ZM81.2235 181.837L66.9628 175.077L92.0637 171.154L90.6975 172.659L81.2235 181.837ZM179.178 316.324L155.92 296.981L174.115 299.944L179.178 316.324ZM207.479 338.135L202.923 323.313L202.495 321.994L213.616 310.954L215.786 308.658L212.552 320.314L207.479 338.135ZM274.415 314.905L260.003 312.568L255.219 296.23L278.077 315.57L274.415 314.905ZM270.22 277.964L270.1 278.003L265.238 261.425L288.295 280.965L270.22 277.964ZM325.291 225.59L319.333 211.754L326.615 197.059L326.664 228.589L325.291 225.59ZM352.058 146.103L352.092 174.325L346.799 162.129L345.546 159.09L347.892 154.483L352.058 146.103ZM293.826 107.253L291.361 111.899L277.227 109.603L298.517 98.0395L293.826 107.253ZM137.662 83.9523L133.73 82.0501L160.23 77.5397L145.089 87.6337L137.662 83.9523ZM136.116 268.695L148.39 274.644L149.659 280.991L152.083 292.927L133.098 267.159L136.116 268.695ZM269.375 306.338L256.261 295.361L274.456 298.324L279.201 314.542L269.375 306.338ZM75.4147 295.199L70.6973 280.695L74.1991 286.979L77.1103 292.261L75.8046 296.397L75.4147 295.199ZM325.241 232.365L302.465 245.473L309.624 231.215L310.109 230.262L324.006 232.237L325.241 232.365ZM351.31 215.934L336.538 213.713L329.168 196.759L343.19 208.899L351.31 215.934ZM360.199 188.654L359.852 192.478L359.796 183.748L360.199 188.654ZM64.3962 286.588L59.5572 277.823L64.9652 285.078L70.1754 292.131L69.3841 291.328L64.3962 286.588ZM189.624 326.843L205.037 339.592L186.842 336.629L181.978 320.45L189.624 326.843ZM227.278 345.215L211.286 340.873L214.358 340.536L226.006 339.266L226.891 343.617L227.278 345.215ZM283.519 312.739L281.994 314.163L290.66 284.57L295.324 300.947L283.519 312.739ZM320.167 244.885L318.184 248.976L317.627 248.892L303.014 246.753L325.709 233.804L320.167 244.885ZM357.544 164.599L356.003 162.714L355.078 152.941L357.742 164.799L357.544 164.599ZM44.5695 250.489L45.7163 246.273L49.771 258.739L50.8236 261.975L44.5695 250.489ZM112.153 307.903L107.779 311.977L92.4871 304.491L119.458 301.021L112.153 307.903ZM363.443 197.407L362.292 207.723L359.921 204.915L363.039 198.201L363.443 197.407ZM91.3638 124.99L105.863 115.37L87.6661 140.11L91.3638 124.99ZM165.024 333.122L146.949 330.12L177.956 319.902L174.702 323.347L165.024 333.122ZM351.933 108.633L352.047 136.696L345.382 121.5L349.668 113.081L351.933 108.633ZM126.445 69.8395L130.154 80.4297L118.675 74.8851L122.537 59.0487L126.445 69.8395ZM55.9854 149.884L61.5842 152.835L67.3029 155.747L66.6862 158.333L63.3597 171.742L55.9854 149.884ZM219.235 360.423L230.001 354.402L241.731 352.973L219.954 360.189L219.235 360.423ZM245.175 356.227L248.108 353.02L248.915 357.131L249.263 358.609L236.375 365.849L245.175 356.227ZM270.84 340.589L266.372 341.115L265.606 336.725L265.258 335.247L280.693 339.505L270.84 340.589ZM363.005 219.287L360.419 207.669L360.695 208.11L362.157 209.754L363.005 219.287ZM60.6741 299.596L61.818 295.777L66.6914 310.761L60.6741 299.596ZM50.938 290.038L60.9155 293.818L59.487 298.391L50.938 290.038ZM189.935 349.805L181.238 350.778L197.861 345.239L196.86 345.83L189.935 349.805ZM363.461 156.709L360.142 163.621L361.293 153.305L363.743 156.353L363.461 156.709ZM263.069 66.8891L268.578 71.1943L265.211 79.1818L263.953 82.2419L255.458 61.0139L263.069 66.8891ZM24.883 211.561L32.1916 182.277L36.0049 200.521L34.3989 202.104L24.883 211.561ZM70.8722 311.389L69.7672 315.327L64.8549 300.224L68.7884 307.428L70.8722 311.389ZM211.772 356.223L213.453 355.278L224.741 348.823L214.895 359.713L213.086 361.893L211.964 357.221L211.772 356.223ZM230.863 361.942L232.018 367.531L216.542 363.552L230.863 361.942ZM251.991 372.699L236.793 368.762L246.128 367.714L250.836 367.11L251.109 367.949L251.991 372.699ZM369.229 218.456L365.826 225.925L367.017 215.729L367.727 216.691L369.229 218.456ZM334.143 82.873L344.096 84.54L351.386 101.653L329.366 82.041L334.143 82.873ZM141.399 331.395L141.918 331.359L130.119 342.354L114.788 334.748L141.399 331.395ZM211.647 362.36L195.892 358.339L196.012 358.3L210.453 356.652L210.837 358.647L211.647 362.36ZM229.064 368.227L214.901 369.918L213.587 364.248L229.064 368.227ZM282.342 342.945L284.029 341.204L284.945 346.871L272.057 354.111L282.342 342.945ZM30.8127 245.686L31.6721 242.623L31.9595 241.469L32.5053 243.147L37.1087 256.892L30.8127 245.686ZM111.237 335.241L109.772 339.296L102.014 331.746L100.827 330.541L110.089 334.156L110.565 334.399L111.237 335.241ZM318.329 305.659L333.405 310.034L318.843 311.721L317.97 305.776L318.329 305.659ZM363.491 234.637L362.339 244.953L360.007 242.265L363.491 234.637ZM373.368 192.058L373.662 195.409L371.31 184.51L372.89 186.514L373.368 192.058ZM367.454 161.243L367.67 164.353L368.304 170.377L365.874 159.238L367.256 161.042L367.454 161.243ZM280.356 46.6861L288.812 67.7942L276.723 58.3388L275.812 57.5748L279.544 48.6732L280.356 46.6861ZM164.991 31.4556L148.962 26.5954L165.67 25.8003L177.758 35.2557L164.991 31.4556ZM148.096 25.1541L170.381 13.7967L165.48 24.4038L148.096 25.1541ZM70.9896 92.9133L96.7318 88.517L81.9115 98.3741L73.2135 94.0456L70.9896 92.9133ZM75.4259 96.7723L81.1056 99.5641L77.2433 115.4L69.905 94.0614L75.4259 96.7723ZM26.1404 153.892L51.6818 149.694L36.9814 159.512L31.2237 156.48L26.1404 153.892ZM39.0448 270.18L40.0688 266.401L40.1497 266.242L45.0231 281.225L39.0448 270.18ZM275.301 362.864L270.434 363.387L269.399 357.759L284.477 361.735L275.301 362.864ZM362.205 246.985L363.052 256.518L360.505 245.019L362.205 246.985ZM363.306 123.225L362.155 133.541L359.787 130.335L361.446 126.879L363.306 123.225ZM132.154 19.3378L135.606 5.09282L142.761 24.2382L138.271 22.2523L132.154 19.3378ZM12.7695 210.995L13.9623 211.402L21.9946 214.091L22.6661 214.933L21.4773 219.429L16.0938 214.288L12.7695 210.995ZM35.667 268.76L37.6454 270.768L42.2085 279.092L32.2228 265.507L35.667 268.76ZM38.377 285.243L47.2815 288.576L45.892 293.27L37.5018 284.997L38.377 285.243ZM88.4795 340.257L85.6073 335.094L82.3423 329.131L83.5252 325.432L83.6061 325.274L88.4795 340.257ZM94.0178 340.576L89.3767 332.012L92.9681 336.941L99.7971 346.119L94.0178 340.576ZM96.3401 339.158L89.3941 329.621L89.5919 329.821L95.0535 335.203L99.8145 343.728L96.3401 339.158ZM107.008 346.69L105.504 350.625L100.634 335.243L106.534 346.049L107.008 346.69ZM107.096 340.034L103.544 335.225L109.401 341.007L112.51 346.491L114.24 349.772L107.096 340.034ZM378.852 194.251L379.356 196.208L376.481 202.445L377.51 192.567L378.852 194.251ZM182.58 35.4104L187.481 24.8033L204.706 23.9722L182.58 35.4104ZM146.087 21.831L145.359 23.2607L138.402 4.31599L149.975 13.4088L146.087 21.831ZM41.564 290.966L45.6406 294.942L49.4183 301.666L50.1258 303.026L40.3769 289.761L41.564 290.966ZM78.6696 335.362L77.4867 339.061L73.588 327.074L72.7302 324.437L77.5692 333.202L78.6696 335.362ZM90.1879 341.027L86.5231 329.759L92.6993 341.005L91.3965 344.742L90.1879 341.027ZM121.514 352.575L120.01 356.511L115.062 340.889L121.514 352.575ZM235.777 382.347L224.566 383.74L246.103 376.603L240.739 379.673L235.777 382.347ZM276.822 367.539L270.979 370.765L259.768 372.158L281.424 364.982L276.822 367.539ZM223.406 34.1933L212.823 26.1041L237.92 33.5815L227.233 34.1414L223.406 34.1933ZM354.434 66.1997C354.434 66.1997 354.434 66.1997 354.395 66.0798C354.356 65.96 354.356 65.96 354.317 65.8401C354.198 65.8791 354.159 65.7592 354.159 65.7592L354.12 65.6393L354 65.6783C353.961 65.5585 353.961 65.5585 353.841 65.5975C353.802 65.4776 353.802 65.4776 353.682 65.5166C353.643 65.3967 353.643 65.3967 353.643 65.3967L136.24 0.114861L136.12 0.153845C136.081 0.0339791 136.081 0.0339791 135.962 0.0729679C135.962 0.0729679 135.803 -0.00791417 135.683 0.0310747C135.683 0.0310747 135.683 0.0310747 135.563 0.0700635L135.443 0.109048L135.323 0.148036L135.203 0.187025L135.083 0.226009L134.964 0.264998C134.883 0.423853 134.883 0.423853 134.763 0.462837C134.763 0.462837 134.643 0.501826 134.682 0.621692L0.376924 183.082C0.415908 183.202 0.415908 183.202 0.415908 183.202C0.296042 183.241 0.335031 183.36 0.335031 183.36C0.254153 183.519 0.254153 183.519 0.173271 183.678C0.21226 183.798 0.251249 183.918 0.131383 183.957C0.170367 184.077 0.170367 184.077 0.209356 184.197L0.24834 184.316C0.24834 184.316 0.24834 184.316 0.287329 184.436L49.0863 330.802C49.2033 331.161 49.56 331.443 49.9167 331.725L134.092 365.981L134.212 365.942C134.212 365.942 134.212 365.942 134.371 366.022L256.8 396.451C257.079 396.493 257.319 396.415 257.558 396.337C257.678 396.298 257.798 396.259 257.798 396.259C257.918 396.22 258.158 396.142 258.119 396.023L354.81 293.528C354.771 293.408 354.771 293.408 354.771 293.408C354.891 293.369 354.891 293.369 354.852 293.249C354.972 293.21 354.972 293.21 354.972 293.21C354.972 293.21 355.092 293.171 355.053 293.051L387.034 220.22C387.076 219.941 387.118 219.662 387.16 219.384L354.551 66.5593C354.632 66.4004 354.512 66.4394 354.473 66.3196L354.434 66.1997Z" fill="url(#paint0_linear_1_2200)" fill-opacity="0.2"/>
<defs>
<linearGradient id="paint0_linear_1_2200" x1="459.04" y1="364.339" x2="13.1319" y2="76.9767" gradientUnits="userSpaceOnUse">
<stop stop-color="#FF7300"/>
<stop offset="0.239216" stop-color="#F2397F"/>
<stop offset="0.411765" stop-color="#E500FF"/>
<stop offset="0.8" stop-color="#47C5DB"/>
<stop offset="0.988235" stop-color="#4D24FF"/>
<stop offset="1" stop-color="#4D24FF"/>
</linearGradient>
</defs>
</svg>
