<svg width="108" height="36" viewBox="0 0 108 36" fill="none" xmlns="http://www.w3.org/2000/svg">
<g filter="url(#filter0_d_0_558)">
<path d="M13 15.8878L14.5808 20.2207C15.174 21.8466 16.7579 22.9427 18.5467 22.9652L20.8083 22.9995C22.4447 23.0243 23.9411 22.1135 24.6204 20.6792L25.9723 17.8247C26.9705 15.7172 30.1048 15.7924 30.9928 17.9452C31.0819 18.1613 31.2003 18.365 31.345 18.551L31.5422 18.8045C33.7018 21.581 38.1005 21.3408 39.9205 18.3471L42.6648 13.8332C43.3225 12.7512 44.933 12.7161 45.6409 13.7683C45.9632 14.2474 46.5155 14.5366 47.1082 14.5366H49.1134C49.4583 14.5366 49.7817 14.375 49.9803 14.1033C50.3624 13.5809 51.143 13.5208 51.6063 13.9783L52.8602 15.2163C53.338 15.6881 53.9933 15.9541 54.6775 15.9541H54.8854C55.4671 15.9541 56.0218 15.7182 56.4137 15.3041C57.6199 14.0296 59.8233 14.7335 59.9999 16.4499L60.5812 22.0989C60.5891 22.1754 60.6064 22.2507 60.6329 22.3233C60.9789 23.2697 62.4098 23.1358 62.5603 22.143L63.2486 17.6008C63.5897 15.3499 66.8885 15.1659 67.4969 17.3639L67.5719 17.6347C68.1199 19.6147 70.9595 19.804 71.7854 17.9157L71.8462 17.7767C72.7239 15.77 75.77 16.0774 76.1969 18.2158L76.3797 19.1312C76.8788 21.631 80.4935 21.8763 81.3515 19.4686L82.0208 17.5904C82.9488 14.9863 86.7173 14.8461 87.851 17.3735L88.505 18.8317C89.1289 20.2226 90.5844 21.0936 92.1552 21.016L95 20.8754" stroke="#0BFFFF" stroke-width="2" stroke-linecap="round"/>
</g>
<defs>
<filter id="filter0_d_0_558" x="-0.000270844" y="0" width="108" height="36" filterUnits="userSpaceOnUse" color-interpolation-filters="sRGB">
<feFlood flood-opacity="0" result="BackgroundImageFix"/>
<feColorMatrix in="SourceAlpha" type="matrix" values="0 0 0 0 0 0 0 0 0 0 0 0 0 0 0 0 0 0 127 0" result="hardAlpha"/>
<feOffset/>
<feGaussianBlur stdDeviation="6"/>
<feColorMatrix type="matrix" values="0 0 0 0 0.921569 0 0 0 0 0.505882 0 0 0 0 0.32549 0 0 0 0.36 0"/>
<feBlend mode="normal" in2="BackgroundImageFix" result="effect1_dropShadow_0_558"/>
<feBlend mode="normal" in="SourceGraphic" in2="effect1_dropShadow_0_558" result="shape"/>
</filter>
</defs>
</svg>
