<svg width="32" height="33" viewBox="0 0 32 33" fill="none" xmlns="http://www.w3.org/2000/svg">
<rect y="0.912781" width="32" height="31.9737" rx="6" fill="#093536"/>
<path fill-rule="evenodd" clip-rule="evenodd" d="M15.7492 7.04841L23.9607 21.2827C24.0015 21.3553 24.0105 21.4324 23.9879 21.5094C23.9652 21.5911 23.9154 21.65 23.8428 21.6863L15.6314 25.8582C15.5453 25.9035 15.4547 25.9035 15.3686 25.8582L7.15715 21.6863C7.08465 21.65 7.0348 21.5911 7.01214 21.5094C6.98948 21.4324 6.99854 21.3553 7.03933 21.2827L15.2508 7.04841C15.3051 6.95772 15.3958 6.90784 15.5 6.90784C15.6042 6.90784 15.6949 6.95772 15.7492 7.04841ZM10.4744 21.4278L15.5 23.9808L20.5256 21.4278L15.5 18.8748L10.4744 21.4278ZM21.0921 19.7727L15.5 10.0821L9.90789 19.7727L15.3686 16.9975C15.4547 16.9521 15.5453 16.9521 15.6314 16.9975L21.0921 19.7727Z" fill="#0BFFFF"/>
</svg>
