<svg width="48" height="39" viewBox="0 0 48 39" fill="none" xmlns="http://www.w3.org/2000/svg">
<path fill-rule="evenodd" clip-rule="evenodd" d="M43.1838 31.831C42.8256 31.831 42.5362 31.5416 42.5362 31.1834V26.127H24.3543V31.1834C24.3543 31.5416 24.065 31.831 23.7068 31.831C23.3485 31.831 23.0592 31.5416 23.0592 31.1834V25.4795C23.0592 25.1212 23.3485 24.8319 23.7068 24.8319H43.1838C43.542 24.8319 43.8313 25.1212 43.8313 25.4795V31.1834C43.8313 31.5416 43.542 31.831 43.1838 31.831Z" fill="#020B21"/>
<path fill-rule="evenodd" clip-rule="evenodd" d="M4.2297 31.831C3.87148 31.831 3.58215 31.5416 3.58215 31.1834V25.4795C3.58215 25.1212 3.87148 24.8319 4.2297 24.8319H23.7067C24.065 24.8319 24.3543 25.1212 24.3543 25.4795C24.3543 25.8377 24.065 26.127 23.7067 26.127H4.87725V31.1834C4.87725 31.5416 4.58792 31.831 4.2297 31.831Z" fill="#020B21"/>
<path fill-rule="evenodd" clip-rule="evenodd" d="M7.81653 39.0001H0.647551C0.289331 39.0001 0 38.7108 0 38.3525V31.1836C0 30.8253 0.289331 30.536 0.647551 30.536H7.81653C8.17475 30.536 8.46408 30.8253 8.46408 31.1836V38.3525C8.46408 38.7108 8.17475 39.0001 7.81653 39.0001Z" fill="#020B21"/>
<path fill-rule="evenodd" clip-rule="evenodd" d="M27.2889 39.0001H20.1246C19.7663 39.0001 19.4724 38.7108 19.4724 38.3525V31.1836C19.4724 30.8253 19.7663 30.536 20.1246 30.536H27.2889C27.6472 30.536 27.9365 30.8253 27.9365 31.1836V38.3525C27.9365 38.7108 27.6472 39.0001 27.2889 39.0001Z" fill="#020B21"/>
<path fill-rule="evenodd" clip-rule="evenodd" d="M46.766 39.0001H39.597C39.2434 39.0001 38.9495 38.7108 38.9495 38.3525V31.1836C38.9495 30.8253 39.2434 30.536 39.597 30.536H46.766C47.1242 30.536 47.4135 30.8253 47.4135 31.1836V38.3525C47.4135 38.7108 47.1242 39.0001 46.766 39.0001Z" fill="#020B21"/>
<path fill-rule="evenodd" clip-rule="evenodd" d="M38.1182 26.1271C37.76 26.1271 37.4661 25.8377 37.4661 25.4795V18.5677C37.4661 18.2095 37.76 17.9202 38.1182 17.9202C38.4718 17.9202 38.7658 18.2095 38.7658 18.5677V25.4795C38.7658 25.8377 38.4718 26.1271 38.1182 26.1271Z" fill="#020B21"/>
<path fill-rule="evenodd" clip-rule="evenodd" d="M41.7004 19.2153H34.5315C34.1732 19.2153 33.8839 18.926 33.8839 18.5678V11.3988C33.8839 11.0406 34.1732 10.7512 34.5315 10.7512H41.7004C42.0587 10.7512 42.348 11.0406 42.348 11.3988V18.5678C42.348 18.926 42.0587 19.2153 41.7004 19.2153Z" fill="#020B21"/>
<path fill-rule="evenodd" clip-rule="evenodd" d="M9.29538 26.1271C8.93716 26.1271 8.64783 25.8377 8.64783 25.4795V18.5677C8.64783 18.2095 8.93716 17.9202 9.29538 17.9202C9.6536 17.9202 9.94752 18.2095 9.94752 18.5677V25.4795C9.94752 25.8377 9.6536 26.1271 9.29538 26.1271Z" fill="#020B21"/>
<path fill-rule="evenodd" clip-rule="evenodd" d="M12.8821 19.2153H5.7131C5.35488 19.2153 5.06555 18.926 5.06555 18.5678V11.3988C5.06555 11.0406 5.35488 10.7512 5.7131 10.7512H12.8821C13.2403 10.7512 13.5296 11.0406 13.5296 11.3988V18.5678C13.5296 18.926 13.2403 19.2153 12.8821 19.2153Z" fill="#020B21"/>
<path fill-rule="evenodd" clip-rule="evenodd" d="M23.7068 26.1271C23.3485 26.1271 23.0592 25.8378 23.0592 25.4796V7.81662C23.0592 7.4584 23.3485 7.16907 23.7068 7.16907C24.065 7.16907 24.3543 7.4584 24.3543 7.81662V25.4796C24.3543 25.8378 24.065 26.1271 23.7068 26.1271Z" fill="#020B21"/>
<path fill-rule="evenodd" clip-rule="evenodd" d="M27.2889 8.46408H20.1246C19.7663 8.46408 19.4724 8.17475 19.4724 7.81653V0.647551C19.4724 0.289331 19.7663 0 20.1246 0H27.2889C27.6472 0 27.9365 0.289331 27.9365 0.647551V7.81653C27.9365 8.17475 27.6472 8.46408 27.2889 8.46408Z" fill="#020B21"/>
</svg>
