<svg width="7" height="24" viewBox="0 0 7 24" fill="none" xmlns="http://www.w3.org/2000/svg">
<g clip-path="url(#clip0_1_1819)">
<path d="M3.08229 13.2818C3.70052 13.2818 4.2017 12.7806 4.2017 12.1624C4.2017 11.5441 3.70052 11.043 3.08229 11.043C2.46406 11.043 1.96289 11.5441 1.96289 12.1624C1.96289 12.7806 2.46406 13.2818 3.08229 13.2818Z" stroke="#0BFFFF" stroke-width="2" stroke-linecap="round" stroke-linejoin="round"/>
<path d="M3.08229 4.88724C3.70052 4.88724 4.2017 4.38607 4.2017 3.76784C4.2017 3.14961 3.70052 2.64844 3.08229 2.64844C2.46406 2.64844 1.96289 3.14961 1.96289 3.76784C1.96289 4.38607 2.46406 4.88724 3.08229 4.88724Z" stroke="#0BFFFF" stroke-width="2" stroke-linecap="round" stroke-linejoin="round"/>
<path d="M3.08229 21.6783C3.70052 21.6783 4.2017 21.1771 4.2017 20.5589C4.2017 19.9406 3.70052 19.4395 3.08229 19.4395C2.46406 19.4395 1.96289 19.9406 1.96289 20.5589C1.96289 21.1771 2.46406 21.6783 3.08229 21.6783Z" stroke="#0BFFFF" stroke-width="2" stroke-linecap="round" stroke-linejoin="round"/>
</g>
<defs>
<clipPath id="clip0_1_1819">
<rect width="6.0213" height="23.3731" fill="white" transform="translate(0.283691 0.476562)"/>
</clipPath>
</defs>
</svg>
