<svg width="25" height="24" viewBox="0 0 25 24" fill="none" xmlns="http://www.w3.org/2000/svg">
<path d="M12.3503 5.62598C11.0891 5.62574 9.85626 5.9995 8.80755 6.69997C7.75883 7.40045 6.9414 8.39619 6.45861 9.56126C5.97583 10.7263 5.84938 12.0084 6.09527 13.2453C6.34115 14.4823 6.94832 15.6185 7.83999 16.5104C8.73166 17.4022 9.86778 18.0096 11.1047 18.2557C12.3416 18.5019 13.6236 18.3757 14.7888 17.8931C15.954 17.4106 16.9499 16.5933 17.6506 15.5448C18.3513 14.4962 18.7253 13.2634 18.7253 12.0023C18.7235 10.3119 18.0514 8.6913 16.8562 7.49593C15.6611 6.30056 14.0406 5.62806 12.3503 5.62598Z" fill="url(#paint0_linear_0_254)"/>
<path d="M22.4855 10.8771H20.9868C20.6883 10.8771 20.4021 10.9956 20.1911 11.2066C19.9801 11.4176 19.8616 11.7038 19.8616 12.0023C19.8616 12.3007 19.9801 12.5869 20.1911 12.7979C20.4021 13.0089 20.6883 13.1275 20.9868 13.1275H22.4855C22.7839 13.1275 23.0701 13.0089 23.2811 12.7979C23.4921 12.5869 23.6107 12.3007 23.6107 12.0023C23.6107 11.7038 23.4921 11.4176 23.2811 11.2066C23.0701 10.9956 22.7839 10.8771 22.4855 10.8771Z" fill="url(#paint1_linear_0_254)"/>
<path d="M12.3493 19.4999C12.0511 19.5003 11.7652 19.619 11.5544 19.83C11.3436 20.0409 11.2251 20.3268 11.2249 20.6251V22.1252C11.2249 22.4234 11.3433 22.7094 11.5542 22.9203C11.765 23.1311 12.051 23.2496 12.3492 23.2496C12.6474 23.2496 12.9334 23.1311 13.1443 22.9203C13.3551 22.7094 13.4736 22.4234 13.4736 22.1252V20.6251C13.4734 20.3269 13.3549 20.0409 13.1441 19.83C12.9333 19.6191 12.6475 19.5003 12.3493 19.4999Z" fill="url(#paint2_linear_0_254)"/>
<path d="M4.85681 12.0022C4.85656 11.704 4.73803 11.4181 4.52723 11.2071C4.31643 10.9962 4.03057 10.8775 3.73236 10.877H2.23383C1.93541 10.877 1.64922 10.9956 1.4382 11.2066C1.22719 11.4176 1.10864 11.7038 1.10864 12.0022C1.10864 12.3006 1.22719 12.5868 1.4382 12.7978C1.64922 13.0088 1.93541 13.1274 2.23383 13.1274H3.73236C4.03058 13.1269 4.31643 13.0082 4.52723 12.7973C4.73803 12.5863 4.85656 12.3004 4.85681 12.0022Z" fill="url(#paint3_linear_0_254)"/>
<path d="M12.3499 4.50058C12.6481 4.50013 12.9339 4.38141 13.1447 4.17048C13.3555 3.95955 13.474 3.67361 13.4743 3.3754V1.87521C13.4743 1.57701 13.3558 1.29103 13.145 1.08017C12.9341 0.869313 12.6481 0.750854 12.3499 0.750854C12.0517 0.750854 11.7658 0.869313 11.5549 1.08017C11.344 1.29103 11.2256 1.57701 11.2256 1.87521V3.3754C11.2258 3.6736 11.3443 3.95952 11.5551 4.17046C11.7658 4.3814 12.0517 4.50012 12.3499 4.50058Z" fill="url(#paint4_linear_0_254)"/>
<path d="M19.2454 6.6972L20.3062 5.63642C20.411 5.53209 20.4941 5.40812 20.5509 5.27162C20.6076 5.13512 20.6369 4.98876 20.6371 4.84093C20.6372 4.69309 20.6082 4.54667 20.5517 4.41006C20.4952 4.27344 20.4123 4.14931 20.3078 4.04478C20.2032 3.94024 20.0791 3.85734 19.9425 3.80083C19.8059 3.74432 19.6595 3.71531 19.5116 3.71545C19.3638 3.7156 19.2174 3.7449 19.0809 3.80167C18.9444 3.85845 18.8205 3.94159 18.7161 4.04633L17.6553 5.10713C17.5506 5.21147 17.4675 5.33543 17.4107 5.47193C17.3539 5.60843 17.3246 5.75479 17.3245 5.90263C17.3243 6.05047 17.3533 6.19689 17.4098 6.3335C17.4663 6.47011 17.5492 6.59424 17.6538 6.69878C17.7583 6.80331 17.8825 6.88621 18.0191 6.94272C18.1557 6.99922 18.3021 7.02823 18.4499 7.02809C18.5978 7.02794 18.7441 6.99864 18.8806 6.94186C19.0171 6.88508 19.1411 6.80194 19.2454 6.6972Z" fill="url(#paint5_linear_0_254)"/>
<path d="M19.2453 17.3074C19.1409 17.2027 19.017 17.1196 18.8805 17.0628C18.744 17.0061 18.5976 16.9768 18.4498 16.9767C18.302 16.9766 18.1556 17.0056 18.019 17.0621C17.8824 17.1186 17.7583 17.2015 17.6538 17.306C17.5493 17.4105 17.4664 17.5346 17.4099 17.6712C17.3534 17.8078 17.3243 17.9542 17.3245 18.102C17.3246 18.2499 17.3539 18.3962 17.4106 18.5327C17.4674 18.6692 17.5505 18.7931 17.6552 18.8975L18.716 19.9583C18.8203 20.063 18.9443 20.1461 19.0808 20.2028C19.2173 20.2596 19.3636 20.2888 19.5114 20.289C19.6592 20.2891 19.8056 20.2601 19.9422 20.2036C20.0788 20.1471 20.2029 20.0642 20.3075 19.9597C20.412 19.8551 20.4949 19.731 20.5514 19.5944C20.6079 19.4578 20.6369 19.3114 20.6368 19.1636C20.6366 19.0158 20.6074 18.8695 20.5506 18.733C20.4939 18.5965 20.4108 18.4725 20.3061 18.3682L19.2453 17.3074Z" fill="url(#paint6_linear_0_254)"/>
<path d="M5.45465 17.3072L4.39387 18.368C4.2891 18.4723 4.20593 18.5963 4.14912 18.7328C4.09232 18.8693 4.063 19.0157 4.06284 19.1636C4.06268 19.3114 4.09168 19.4578 4.14819 19.5945C4.2047 19.7311 4.2876 19.8553 4.39215 19.9598C4.4967 20.0644 4.62084 20.1473 4.75748 20.2038C4.89411 20.2603 5.04055 20.2893 5.1884 20.2891C5.33626 20.289 5.48263 20.2596 5.61914 20.2028C5.75565 20.146 5.87961 20.0629 5.98394 19.9581L7.04474 18.8973C7.14944 18.793 7.23255 18.669 7.2893 18.5325C7.34605 18.396 7.37532 18.2497 7.37545 18.1018C7.37558 17.954 7.34656 17.8076 7.29005 17.671C7.23355 17.5345 7.15066 17.4103 7.04613 17.3058C6.94161 17.2013 6.8175 17.1184 6.68091 17.0619C6.54432 17.0054 6.39792 16.9764 6.2501 16.9765C6.10228 16.9766 5.95594 17.0059 5.81945 17.0627C5.68296 17.1194 5.55899 17.2025 5.45465 17.3072Z" fill="url(#paint7_linear_0_254)"/>
<path d="M5.45508 6.69715C5.55945 6.8017 5.68341 6.88466 5.81986 6.94128C5.95631 6.9979 6.10259 7.02708 6.25032 7.02714C6.39805 7.0272 6.54435 6.99815 6.68085 6.94164C6.81735 6.88514 6.94138 6.80228 7.04584 6.69782C7.1503 6.59336 7.23316 6.46933 7.28966 6.33283C7.34617 6.19633 7.37522 6.05003 7.37516 5.9023C7.37509 5.75457 7.34592 5.60829 7.2893 5.47184C7.23267 5.33539 7.14972 5.21143 7.04516 5.10706L5.98436 4.04626C5.88006 3.94137 5.75609 3.8581 5.61955 3.80121C5.48301 3.74432 5.33659 3.71493 5.18867 3.71472C5.04075 3.71452 4.89425 3.7435 4.75755 3.80001C4.62086 3.85652 4.49665 3.93945 4.39206 4.04404C4.28747 4.14864 4.20454 4.27284 4.14803 4.40954C4.09152 4.54624 4.06254 4.69274 4.06275 4.84066C4.06295 4.98858 4.09234 5.135 4.14924 5.27154C4.20613 5.40808 4.2894 5.53205 4.39429 5.63635L5.45508 6.69715Z" fill="url(#paint8_linear_0_254)"/>
<defs>
<linearGradient id="paint0_linear_0_254" x1="17.8128" y1="3.49998" x2="8.74348" y2="17.1022" gradientUnits="userSpaceOnUse">
<stop stop-color="#0BFFFF"/>
<stop offset="1" stop-color="#FE1BF1"/>
</linearGradient>
<linearGradient id="paint1_linear_0_254" x1="23.3424" y1="10.5019" x2="22.1463" y2="13.4906" gradientUnits="userSpaceOnUse">
<stop stop-color="#0BFFFF"/>
<stop offset="1" stop-color="#FE1BF1"/>
</linearGradient>
<linearGradient id="paint2_linear_0_254" x1="13.3127" y1="18.8747" x2="10.44" y2="21.4585" gradientUnits="userSpaceOnUse">
<stop stop-color="#0BFFFF"/>
<stop offset="1" stop-color="#FE1BF1"/>
</linearGradient>
<linearGradient id="paint3_linear_0_254" x1="4.58862" y1="10.5018" x2="3.39227" y2="13.4904" gradientUnits="userSpaceOnUse">
<stop stop-color="#0BFFFF"/>
<stop offset="1" stop-color="#FE1BF1"/>
</linearGradient>
<linearGradient id="paint4_linear_0_254" x1="13.3134" y1="0.125723" x2="10.4407" y2="2.70952" gradientUnits="userSpaceOnUse">
<stop stop-color="#0BFFFF"/>
<stop offset="1" stop-color="#FE1BF1"/>
</linearGradient>
<linearGradient id="paint5_linear_0_254" x1="20.4001" y1="3.16319" x2="18.0442" y2="6.69658" gradientUnits="userSpaceOnUse">
<stop stop-color="#0BFFFF"/>
<stop offset="1" stop-color="#FE1BF1"/>
</linearGradient>
<linearGradient id="paint6_linear_0_254" x1="20.3998" y1="16.4245" x2="18.0441" y2="19.9575" gradientUnits="userSpaceOnUse">
<stop stop-color="#0BFFFF"/>
<stop offset="1" stop-color="#FE1BF1"/>
</linearGradient>
<linearGradient id="paint7_linear_0_254" x1="7.13842" y1="16.4242" x2="4.78254" y2="19.9576" gradientUnits="userSpaceOnUse">
<stop stop-color="#0BFFFF"/>
<stop offset="1" stop-color="#FE1BF1"/>
</linearGradient>
<linearGradient id="paint8_linear_0_254" x1="7.13814" y1="3.1625" x2="4.78239" y2="6.69565" gradientUnits="userSpaceOnUse">
<stop stop-color="#0BFFFF"/>
<stop offset="1" stop-color="#FE1BF1"/>
</linearGradient>
</defs>
</svg>
