<svg width="51" height="45" viewBox="0 0 51 45" fill="none" xmlns="http://www.w3.org/2000/svg">
<path d="M44.7549 9.89886H38.7635C38.3727 9.89886 38.0616 9.58771 38.0616 9.19697C38.0616 8.81346 38.3727 8.49508 38.7635 8.49508H44.053V1.39655H6.93952V8.49508H12.2363C12.6198 8.49508 12.9382 8.81346 12.9382 9.19697C12.9382 9.58771 12.6198 9.89886 12.2363 9.89886H6.23763C5.85412 9.89886 5.54297 9.58771 5.54297 9.19697V0.701893C5.54297 0.311148 5.85412 0 6.23763 0H44.7549C45.1457 0 45.4568 0.311148 45.4568 0.701893V9.19697C45.4568 9.58771 45.1457 9.89886 44.7549 9.89886Z" fill="#020B21"/>
<path d="M25.5001 5.8467C22.584 5.8467 20.1237 3.67589 19.7619 0.788725C19.7185 0.405217 19.9863 0.0506525 20.3698 0.00723644C20.7605 -0.0434156 21.1078 0.231553 21.1513 0.615061C21.4262 2.80034 23.2931 4.45015 25.5001 4.45015C27.7071 4.45015 29.574 2.80034 29.8417 0.615061C29.8924 0.231553 30.2397 -0.0434156 30.6232 0.00723644C31.0067 0.0506525 31.2817 0.405217 31.231 0.788725C30.8764 3.67589 28.409 5.8467 25.5001 5.8467Z" fill="#020B21"/>
<path d="M25.5 12.4676C24.9717 12.4676 24.5376 12.9018 24.5376 13.43C24.5376 13.9654 24.9717 14.3924 25.5 14.3924C26.0282 14.3924 26.4624 13.9654 26.4624 13.43C26.4624 12.9018 26.0282 12.4676 25.5 12.4676ZM25.5 15.7962C24.1975 15.7962 23.1338 14.7325 23.1338 13.43C23.1338 12.1275 24.1975 11.071 25.5 11.071C26.8024 11.071 27.8589 12.1275 27.8589 13.43C27.8589 14.7325 26.8024 15.7962 25.5 15.7962Z" fill="#020B21"/>
<path d="M38.7635 25.0221H12.2363C11.8456 25.0221 11.5344 24.7037 11.5344 24.3202V0.701893C11.5344 0.311148 11.8456 0 12.2363 0C12.6198 0 12.9382 0.311148 12.9382 0.701893V23.6183H38.0616V0.701893C38.0616 0.311148 38.3728 0 38.7635 0C39.147 0 39.4654 0.311148 39.4654 0.701893V24.3202C39.4654 24.7037 39.147 25.0221 38.7635 25.0221Z" fill="#020B21"/>
<path d="M31.2742 21.4909H19.7256C19.3421 21.4909 19.0237 21.1798 19.0237 20.7963C19.0237 18.9945 17.5692 17.5329 15.7675 17.5256C15.4491 17.5329 15.1597 17.3158 15.0801 16.9974C15.0656 16.9395 15.0583 16.8816 15.0583 16.8237V0.701893C15.0583 0.311148 15.3767 0 15.7602 0C16.1438 0 16.4621 0.311148 16.4621 0.701893V16.1797C18.4737 16.4836 20.0657 18.0828 20.3696 20.0944H30.623C30.9269 18.0828 32.5261 16.4836 34.5377 16.1797V0.701893C34.5377 0.311148 34.8488 0 35.2396 0C35.6231 0 35.9342 0.311148 35.9342 0.701893V16.831C35.9342 17.0119 35.8619 17.1928 35.7316 17.323C35.6014 17.4533 35.4205 17.5256 35.2396 17.5256C34.364 17.5256 33.5464 17.8657 32.9313 18.488C32.309 19.1031 31.9689 19.9207 31.9689 20.7963C31.9689 21.1798 31.6578 21.4909 31.2742 21.4909Z" fill="#020B21"/>
<path d="M25.5 44.7982C25.2612 44.7982 25.0369 44.6752 24.9066 44.4726L20.3552 37.2511C20.2177 37.0412 20.2105 36.7663 20.3335 36.5419C20.4565 36.3176 20.688 36.1801 20.9485 36.1801H23.0832V27.7791C23.0832 27.5982 23.1555 27.4173 23.2858 27.2871C23.416 27.1568 23.5969 27.0845 23.785 27.0845H27.2149C27.5984 27.0845 27.9168 27.3956 27.9168 27.7791V36.1801H30.0514C30.3047 36.1801 30.5435 36.3176 30.6665 36.5419C30.7895 36.7663 30.7823 37.0412 30.6448 37.2511L26.0933 44.4726C25.9631 44.6752 25.7388 44.7982 25.5 44.7982Z" fill="#020B21"/>
<path d="M22.2148 37.5839L25.5 42.7865L28.7851 37.5839H27.2149C26.8314 37.5839 26.513 37.2655 26.513 36.882V28.481H24.4797V36.882C24.4797 37.0629 24.4074 37.2438 24.2771 37.374C24.1469 37.5043 23.966 37.5839 23.7851 37.5839H22.2148Z" fill="#020B21"/>
<path d="M45.7463 35.2901C45.5075 35.2901 45.2832 35.1671 45.153 34.9572L40.6015 27.7429C40.464 27.5258 40.4568 27.2581 40.5798 27.0338C40.7028 26.8095 40.9344 26.672 41.1949 26.672H43.3295V18.271C43.3295 18.0828 43.4019 17.9092 43.5321 17.7789C43.6623 17.6487 43.8432 17.5691 44.0314 17.5691H47.4613C47.8448 17.5691 48.1631 17.8875 48.1631 18.271V26.672H50.2978C50.551 26.672 50.7898 26.8095 50.9128 27.0338C51.0358 27.2581 51.0286 27.5258 50.8911 27.7429L46.3397 34.9572C46.2094 35.1671 45.9851 35.2901 45.7463 35.2901Z" fill="#020B21"/>
<path d="M42.4612 28.0684L45.7463 33.2784L49.0315 28.0684H47.4613C47.0778 28.0684 46.7594 27.7573 46.7594 27.3738V18.9728H44.7261V27.3738C44.7261 27.5547 44.6537 27.7356 44.5234 27.8658C44.3932 27.9961 44.2123 28.0684 44.0314 28.0684H42.4612Z" fill="#020B21"/>
<path d="M5.25364 35.2901C5.01486 35.2901 4.79054 35.1671 4.66029 34.9572L0.108842 27.7429C-0.0286425 27.5258 -0.0358785 27.2581 0.0871336 27.0338C0.210146 26.8095 0.441698 26.672 0.702194 26.672H2.83682V18.271C2.83682 18.0828 2.90918 17.9092 3.03943 17.7789C3.16967 17.6487 3.35057 17.5691 3.53871 17.5691H6.96858C7.35209 17.5691 7.67047 17.8875 7.67047 18.271V26.672H9.80509C10.0584 26.672 10.2971 26.8095 10.4202 27.0338C10.5432 27.2581 10.5359 27.5258 10.3984 27.7429L5.847 34.9572C5.71675 35.1671 5.49243 35.2901 5.25364 35.2901Z" fill="#020B21"/>
<path d="M1.96851 28.0684L5.25365 33.2784L8.5388 28.0684H6.96859C6.58508 28.0684 6.2667 27.7573 6.2667 27.3738V18.9728H4.23338V27.3738C4.23338 27.5547 4.16102 27.7356 4.03077 27.8658C3.90052 27.9961 3.71962 28.0684 3.53872 28.0684H1.96851Z" fill="#020B21"/>
<path fill-rule="evenodd" clip-rule="evenodd" d="M6.62842 8.98713H11.8528V0.911743H6.62842V8.98713Z" fill="#020B21"/>
<path fill-rule="evenodd" clip-rule="evenodd" d="M39.1904 0.984131V8.9148H44.328V0.984131H39.1904Z" fill="#020B21"/>
</svg>
